<svg width="113" height="113" viewBox="0 0 113 113" fill="none" xmlns="http://www.w3.org/2000/svg">
<path d="M56.5 113C87.7041 113 113 87.7041 113 56.5C113 25.2959 87.7041 0 56.5 0C25.2959 0 0 25.2959 0 56.5C0 87.7041 25.2959 113 56.5 113Z" fill="#EAB14D"/>
<path d="M56.5001 0C55.4915 0 54.4892 0.0275879 53.4937 0.0796738C83.3 1.64269 106.987 26.3045 106.987 56.5C106.987 86.6955 83.3 111.357 53.4937 112.92C54.4892 112.972 55.4915 113 56.5001 113C87.7042 113 113 87.7041 113 56.5C113 25.2959 87.7042 0 56.5001 0Z" fill="#E49542"/>
<path d="M56.5001 100.527C80.8157 100.527 100.527 80.8157 100.527 56.5001C100.527 32.1844 80.8157 12.4727 56.5001 12.4727C32.1844 12.4727 12.4727 32.1844 12.4727 56.5001C12.4727 80.8157 32.1844 100.527 56.5001 100.527Z" fill="#F4FBFF"/>
<path d="M56.5 12.4727C55.2806 12.4727 54.0736 12.5245 52.8794 12.6216C75.5012 14.4632 93.2864 33.4037 93.2864 56.5001C93.2864 79.5964 75.5012 98.5367 52.8794 100.378C54.0736 100.476 55.2806 100.528 56.5 100.528C80.8158 100.528 100.527 80.8158 100.527 56.5003C100.527 32.1848 80.8158 12.4727 56.5 12.4727Z" fill="#DAF1F4"/>
<path d="M56.5001 26.0234C55.5583 26.0234 54.7949 25.26 54.7949 24.3183V21.8155C54.7949 20.8738 55.5583 20.1104 56.5001 20.1104C57.4418 20.1104 58.2054 20.8738 58.2054 21.8155V24.3183C58.2054 25.26 57.4418 26.0234 56.5001 26.0234Z" fill="#2B4D66"/>
<path d="M79.1633 35.4878C78.7268 35.4878 78.2904 35.3211 77.9574 34.9883C77.2915 34.3222 77.2915 33.2428 77.9576 32.5767L79.7274 30.8071C80.3933 30.141 81.473 30.1412 82.139 30.8071C82.8049 31.4732 82.8049 32.5526 82.1388 33.2187L80.369 34.9885C80.036 35.3211 79.5996 35.4878 79.1633 35.4878Z" fill="#2B4D66"/>
<path d="M90.9994 58.2055H88.4967C87.5547 58.2055 86.7915 57.4421 86.7915 56.5003C86.7915 55.5586 87.5549 54.7952 88.4967 54.7952H90.9994C91.9414 54.7952 92.7046 55.5586 92.7046 56.5003C92.7046 57.4421 91.9412 58.2055 90.9994 58.2055Z" fill="#2B4D66"/>
<path d="M80.8016 82.6386C80.3652 82.6386 79.9287 82.472 79.5956 82.1392L77.8261 80.3696C77.1602 79.7035 77.1602 78.624 77.8261 77.9577C78.4921 77.2921 79.5716 77.2921 80.2379 77.9577L82.0075 79.7273C82.6733 80.3934 82.6733 81.4729 82.0075 82.1392C81.6744 82.472 81.2379 82.6386 80.8016 82.6386Z" fill="#2B4D66"/>
<path d="M56.314 92.7048C55.3723 92.7048 54.6089 91.9414 54.6089 90.9997V88.4969C54.6089 87.5549 55.3723 86.7917 56.314 86.7917C57.2558 86.7917 58.0192 87.5552 58.0192 88.4969V90.9997C58.0192 91.9414 57.2558 92.7048 56.314 92.7048Z" fill="#2B4D66"/>
<path d="M31.881 82.5071C31.4446 82.5071 31.0081 82.3405 30.6753 82.0074C30.0092 81.3416 30.0094 80.2619 30.6753 79.5958L32.4451 77.8262C33.1112 77.1605 34.1906 77.1603 34.8567 77.8264C35.5226 78.4923 35.5226 79.572 34.8565 80.238L33.0867 82.0076C32.7538 82.3407 32.3173 82.5071 31.881 82.5071Z" fill="#2B4D66"/>
<path d="M24.3178 58.0199H21.815C20.8733 58.0199 20.1099 57.2565 20.1099 56.3148C20.1099 55.373 20.8733 54.6096 21.815 54.6096H24.3178C25.2595 54.6096 26.0229 55.373 26.0229 56.3148C26.0232 57.2565 25.2595 58.0199 24.3178 58.0199Z" fill="#2B4D66"/>
<path d="M33.7822 35.3564C33.3458 35.3564 32.9095 35.19 32.5765 34.857L30.8066 33.0874C30.1408 32.4213 30.1406 31.3419 30.8064 30.6758C31.4725 30.0099 32.552 30.0097 33.218 30.6756L34.9879 32.4454C35.6537 33.1112 35.6539 34.1909 34.9881 34.857C34.6548 35.1898 34.2185 35.3564 33.7822 35.3564Z" fill="#2B4D66"/>
<path d="M56.5002 58.2054H42.0177C41.0759 58.2054 40.3125 57.4418 40.3125 56.5C40.3125 55.5583 41.0759 54.7949 42.0177 54.7949H54.7948V33.1004C54.7948 32.1587 55.5582 31.3953 56.5 31.3953C57.4417 31.3953 58.2051 32.1587 58.2051 33.1004V56.5C58.2054 57.4418 57.4419 58.2054 56.5002 58.2054Z" fill="#2B4D66"/>
<path d="M73.9942 67.2021C73.7316 67.2021 73.4654 67.1412 73.2158 67.013L55.7202 58.0163C54.8826 57.5857 54.5529 56.5576 54.9835 55.7201C55.4141 54.8825 56.4421 54.5525 57.2799 54.9834L74.7755 63.9799C75.6131 64.4107 75.943 65.4387 75.5122 66.2761C75.2096 66.8643 74.6128 67.2021 73.9942 67.2021Z" fill="#DA4A54"/>
<path d="M56.5001 61.0514C59.0137 61.0514 61.0514 59.0137 61.0514 56.5001C61.0514 53.9864 59.0137 51.9487 56.5001 51.9487C53.9864 51.9487 51.9487 53.9864 51.9487 56.5001C51.9487 59.0137 53.9864 61.0514 56.5001 61.0514Z" fill="#365E7D"/>
</svg>
