<svg width="143" height="95" viewBox="0 0 143 95" fill="none" xmlns="http://www.w3.org/2000/svg">
<path d="M142.98 87.1012C142.969 86.7905 142.958 86.4781 142.947 86.1648C142.936 85.8514 142.924 85.5371 142.913 85.2213L142.904 84.9849L142.899 84.8665L142.898 84.8368L142.895 84.5719L142.894 84.5595L142.89 84.5105L142.86 84.1181C142.819 83.5944 142.778 83.0684 142.737 82.5425L142.706 82.1444L142.659 81.6281C142.627 81.2847 142.594 80.9415 142.562 80.5991C142.529 80.2572 142.495 79.9158 142.461 79.5756C142.444 79.4057 142.427 79.236 142.41 79.0667C142.389 78.91 142.368 78.7536 142.347 78.5972C142.176 77.3566 142.023 76.1373 141.804 74.9652C141.701 74.3787 141.606 73.8021 141.499 73.24C141.382 72.6793 141.267 72.1311 141.156 71.5971C140.945 70.5287 140.68 69.5309 140.456 68.6085C140.399 68.3783 140.343 68.1525 140.289 67.9323C140.228 67.713 140.168 67.4992 140.11 67.2905C139.993 66.8741 139.881 66.479 139.776 66.1081C139.669 65.7376 139.575 65.3899 139.476 65.0711C139.375 64.7533 139.282 64.4613 139.198 64.1976C139.073 63.8101 138.968 63.4838 138.885 63.2259C138.762 62.8453 138.36 62.6312 137.975 62.7408L113.799 69.6305C113.43 69.7354 113.202 70.1024 113.272 70.479C113.298 70.6196 113.328 70.7807 113.362 70.9609C113.396 71.1423 113.434 71.3434 113.476 71.5621C113.515 71.7814 113.546 72.0216 113.586 72.2756C113.625 72.5298 113.666 72.8006 113.709 73.0858C113.731 73.2284 113.756 73.3737 113.775 73.5239C113.793 73.6744 113.81 73.8287 113.828 73.986C113.895 74.6158 113.996 75.2911 114.041 76.0151C114.07 76.3753 114.101 76.7454 114.132 77.1231C114.156 77.5021 114.168 77.8905 114.188 78.2835C114.24 79.0682 114.23 79.8853 114.245 80.7092L114.249 81.0162L114.238 81.2879C114.232 81.4689 114.225 81.6503 114.219 81.8323C114.214 82.0134 114.21 82.1951 114.205 82.3771L114.199 82.6491L114.182 83.0407C114.16 83.5679 114.137 84.0947 114.115 84.6198L114.098 85.0131L114.096 85.0621L114.095 85.0742C114.096 85.1333 114.091 84.6059 114.092 84.8336L114.09 84.8531L114.083 84.9307L114.069 85.0859C114.05 85.2926 114.032 85.4981 114.013 85.7034C113.995 85.908 113.977 86.1121 113.96 86.3148C113.936 86.5168 113.912 86.7179 113.888 86.9175C113.836 87.3164 113.805 87.7116 113.741 88.0965C113.685 88.4816 113.631 88.8599 113.577 89.2307C113.513 89.5987 113.45 89.9589 113.389 90.3093C113.334 90.6601 113.261 90.9978 113.195 91.3248C113.126 91.6511 113.072 91.968 113.001 92.2687C112.931 92.5695 112.865 92.8573 112.801 93.1312C112.77 93.2664 112.739 93.3981 112.71 93.5264C112.68 93.6363 112.65 93.7428 112.621 93.8462C112.605 93.9095 112.589 93.9688 112.572 94.03H142.141C142.538 94.03 142.868 93.719 142.883 93.323C142.883 93.3206 142.883 93.3183 142.883 93.3159C142.908 92.7653 142.933 92.1999 142.959 91.6219C142.97 91.0445 142.981 90.4544 142.993 89.8544C143.009 89.2551 142.991 88.6459 142.99 88.0299C142.986 87.7221 142.983 87.4125 142.98 87.1012Z" fill="#FF0000"/>
<path d="M135.291 56.0661C135.688 55.9064 135.869 55.4469 135.686 55.0605C135.605 54.8888 135.51 54.688 135.402 54.4609C135.301 54.2474 135.188 54.0111 135.066 53.7538C134.909 53.4322 134.738 53.0844 134.555 52.7128C134.371 52.3426 134.176 51.9487 133.969 51.5336C133.865 51.3177 133.762 51.1396 133.654 50.937C133.547 50.7389 133.437 50.5363 133.325 50.3294C133.1 49.9163 132.869 49.4845 132.622 49.0422C132.367 48.6048 132.103 48.1523 131.831 47.6872C131.695 47.4552 131.557 47.22 131.417 46.9821C131.271 46.7479 131.123 46.5108 130.974 46.2712C130.673 45.7939 130.366 45.306 130.054 44.8102C129.395 43.8393 128.739 42.8238 128.007 41.8356C127.827 41.5868 127.647 41.3371 127.465 41.0866L127.193 40.7112L126.909 40.342C126.53 39.8508 126.149 39.358 125.768 38.865C125.381 38.3778 124.98 37.9008 124.587 37.4219C124.388 37.1841 124.196 36.9428 123.993 36.7104C123.789 36.4787 123.587 36.2477 123.385 36.0175C123.183 35.7883 122.981 35.5595 122.781 35.332C122.582 35.1037 122.381 34.8792 122.174 34.6622C121.764 34.2255 121.359 33.7943 120.961 33.3699C120.562 32.9469 120.149 32.5494 119.756 32.152C119.36 31.7567 118.975 31.3685 118.582 31.008C118.194 30.6444 117.816 30.2906 117.45 29.9483C117.086 29.6053 116.714 29.2937 116.368 28.9851C116.019 28.6798 115.685 28.3874 115.366 28.1092C115.04 27.8402 114.73 27.5852 114.44 27.3456C114.148 27.1068 113.876 26.8835 113.624 26.6769C113.372 26.4712 113.131 26.2928 112.918 26.1265C112.608 25.8888 112.347 25.688 112.139 25.5284C111.822 25.2852 111.37 25.3371 111.116 25.6452L98.1396 41.352C97.895 41.6482 97.9159 42.0812 98.1888 42.3515C98.2973 42.4587 98.4226 42.5827 98.5635 42.7222C98.6985 42.8579 98.8532 43.0015 99.0119 43.1692C99.1705 43.3367 99.3418 43.5181 99.525 43.7116C99.7085 43.9043 99.9036 44.1093 100.109 44.3255C100.307 44.5486 100.516 44.7835 100.733 45.0285C100.948 45.2756 101.183 45.521 101.406 45.7946C101.632 46.0656 101.864 46.3456 102.104 46.6335C102.348 46.9162 102.581 47.2231 102.822 47.5332C103.061 47.8454 103.316 48.1532 103.555 48.4833C103.795 48.8124 104.039 49.1468 104.286 49.4855C104.411 49.6522 104.531 49.826 104.648 50.0024C104.767 50.1776 104.887 50.3535 105.007 50.5302C105.127 50.706 105.248 50.8827 105.369 51.06C105.489 51.2373 105.6 51.4228 105.717 51.6042C105.946 51.9703 106.183 52.3309 106.408 52.6995C106.628 53.0718 106.847 53.4442 107.066 53.8149L107.23 54.0916L107.384 54.3741C107.486 54.5617 107.589 54.749 107.691 54.9352C108.111 55.6711 108.466 56.4299 108.838 57.1428C109.008 57.5082 109.175 57.8674 109.339 58.2193C109.421 58.3945 109.502 58.568 109.582 58.7391C109.656 58.9134 109.729 59.0855 109.802 59.2554C109.947 59.5935 110.088 59.9228 110.225 60.2409C110.351 60.5635 110.473 60.8751 110.59 61.174C110.649 61.3233 110.706 61.4695 110.762 61.6123C110.815 61.7517 110.881 61.9025 110.916 62.0186C111 62.2623 111.079 62.4937 111.153 62.711C111.229 62.9269 111.3 63.1287 111.366 63.3155C111.452 63.5731 111.531 63.8091 111.603 64.0226C111.682 64.261 111.752 64.4717 111.813 64.6524C111.948 65.0577 112.397 65.2644 112.793 65.1051L135.291 56.0661Z" fill="#508EF0"/>
<path d="M69.2129 28.0108C69.4095 28.0376 69.6269 28.0673 69.8638 28.0996C70.0992 28.1406 70.3539 28.185 70.6259 28.2324C70.8974 28.279 71.1865 28.3286 71.491 28.3809C71.7556 28.4249 72.0297 28.4887 72.3146 28.5483L80.5038 11.7975C80.0979 11.7341 79.6952 11.6712 79.3007 11.6097C79.0303 11.5695 78.7642 11.5233 78.4991 11.4901C78.2341 11.4581 77.9721 11.4263 77.7137 11.395C77.1975 11.3337 76.6955 11.274 76.2101 11.2163C75.7233 11.1746 75.2529 11.1343 74.8015 11.0956C74.3499 11.061 73.9192 11.0154 73.507 10.9958C73.0954 10.9756 72.705 10.9564 72.3381 10.9383C71.9716 10.921 71.6287 10.9049 71.3118 10.8898C70.9947 10.8847 70.7033 10.8801 70.44 10.8758C70.0697 10.8713 69.7554 10.8676 69.5034 10.8646C69.1038 10.8597 68.7731 11.1721 68.754 11.5713L68.0072 27.1623C67.9888 27.5464 68.266 27.8809 68.6469 27.9331C68.8092 27.9554 68.9984 27.9814 69.2129 28.0108Z" fill="#8AB7FF"/>
<path d="M91.2227 36.5958C91.4427 36.7558 91.6514 36.9076 91.8474 37.0504C92.0437 37.191 92.2274 37.3226 92.3974 37.4443C92.471 37.4949 92.5925 37.587 92.6917 37.6608C92.7939 37.7371 92.8913 37.8098 92.9835 37.8788C93.1851 38.0291 93.363 38.1619 93.5153 38.2755C93.8579 38.5311 94.3441 38.4447 94.5788 38.0874L105.271 21.8011C105.505 21.4438 105.392 20.9631 105.021 20.7504C104.856 20.6559 104.663 20.5454 104.445 20.4203C104.345 20.3628 104.24 20.3025 104.129 20.2389C104.008 20.1708 103.882 20.0994 103.751 20.0251C103.447 19.8574 103.118 19.6763 102.766 19.4826C102.415 19.2909 102.04 19.0871 101.646 18.872C101.27 18.6837 100.875 18.4858 100.463 18.2791C100.049 18.0771 99.6264 17.8524 99.1734 17.6484C98.7226 17.4419 98.2566 17.2283 97.7776 17.0087C97.3018 16.7841 96.7997 16.5801 96.29 16.3661C95.7782 16.1565 95.2632 15.9274 94.7254 15.7253C94.5892 15.6737 94.4509 15.6214 94.3136 15.5693L89.7012 35.589C89.9562 35.7491 90.1964 35.9189 90.433 36.0722C90.7085 36.2547 90.9719 36.4295 91.2227 36.5958Z" fill="#8AB7FF"/>
<path d="M54.8565 27.9293C55.0631 27.902 55.2658 27.8683 55.4683 27.8469C55.6707 27.8265 55.8708 27.8061 56.068 27.786C56.4616 27.7452 56.8444 27.7054 57.2148 27.6669C57.5863 27.6421 57.9453 27.618 58.2899 27.5948C58.4618 27.5831 58.6301 27.5716 58.7946 27.5603C58.9587 27.5493 59.1231 27.5354 59.2639 27.5352C59.5543 27.5275 59.8299 27.5204 60.0887 27.5137C60.3467 27.5055 60.5878 27.4979 60.8112 27.4908C61.0865 27.489 61.3394 27.4873 61.5676 27.4858C61.819 27.4845 62.0411 27.4833 62.2311 27.4822C62.6586 27.48 62.9946 27.1179 62.9666 26.6914L62.0041 12.0045C61.976 11.578 61.5957 11.2629 61.1717 11.3165C60.9831 11.3403 60.7629 11.3681 60.5135 11.3996C60.2823 11.4289 60.0262 11.4616 59.7474 11.4971C59.4181 11.546 59.0619 11.5987 58.6813 11.6552C58.3018 11.713 57.8978 11.7745 57.4719 11.8394C57.254 11.8701 57.0533 11.9109 56.8427 11.9507C56.6328 11.9907 56.418 12.0318 56.1986 12.0736C55.7608 12.1582 55.3048 12.2464 54.8325 12.3377C54.3639 12.4444 53.8792 12.5549 53.3811 12.6682C53.1326 12.7253 52.8806 12.7832 52.6256 12.8419C52.3709 12.9015 52.1155 12.9744 51.8564 13.0414C51.3394 13.1791 50.8115 13.3198 50.2744 13.4628C49.7427 13.6232 49.2022 13.786 48.6552 13.951C48.3824 14.0354 48.1068 14.1151 47.8329 14.2052C47.5601 14.2984 47.2854 14.3919 47.0099 14.486C46.7349 14.5802 46.4589 14.6747 46.182 14.7697C45.9051 14.8639 45.6277 14.9586 45.354 15.0665C44.8053 15.2759 44.2546 15.4862 43.7038 15.6965C43.1554 15.9111 42.6161 16.149 42.0756 16.374C41.8061 16.4889 41.5359 16.5996 41.2696 16.7175C41.0052 16.8396 40.7416 16.9612 40.4789 17.0825C40.2169 17.2039 39.9557 17.3249 39.696 17.4452C39.4364 17.5653 39.1778 17.6836 38.9264 17.8141C38.4218 18.0688 37.9234 18.3205 37.4333 18.5679C36.9431 18.8137 36.4758 19.085 36.0118 19.3347C35.5498 19.5891 35.0955 19.8317 34.667 20.0932C34.236 20.3488 33.8168 20.5976 33.4113 20.8382C33.0046 21.0754 32.6273 21.3316 32.2577 21.5631C31.8905 21.7984 31.5387 22.024 31.2041 22.2385C30.8767 22.4632 30.566 22.6764 30.2742 22.8767C29.9831 23.0772 29.7106 23.2648 29.4586 23.4383C29.2069 23.6119 28.9843 23.7839 28.7792 23.9327C28.5011 24.138 28.2638 24.3132 28.0717 24.455C27.7509 24.6918 27.6756 25.139 27.8999 25.4688L33.9985 34.435C34.2155 34.7541 34.6399 34.8542 34.976 34.6644C35.1309 34.5771 35.3139 34.4737 35.5227 34.356C35.7047 34.2553 35.9016 34.1364 36.1239 34.0206C36.3461 33.9047 36.5863 33.7798 36.843 33.6461C37.0989 33.5123 37.3713 33.3699 37.6584 33.2198C37.9504 33.0798 38.2573 32.9326 38.5776 32.7791C38.8995 32.6291 39.226 32.4574 39.578 32.3076C39.9274 32.1542 40.2887 31.9957 40.6602 31.8327C41.0279 31.6634 41.4175 31.5154 41.8115 31.3574C42.2077 31.2038 42.6045 31.0301 43.0201 30.8833C43.4339 30.7342 43.8548 30.5826 44.2806 30.4291C44.4918 30.3488 44.7092 30.2809 44.927 30.2114C45.1443 30.1414 45.3629 30.0711 45.5822 30.0005C45.8011 29.9298 46.0208 29.8587 46.2412 29.7874C46.4628 29.7201 46.6875 29.6599 46.9107 29.5954C47.3592 29.4714 47.8046 29.3338 48.2561 29.2185C48.708 29.1067 49.1599 28.9948 49.61 28.8836C49.8334 28.8242 50.06 28.7776 50.2857 28.7311C50.5109 28.6837 50.7355 28.6364 50.9593 28.5893C51.1824 28.5419 51.4047 28.4948 51.626 28.4478C51.8477 28.4036 52.0706 28.3694 52.2905 28.3298C52.7304 28.2535 53.1648 28.1779 53.5923 28.1039C54.0213 28.0447 54.4432 27.9863 54.8565 27.9293Z" fill="#C7DAF8"/>
<path d="M13.2725 39.522C13.1126 39.7481 12.9521 39.9752 12.7909 40.2033C12.6302 40.4312 12.4688 40.66 12.3068 40.8895C12.1456 41.1194 11.9948 41.3578 11.8379 41.5923C11.5288 42.0645 11.2124 42.5331 10.9095 43.0106C10.6137 43.4921 10.3179 43.9736 10.0234 44.4534L9.80359 44.8125L9.59496 45.1776C9.45632 45.4202 9.31814 45.6624 9.18041 45.9034C8.61744 46.8597 8.12838 47.8372 7.63135 48.7656C7.39999 49.239 7.17239 49.7046 6.94962 50.1604C6.83913 50.388 6.7297 50.6135 6.62177 50.836C6.52017 51.0615 6.41992 51.2844 6.32087 51.5045C6.12368 51.9437 5.93191 52.3712 5.74631 52.7845C5.57321 53.2031 5.40582 53.6075 5.24521 53.9955C5.08776 54.3848 4.92866 54.7531 4.79303 55.1106C4.65922 55.4684 4.53217 55.808 4.41265 56.127C4.29374 56.4456 4.1825 56.7438 4.07969 57.0196C3.98471 57.298 3.89755 57.5538 3.81868 57.7848C3.71632 58.0886 3.62841 58.3493 3.55661 58.5628C3.42942 58.94 3.62284 59.3493 3.99464 59.4918L9.67097 61.668C10.0322 61.8064 10.4391 61.6448 10.606 61.2957C10.6888 61.1229 10.7877 60.9159 10.9014 60.6783C10.9956 60.4824 11.0998 60.2655 11.2134 60.0293C11.3341 59.7965 11.4646 59.5451 11.6042 59.2761C11.7433 59.008 11.8911 58.7222 12.047 58.4211C12.2042 58.121 12.3851 57.8132 12.5647 57.488C12.7465 57.1647 12.936 56.8277 13.1322 56.4787C13.3388 56.1366 13.5524 55.7826 13.7722 55.4186C13.8816 55.2369 13.9926 55.0528 14.1049 54.8665C14.223 54.6836 14.3427 54.4987 14.4636 54.3113C14.7053 53.938 14.9523 53.5569 15.2035 53.1688C15.7373 52.4132 16.2593 51.6174 16.8492 50.8498C16.9933 50.6558 17.138 50.4612 17.2831 50.2659L17.5006 49.9729L17.7285 49.6863C18.0319 49.3041 18.3366 48.9207 18.6413 48.5373C18.9515 48.1586 19.2735 47.7896 19.5864 47.4175C19.7451 47.2328 19.8974 47.0444 20.0598 46.8648C20.2224 46.6855 20.3843 46.5067 20.5457 46.3286C20.7068 46.1507 20.8671 45.9735 21.0266 45.7971C21.1847 45.6198 21.3442 45.4456 21.51 45.2787C21.836 44.9411 22.1581 44.6075 22.475 44.2792C22.7913 43.9515 23.1214 43.6475 23.4329 43.3401C23.7469 43.035 24.0507 42.7339 24.3635 42.458C24.6712 42.178 24.9704 41.9057 25.26 41.6421C25.5472 41.3771 25.8432 41.1404 26.1165 40.9029C26.3917 40.6686 26.6554 40.444 26.9062 40.2304C27.1524 40.0354 27.3861 39.8506 27.6055 39.6766C27.8238 39.5029 28.028 39.3402 28.217 39.1896C28.3037 39.118 28.4211 39.0322 28.5203 38.9568C28.622 38.8798 28.7191 38.8067 28.8112 38.7373C29.0119 38.5857 29.1891 38.4521 29.3408 38.3377C29.682 38.0801 29.7349 37.5891 29.4573 37.264L22.9945 29.6927C22.7169 29.3675 22.2236 29.3427 21.9158 29.6392C21.779 29.7711 21.619 29.9251 21.438 30.0995C21.3549 30.1795 21.2673 30.2639 21.1755 30.3523C21.082 30.443 20.9931 30.5257 20.8772 30.6441C20.6556 30.8677 20.4161 31.1096 20.1601 31.3679C19.9054 31.6263 19.6343 31.9013 19.3484 32.1912C19.0827 32.479 18.8034 32.7816 18.512 33.0972C18.2241 33.4153 17.9138 33.7358 17.6135 34.0871C17.312 34.4366 17.0004 34.798 16.6799 35.1694C16.3555 35.5364 16.0417 35.9306 15.7188 36.3305C15.3983 36.7326 15.0605 37.1338 14.7383 37.5588C14.4169 37.9839 14.0903 38.4161 13.7597 38.8538C13.5917 39.0707 13.4311 39.2947 13.2725 39.522Z" fill="#E5EDF9"/>
<path d="M1.52859 66.0675C1.49081 66.2536 1.44655 66.4716 1.39643 66.7178C1.35052 66.9439 1.29964 67.1944 1.24425 67.467C1.18991 67.7458 1.13677 68.075 1.07746 68.4109C1.01906 68.7502 0.957043 69.1112 0.891715 69.4917C0.860105 69.6814 0.823978 69.8773 0.794024 70.075C0.767381 70.2714 0.740286 70.4722 0.712439 70.6771C0.606469 71.4979 0.466931 72.381 0.38655 73.3245C0.339887 73.7946 0.29202 74.2774 0.243099 74.7709C0.202758 75.2651 0.175814 75.7712 0.141043 76.2842C0.0597588 77.3094 0.0448567 78.3727 0.0109884 79.4484L0 79.8527L0.00195684 80.2587C0.00346209 80.5298 0.00496735 80.8013 0.00647261 81.0736C0.0081284 81.3456 0.00978418 81.6181 0.0112894 81.8907L0.0138484 82.2997L0.0295031 82.7089C0.0516304 83.2534 0.0737577 83.7981 0.095885 84.3406L0.112593 84.7463L0.117711 84.8777L0.124936 84.9755L0.139387 85.1711C0.158654 85.4318 0.177771 85.6917 0.196888 85.9508C0.216005 86.2099 0.235121 86.4677 0.253937 86.7243C0.279978 86.9918 0.305718 87.2586 0.331608 87.5235C0.357649 87.7881 0.38354 88.0509 0.40928 88.3123C0.422225 88.4425 0.43517 88.5725 0.448115 88.7018C0.464222 88.8292 0.480328 88.956 0.496284 89.0825C0.560408 89.5868 0.623478 90.0827 0.685194 90.5683C0.759704 91.0517 0.832558 91.5248 0.903306 91.9851C0.969537 92.4452 1.05489 92.8903 1.13331 93.3207C1.13978 93.3552 1.14625 93.3892 1.15258 93.4234C1.21806 93.7753 1.52422 94.0301 1.88202 94.0301H3.88266C4.30986 94.0301 4.64884 93.6705 4.6237 93.2442C4.61693 93.1304 4.61 93.0154 4.60233 92.8994C4.57734 92.4845 4.54724 92.0567 4.5376 91.6152C4.52315 91.1745 4.5084 90.7217 4.4932 90.259C4.49034 89.7966 4.48748 89.3241 4.48462 88.8435C4.48386 88.7235 4.48311 88.6029 4.48236 88.4822C4.48492 88.3631 4.48763 88.2435 4.49034 88.1232C4.4956 87.8836 4.50087 87.642 4.50629 87.3989C4.51156 87.1564 4.51698 86.9121 4.5224 86.6666C4.53444 86.4096 4.54633 86.1512 4.55852 85.8919C4.57057 85.6326 4.58276 85.3722 4.5948 85.111L4.60398 84.9149L4.6085 84.8167L4.6091 84.8044C4.6091 84.7732 4.6097 84.8331 4.61 84.8229L4.61181 84.7991L4.61557 84.7519L4.64598 84.3721C4.68632 83.8656 4.72681 83.3575 4.76745 82.8492L4.79846 82.4688L4.84227 82.0894C4.87147 81.8368 4.90052 81.5845 4.92957 81.3327C4.95847 81.081 4.98737 80.8299 5.01612 80.5797L5.05902 80.2052L5.11457 79.8333C5.2669 78.8443 5.39635 77.8715 5.58601 76.94C5.67497 76.4734 5.7546 76.0143 5.84597 75.5674C5.94547 75.1223 6.04271 74.6868 6.13739 74.2629C6.3126 73.4138 6.53975 72.6244 6.72459 71.8927C6.77201 71.7101 6.81837 71.5312 6.86368 71.3566C6.91154 71.1845 6.96317 71.0216 7.01074 70.8603C7.10663 70.5392 7.19769 70.2347 7.28319 69.9482C7.37065 69.6595 7.44245 69.4014 7.52614 69.1423C7.6139 68.878 7.69428 68.6358 7.76713 68.4168C7.84631 68.1781 7.9163 67.9673 7.97621 67.7867C8.11093 67.3813 7.87566 66.9468 7.46262 66.8367L2.44725 65.4993C2.03406 65.389 1.61379 65.6486 1.52859 66.0675Z" fill="#F7F9FC"/>
<path d="M58.3013 92.063C59.933 92.8606 61.6615 93.2387 63.3632 93.2387C67.6348 93.2387 71.74 90.8587 73.7424 86.7626C74.1281 85.9742 74.4266 85.1037 74.6207 84.2839L86.2981 33.5993L90.7452 14.2969L93.5003 2.33962C93.8209 0.948012 92.714 0 91.6034 0C90.9533 0 90.3018 0.324987 89.9345 1.07596L84.3282 12.5435L76.0577 29.4605L53.0009 76.6219C50.2006 82.3495 52.5738 89.2629 58.3013 92.063ZM63.7913 75.7408C66.9161 75.7408 69.4493 78.2739 69.4493 81.3988C69.4493 84.5234 66.9161 87.0568 63.7913 87.0568C60.6665 87.0568 58.1333 84.5234 58.1333 81.3988C58.1333 78.2736 60.6665 75.7408 63.7913 75.7408Z" fill="#FF4D00"/>
</svg>
