<svg width="88" height="88" viewBox="0 0 88 88" fill="none" xmlns="http://www.w3.org/2000/svg">
<g filter="url(#filter0_d)">
<path d="M78.9357 44.4852L64.67 47.4066L62.2667 46.4769C67.4521 41.4539 70.3926 34.5636 70.3926 27.2864C70.3926 20.1791 67.6345 13.4886 62.6264 8.44759C57.6227 3.41108 50.9596 0.609257 43.8625 0.5575C43.7272 0.554401 43.597 0.554401 43.4617 0.5575C36.3646 0.609257 29.7015 3.41124 24.6978 8.44759C19.6897 13.4887 16.9315 20.1791 16.9315 27.2864C16.9315 34.7174 19.9635 41.6882 25.3189 46.7305L22.8642 47.4184L8.54001 44.4846L4 66.8237L21.2466 69.0933C20.8373 70.5203 21.1909 72.1232 22.309 73.2456C23.1033 74.043 24.1598 74.4821 25.2837 74.4821C26.2085 74.4821 27.0873 74.1843 27.8122 73.6347C28.0079 74.2621 28.3518 74.8525 28.8461 75.3487C29.6406 76.1461 30.6969 76.5851 31.8208 76.5851C32.4729 76.5851 33.1021 76.4363 33.6708 76.1565C33.85 76.6784 34.1426 77.1694 34.557 77.5854C35.2662 78.2972 36.2093 78.6893 37.2128 78.6893C38.2163 78.6893 39.1594 78.2972 39.8687 77.5854L40.0514 77.4019C40.2339 77.8511 40.5062 78.272 40.8688 78.6361C41.578 79.348 42.5213 79.7402 43.5248 79.7401C44.5283 79.7401 45.4714 79.348 46.1805 78.6361L46.2242 78.5923C47.0906 78.8769 47.9844 79.0187 48.8739 79.0187C50.6531 79.0187 52.413 78.459 53.8919 77.3788L65.5348 70.0334L83.4637 66.7651L78.9357 44.4852ZM62.7745 42.4648C61.145 40.9894 59.3721 39.7226 57.4893 38.6756C58.3351 35.4922 58.8238 32.021 58.9108 28.4484H68.039C67.7957 33.5979 65.9408 38.4841 62.7745 42.4648ZM61.2434 44.2137C60.8005 44.6731 60.3389 45.1177 59.8574 45.5448L55.6501 43.9171C56.0739 42.9753 56.4594 41.9882 56.8047 40.9615C58.3799 41.8783 59.8676 42.9646 61.2434 44.2137ZM68.0399 26.124H58.9111C58.8105 21.9384 58.1679 17.9181 57.044 14.3316C58.7039 13.3683 60.2684 12.2199 61.7113 10.8959C65.4129 14.9677 67.763 20.2859 68.0399 26.124ZM60.0677 9.25059C58.8813 10.3303 57.6055 11.2807 56.2583 12.0956C55.7985 10.9211 55.2831 9.80457 54.7135 8.75905C53.7128 6.92278 52.5839 5.37318 51.3594 4.13087C54.6196 5.22117 57.5776 6.9826 60.0677 9.25059ZM44.8243 2.98123C47.7487 3.48748 50.5045 5.89369 52.6724 9.87151C53.2389 10.9111 53.7483 12.0281 54.1981 13.2087C51.2917 14.6017 48.1178 15.4059 44.8244 15.5592V2.98123H44.8243ZM44.8243 17.8849C48.376 17.734 51.8024 16.8929 54.9497 15.4251C55.9282 18.6853 56.4909 22.3258 56.5864 26.124H44.8243V17.8849ZM44.8243 28.4484H56.5864C56.505 31.6466 56.0855 34.7494 55.3662 37.6088C52.0789 36.1284 48.5142 35.2837 44.8243 35.1369V28.4484ZM44.8243 37.4626C48.2942 37.613 51.6416 38.4362 54.7169 39.8694C54.3422 41.0246 53.9167 42.1298 53.438 43.1694H44.8243V37.4626ZM42.4999 2.98138V15.5592C39.2064 15.4059 36.0327 14.6017 33.1262 13.2087C33.5761 12.0282 34.0853 10.9113 34.652 9.87151C36.8194 5.89416 39.5749 3.4881 42.4999 2.98138ZM31.9501 37.6124C31.2328 34.7625 30.8184 31.6644 30.738 28.4484H42.4999V35.1368C38.8069 35.2838 35.2396 36.1296 31.9501 37.6124ZM42.4999 37.4626V43.1696H37.7239L37.5964 43.29L34.3826 44.1906C33.6965 42.8595 33.1005 41.4123 32.5998 39.873C35.6773 38.4374 39.0274 37.6132 42.4999 37.4626ZM32.1021 44.8297L27.9783 45.9852C27.3104 45.4249 26.6779 44.8332 26.0802 44.2143C27.4547 42.9664 28.9409 41.8809 30.5142 40.9645C30.9734 42.3253 31.5041 43.6183 32.1021 44.8297ZM30.738 26.124C30.8334 22.3259 31.3961 18.6853 32.3747 15.4251C35.5219 16.8927 38.9482 17.734 42.5001 17.8849V26.124H30.738ZM35.9651 4.13087C34.7404 5.37318 33.6117 6.92278 32.6108 8.75905C32.041 9.80457 31.5258 10.9209 31.066 12.0956C29.7187 11.2807 28.443 10.3303 27.2567 9.25059C29.7466 6.9826 32.7047 5.22117 35.9651 4.13087ZM25.613 10.8959C27.056 12.2199 28.6205 13.3682 30.2804 14.3316C29.1565 17.9183 28.5139 21.9384 28.4133 26.124H19.2845C19.5612 20.2859 21.9113 14.9677 25.613 10.8959ZM24.5452 42.4688C21.3766 38.4926 19.5273 33.6166 19.2852 28.4484H28.4133C28.4993 32.0408 28.9829 35.5059 29.8271 38.6799C27.9455 39.7271 26.1738 40.9938 24.5452 42.4688ZM6.77409 64.8443L10.3541 47.2286L18.6685 48.9314L15.3465 65.9722L6.77409 64.8443ZM26.6119 71.605C26.2569 71.9612 25.7852 72.1576 25.2839 72.1576C24.7826 72.1576 24.3109 71.9612 23.9559 71.605C23.2203 70.8665 23.2203 69.6647 23.9559 68.9262L26.7577 66.1138C27.1127 65.7574 27.5843 65.5613 28.0857 65.5613C28.5872 65.5613 29.0587 65.7574 29.4137 66.1138C30.1495 66.8524 30.1495 68.0541 29.4137 68.7925L26.6119 71.605ZM34.2971 72.5557L33.149 73.7081C32.794 74.0645 32.3225 74.2607 31.821 74.2607C31.3197 74.2607 30.848 74.0645 30.493 73.7083C29.7574 72.9697 29.7574 71.768 30.493 71.0295L33.2948 68.2169C33.6498 67.8605 34.1214 67.6644 34.6228 67.6644C35.1243 67.6644 35.5958 67.8605 35.9508 68.2168C36.6237 68.8924 36.6791 69.9545 36.121 70.6962L34.5571 72.266C34.4646 72.359 34.378 72.4557 34.2971 72.5557ZM41.6617 72.492L38.2221 75.9448C37.9523 76.2157 37.5939 76.3647 37.213 76.3647C36.8321 76.3647 36.4737 76.2155 36.2039 75.9448C35.6993 75.4384 35.651 74.6469 36.0556 74.0837L37.5976 72.5358C37.6949 72.438 37.786 72.3364 37.8719 72.232L39.6435 70.4535C39.9133 70.1826 40.2717 70.0335 40.6528 70.0335C41.0337 70.0335 41.3921 70.1828 41.6617 70.4535C42.2216 71.0155 42.2216 71.9299 41.6617 72.492ZM46.388 75.1345L44.5337 76.9957C44.264 77.2666 43.9057 77.4157 43.5248 77.4157C43.1438 77.4157 42.7855 77.2666 42.5155 76.9957C41.9558 76.4338 41.9558 75.5193 42.5155 74.9574L44.3698 73.0962C44.6394 72.8255 44.9978 72.6764 45.3787 72.6762C45.7598 72.6762 46.1181 72.8253 46.388 73.0962C46.9477 73.6581 46.9477 74.5725 46.388 75.1345ZM52.6169 75.4348L52.5467 75.4829C51.2658 76.4286 49.692 76.8316 48.1485 76.6486C49.4901 75.1745 49.455 72.8815 48.0348 71.4558C47.3255 70.7439 46.3823 70.3518 45.3787 70.3518C45 70.3518 44.63 70.4079 44.2779 70.5156C44.1152 69.8918 43.7946 69.3012 43.3085 68.8132C42.5995 68.1014 41.6563 67.7093 40.6528 67.7093C40.6528 67.7093 40.6528 67.7093 40.6526 67.7093C39.9262 67.7093 39.2318 67.9159 38.6344 68.2994C38.4392 67.6687 38.0942 67.0749 37.5977 66.5764C36.8034 65.779 35.7469 65.34 34.623 65.34C33.6983 65.34 32.8196 65.6378 32.0947 66.1873C31.8989 65.5599 31.5549 64.9695 31.0606 64.4733C30.2663 63.6759 29.2098 63.2369 28.0859 63.2369C26.9619 63.2369 25.9054 63.6759 25.1111 64.4733L22.6592 66.9345L17.6555 66.2761L20.9459 49.398L22.9496 49.8084L33.9644 46.7217L25.9547 54.2892L26.7971 55.1346C30.3272 58.6782 35.9634 58.7884 39.6285 55.3854L41.3039 53.8294C42.9487 55.7422 46.8744 60.0276 50.9334 62.4044C55.6182 65.1477 60.3178 67.6964 62.7892 69.0175L52.6169 75.4348ZM65.2914 67.715C63.8165 66.937 57.9488 63.819 52.1076 60.3986C47.2629 57.5618 42.3665 51.4797 42.3174 51.4187L41.5357 50.4418L38.0462 53.6819C35.6023 55.9514 31.9871 56.1329 29.3593 54.2696L38.6479 45.4938H53.2842L64.4676 49.8204L67.7534 49.1476L71.1633 66.6446L65.2914 67.715ZM70.031 48.6813L77.1216 47.2294L80.7134 64.9039L73.4505 66.2279L70.031 48.6813Z" fill="#A991FF"/>
</g>
<defs>
<filter id="filter0_d" x="0" y="0.555176" width="87.4637" height="87.1849" filterUnits="userSpaceOnUse" color-interpolation-filters="sRGB">
<feFlood flood-opacity="0" result="BackgroundImageFix"/>
<feColorMatrix in="SourceAlpha" type="matrix" values="0 0 0 0 0 0 0 0 0 0 0 0 0 0 0 0 0 0 127 0"/>
<feOffset dy="4"/>
<feGaussianBlur stdDeviation="2"/>
<feColorMatrix type="matrix" values="0 0 0 0 0 0 0 0 0 0 0 0 0 0 0 0 0 0 0.25 0"/>
<feBlend mode="normal" in2="BackgroundImageFix" result="effect1_dropShadow"/>
<feBlend mode="normal" in="SourceGraphic" in2="effect1_dropShadow" result="shape"/>
</filter>
</defs>
</svg>
