<svg width="79" height="28" viewBox="0 0 79 28" fill="none" xmlns="http://www.w3.org/2000/svg">
<path d="M73.7905 4.62891C72.8318 1.94075 70.2869 0 67.2734 0H48.7578C45.5571 0 42.8826 2.18762 42.0823 5.13855C41.2824 4.81622 40.4139 4.62891 39.5 4.62891C38.5861 4.62891 37.7176 4.81622 36.9177 5.13855C36.1174 2.18762 33.4429 0 30.2422 0H11.7266C8.71314 0 6.16817 1.94075 5.20953 4.62891H0V9.25781H4.7832V11.5723C4.7832 20.5047 12.052 27.7734 20.9844 27.7734C29.9168 27.7734 37.1855 20.5047 37.1855 11.5723C37.1855 10.2953 38.223 9.25781 39.5 9.25781C40.777 9.25781 41.8145 10.2953 41.8145 11.5723C41.8145 20.5047 49.0832 27.7734 58.0156 27.7734C66.948 27.7734 74.2168 20.5047 74.2168 11.5723V9.25781H79V4.62891H73.7905Z" fill="#5E54AC"/>
<path d="M41.8145 11.5723C41.8145 20.5047 49.0832 27.7734 58.0156 27.7734C66.948 27.7734 74.2168 20.5047 74.2168 11.5723V9.25781H79V4.62891H73.7905C72.8318 1.94075 70.2869 0 67.2734 0H48.7578C45.5571 0 42.8826 2.18762 42.0823 5.13855C41.2824 4.81622 40.4139 4.62891 39.5 4.62891V9.25781C40.777 9.25781 41.8145 10.2953 41.8145 11.5723Z" fill="#453D81"/>
<path d="M30.2422 4.62891H11.7266C11.0188 4.62891 10.4075 4.96543 9.98285 5.46658L10.667 8.37709L9.41211 10.154V11.5723C9.41211 17.9529 14.6037 23.1445 20.9844 23.1445C27.365 23.1445 32.5566 17.9529 32.5566 11.5723V6.94336C32.5566 5.6664 31.5191 4.62891 30.2422 4.62891Z" fill="#F2FAFF"/>
<path d="M69.0171 5.46658C68.5925 4.96543 67.9812 4.62891 67.2734 4.62891H48.7578C47.4809 4.62891 46.4434 5.6664 46.4434 6.94336V11.5723C46.4434 17.9529 51.635 23.1445 58.0156 23.1445C64.3963 23.1445 69.5879 17.9529 69.5879 11.5723V10.154L67.9013 9.09518L69.0171 5.46658Z" fill="#C8EAFA"/>
<path d="M18.6699 18.5156H23.2988C23.2988 13.3646 20.0169 8.81032 15.1305 7.18295L9.98285 5.46655C9.64093 5.87004 9.41211 6.37397 9.41211 6.94333V10.1539L13.6658 11.5722C16.6584 12.5713 18.6699 15.3604 18.6699 18.5156Z" fill="#C8EAFA"/>
<path d="M55.7012 18.5156H60.3301C60.3301 15.3604 62.3416 12.5713 65.3342 11.5722L69.5879 10.1539V6.94333C69.5879 6.37397 69.3591 5.87004 69.0171 5.46655L63.8695 7.18295C58.9831 8.81032 55.7012 13.3646 55.7012 18.5156Z" fill="#AED6EA"/>
</svg>
