<svg width="73" height="74" viewBox="0 0 73 74" fill="none" xmlns="http://www.w3.org/2000/svg">
<path d="M61.6737 11.3478C54.8499 4.52433 45.7776 0.766357 36.1276 0.766357C26.4775 0.766357 17.4052 4.52433 10.5814 11.3478C3.75797 18.1715 0 27.2439 0 36.8939C0 46.5439 3.75797 55.6163 10.5814 62.44C17.4052 69.2635 26.4775 73.0215 36.1276 73.0215C45.7776 73.0215 54.8499 69.2635 61.6737 62.44C68.4971 55.6163 72.2551 46.5439 72.2551 36.8939C72.2551 27.2439 68.4971 18.1715 61.6737 11.3478ZM58.6799 59.4463C52.6559 65.4702 44.6467 68.7878 36.1276 68.7878C27.6084 68.7878 19.5992 65.4702 13.5752 59.4463C7.55122 53.4223 4.2337 45.4131 4.2337 36.8939C4.2337 28.3747 7.55122 20.3656 13.5752 14.3416C19.5992 8.31758 27.6084 5.00005 36.1276 5.00005C44.6467 5.00005 52.6559 8.31758 58.6799 14.3416C64.7039 20.3656 68.0214 28.3747 68.0214 36.8939C68.0214 45.4131 64.7039 53.4223 58.6799 59.4463Z" fill="#A991FF"/>
<path d="M36.1277 26.1685C30.2137 26.1685 25.4023 30.98 25.4023 36.8939C25.4023 42.8078 30.2137 47.6193 36.1277 47.6193C42.0416 47.6193 46.8531 42.8078 46.8531 36.8939C46.8531 30.98 42.0416 26.1685 36.1277 26.1685ZM36.1277 43.3856C32.5483 43.3856 29.636 40.4733 29.636 36.8939C29.636 33.3144 32.5483 30.4022 36.1277 30.4022C39.7072 30.4022 42.6194 33.3144 42.6194 36.8939C42.6194 40.4733 39.7072 43.3856 36.1277 43.3856Z" fill="#A991FF"/>
<path d="M63.7929 34.777H59.4574C58.4466 23.5456 49.4759 14.575 38.2445 13.5641V9.22864H34.0108V13.5641C22.7792 14.575 13.8087 23.5456 12.7978 34.777H8.4624V39.0107H12.7978C13.8087 50.2422 22.7792 59.2128 34.0108 60.2237V64.5591H38.2445V60.2237C49.4759 59.2128 58.4466 50.2422 59.4574 39.0107H63.7929V34.777ZM38.2445 55.9694V51.8479H34.0108V55.9694C25.1157 54.9888 18.0327 47.9057 17.0522 39.0107H21.1737V34.777H17.0522C18.0327 25.882 25.1157 18.7989 34.0108 17.8184V21.9399H38.2445V17.8184C47.1395 18.7989 54.2226 25.882 55.2031 34.777H51.0816V39.0107H55.2031C54.2226 47.9057 47.1395 54.9888 38.2445 55.9694Z" fill="#A991FF"/>
</svg>
