<svg width="62" height="78" viewBox="0 0 62 78" fill="none" xmlns="http://www.w3.org/2000/svg">
<path d="M58.1438 77.1808H1.0923C0.945854 77.1809 0.800887 77.1515 0.666031 77.0944C0.531174 77.0373 0.409186 76.9537 0.307326 76.8485C0.205466 76.7432 0.125818 76.6186 0.0731221 76.482C0.0204265 76.3453 -0.00423814 76.1995 0.000594653 76.0531C0.0922763 72.8551 1.42999 69.8196 3.72835 67.594C6.02671 65.3685 9.10376 64.1291 12.303 64.1404H46.9309C50.1305 64.1286 53.2079 65.3677 55.5066 67.5933C57.8052 69.8189 59.143 72.8548 59.2344 76.0531C59.2393 76.1995 59.2146 76.3453 59.1619 76.482C59.1092 76.6186 59.0296 76.7432 58.9277 76.8485C58.8258 76.9537 58.7039 77.0373 58.569 77.0944C58.4341 77.1515 58.2892 77.1809 58.1427 77.1808H58.1438ZM2.28226 74.9974H56.9539C56.6133 72.5846 55.4105 70.3768 53.5679 68.7823C51.7253 67.1877 49.3676 66.3144 46.9309 66.3238H12.303C9.86684 66.3154 7.50993 67.1891 5.6679 68.7835C3.82586 70.3779 2.62323 72.5852 2.28226 74.9974Z" fill="#A991FF"/>
<path d="M45.0253 59.637C44.7323 59.6383 44.4505 59.5247 44.2403 59.3206C44.0301 59.1165 43.9082 58.8382 43.9008 58.5453C43.8972 58.4037 43.9218 58.2628 43.9734 58.1309C44.0249 57.9989 44.1022 57.8786 44.2008 57.7769C44.2995 57.6752 44.4174 57.5943 44.5477 57.5388C44.678 57.4833 44.8181 57.4543 44.9598 57.4536C46.8384 57.4579 48.6995 57.0922 50.4368 56.3772C52.1741 55.6622 53.7536 54.6121 55.085 53.2867C56.4165 51.9614 57.4738 50.3867 58.1968 48.6527C58.9197 46.9187 59.2939 45.0593 59.2982 43.1806C59.3025 41.302 58.9368 39.4409 58.2218 37.7036C57.5069 35.9663 56.4567 34.3868 55.1313 33.0554C53.806 31.7239 52.2313 30.6666 50.4973 29.9437C48.7633 29.2208 46.9039 28.8465 45.0253 28.8422H44.7272L39.1093 36.0955H45.0253C46.8803 36.1186 48.6516 36.8717 49.9553 38.1916C51.2589 39.5116 51.9899 41.2921 51.9899 43.1474C51.9899 45.0026 51.2589 46.7831 49.9553 48.1031C48.6516 49.423 46.8803 50.1762 45.0253 50.1992L26.7545 50.161C24.564 50.1538 22.4312 50.8622 20.6804 52.1786C18.9297 53.495 17.6569 55.3473 17.0557 57.4536H32.2818C32.5713 57.4536 32.849 57.5686 33.0537 57.7734C33.2585 57.9781 33.3735 58.2558 33.3735 58.5453C33.3735 58.8349 33.2585 59.1126 33.0537 59.3173C32.849 59.522 32.5713 59.637 32.2818 59.637H15.6987C15.5411 59.6371 15.3852 59.6029 15.242 59.537C15.0988 59.471 14.9715 59.3748 14.869 59.255C14.7665 59.1352 14.6912 58.9945 14.6483 58.8428C14.6053 58.6911 14.5957 58.5319 14.6201 58.3761C15.0604 55.4757 16.5282 52.8301 18.7559 50.9214C20.9836 49.0127 23.823 47.9679 26.7566 47.9776L45.0274 48.0158C46.306 47.9967 47.5257 47.4753 48.4231 46.5644C49.3205 45.6535 49.8236 44.4261 49.8236 43.1474C49.8236 41.8686 49.3205 40.6412 48.4231 39.7303C47.5257 38.8194 46.306 38.298 45.0274 38.2789H36.8833C36.6792 38.2789 36.4791 38.2217 36.3058 38.1137C36.1325 38.0058 35.993 37.8514 35.9031 37.6681C35.8131 37.4848 35.7764 37.28 35.797 37.0769C35.8177 36.8738 35.8948 36.6805 36.0198 36.5191L43.3342 27.0812C43.4364 26.9496 43.5673 26.8431 43.717 26.7698C43.8666 26.6966 44.0311 26.6586 44.1977 26.6588H45.0307C49.4039 26.6588 53.598 28.396 56.6903 31.4883C59.7826 34.5806 61.5199 38.7747 61.5199 43.1479C61.5199 47.5211 59.7826 51.7152 56.6903 54.8075C53.598 57.8998 49.4039 59.637 45.0307 59.637H45.0253Z" fill="#A991FF"/>
<path d="M44.957 66.264H32.2812C31.9916 66.264 31.7139 66.149 31.5092 65.9443C31.3045 65.7395 31.1895 65.4618 31.1895 65.1723V57.6319C31.1895 55.6616 31.9722 53.772 33.3654 52.3787C34.7586 50.9855 36.6482 50.2028 38.6185 50.2028C40.5888 50.2028 42.4784 50.9855 43.8717 52.3787C45.2649 53.772 46.0476 55.6616 46.0476 57.6319V65.1723C46.0476 65.4617 45.9327 65.7392 45.7282 65.9439C45.5237 66.1486 45.2463 66.2637 44.957 66.264ZM33.3729 64.0806H43.8642V57.6319C43.8642 56.2407 43.3115 54.9064 42.3278 53.9227C41.344 52.9389 40.0098 52.3862 38.6185 52.3862C37.2273 52.3862 35.893 52.9389 34.9093 53.9227C33.9255 54.9064 33.3729 56.2407 33.3729 57.6319V64.0806Z" fill="#A991FF"/>
<path d="M38.6202 61.5073C37.8811 61.5073 37.1586 61.2882 36.5441 60.8776C35.9296 60.4669 35.4506 59.8833 35.1678 59.2005C34.8849 58.5176 34.8109 57.7663 34.9551 57.0414C35.0993 56.3165 35.4552 55.6506 35.9778 55.128C36.5004 54.6054 37.1663 54.2495 37.8912 54.1053C38.6161 53.9611 39.3674 54.0351 40.0503 54.318C40.7331 54.6008 41.3167 55.0798 41.7273 55.6943C42.138 56.3088 42.3571 57.0313 42.3571 57.7704C42.356 58.7612 41.9619 59.711 41.2613 60.4115C40.5608 61.1121 39.611 61.5062 38.6202 61.5073ZM38.6202 56.2169C38.313 56.2169 38.0126 56.308 37.7571 56.4787C37.5017 56.6494 37.3026 56.8921 37.185 57.1759C37.0674 57.4598 37.0366 57.7721 37.0966 58.0735C37.1565 58.3748 37.3045 58.6517 37.5217 58.8689C37.739 59.0862 38.0158 59.2341 38.3171 59.2941C38.6185 59.354 38.9308 59.3233 39.2147 59.2057C39.4986 59.0881 39.7412 58.889 39.9119 58.6335C40.0826 58.378 40.1737 58.0777 40.1737 57.7704C40.1723 57.3592 40.008 56.9652 39.7169 56.6747C39.4258 56.3842 39.0315 56.2208 38.6202 56.2202V56.2169Z" fill="#A991FF"/>
<path d="M34.1522 41.7724C33.9101 41.7728 33.6749 41.692 33.484 41.5432L22.9403 33.3619C22.7126 33.1845 22.5644 32.9241 22.5282 32.6376C22.4919 32.3512 22.5707 32.0621 22.7471 31.8335L39.8269 9.82255C40.0043 9.59478 40.2647 9.44657 40.5512 9.41036C40.8376 9.37415 41.1267 9.45287 41.3553 9.62931L51.8979 17.8106C52.1256 17.988 52.2738 18.2484 52.3101 18.5349C52.3463 18.8213 52.2675 19.1104 52.0911 19.339L35.0157 41.3499C34.9136 41.4816 34.7826 41.5881 34.633 41.6614C34.4833 41.7346 34.3188 41.7726 34.1522 41.7724ZM25.1412 32.3117L33.96 39.1545L49.7003 18.863L40.8826 12.0202L25.1412 32.3117Z" fill="#A991FF"/>
<path d="M27.5531 46.7406C27.311 46.7409 27.0758 46.6602 26.8849 46.5114L19.767 40.9873C19.5392 40.8099 19.391 40.5495 19.3548 40.263C19.3186 39.9766 19.3973 39.6875 19.5738 39.4589L24.4592 33.162C24.6366 32.9342 24.897 32.786 25.1835 32.7498C25.4699 32.7136 25.759 32.7923 25.9875 32.9687L33.1066 38.4928C33.3343 38.6702 33.4825 38.9306 33.5188 39.2171C33.555 39.5035 33.4762 39.7926 33.2998 40.0212L28.4166 46.3181C28.3145 46.4498 28.1835 46.5563 28.0338 46.6295C27.8842 46.7028 27.7197 46.7408 27.5531 46.7406ZM21.9679 39.9316L27.362 44.1172L30.9101 39.5452L25.5127 35.3596L21.9679 39.9316Z" fill="#A991FF"/>
<path d="M55.3272 14.8117C55.0848 14.8116 54.8494 14.731 54.658 14.5824L43.7987 6.15553C43.571 5.9781 43.4228 5.71767 43.3866 5.43123C43.3503 5.14479 43.4291 4.85567 43.6055 4.62714L46.2758 1.18717C46.4533 0.959404 46.7137 0.811197 47.0001 0.774983C47.2866 0.738769 47.5757 0.817497 47.8042 0.993937L58.6634 9.42083C58.8912 9.59825 59.0394 9.85868 59.0756 10.1451C59.1118 10.4316 59.0331 10.7207 58.8567 10.9492L56.1896 14.3892C56.0876 14.5207 55.9568 14.6271 55.8073 14.7004C55.6579 14.7736 55.4936 14.8117 55.3272 14.8117ZM46.0007 5.09548L55.135 12.1839L56.4658 10.4776L47.3315 3.3815L46.0007 5.09548Z" fill="#A991FF"/>
<path d="M48.8241 17.8912C48.5813 17.8914 48.3455 17.8108 48.1537 17.662L42.4343 13.2209C42.2067 13.0433 42.0587 12.7828 42.0227 12.4964C41.9867 12.2099 42.0656 11.9209 42.2421 11.6925L46.1723 6.61935C46.3499 6.39175 46.6104 6.24376 46.8968 6.20775C47.1833 6.17174 47.4723 6.25065 47.7007 6.42721L53.4234 10.8683C53.6512 11.0457 53.7994 11.3061 53.8356 11.5926C53.8718 11.879 53.7931 12.1681 53.6166 12.3967L49.6865 17.4698C49.5986 17.5831 49.4892 17.6779 49.3647 17.7489C49.2401 17.8199 49.1028 17.8657 48.9605 17.8836C48.9152 17.8888 48.8697 17.8914 48.8241 17.8912ZM44.633 12.1652L48.6308 15.2679L51.228 11.9207L47.2302 8.81805L44.633 12.1652Z" fill="#A991FF"/>
<path d="M18.3072 54.0368H13.0233C12.7338 54.0368 12.4561 53.9217 12.2514 53.717C12.0467 53.5123 11.9316 53.2346 11.9316 52.945V49.0695C11.9316 48.78 12.0467 48.5023 12.2514 48.2975C12.4561 48.0928 12.7338 47.9778 13.0233 47.9778H28.8356C29.1252 47.9778 29.4029 48.0928 29.6076 48.2975C29.8123 48.5023 29.9273 48.78 29.9273 49.0695C29.9273 49.359 29.8123 49.6367 29.6076 49.8414C29.4029 50.0462 29.1252 50.1612 28.8356 50.1612H14.1096V51.8533H18.3072C18.5967 51.8533 18.8744 51.9684 19.0792 52.1731C19.2839 52.3778 19.3989 52.6555 19.3989 52.945C19.3989 53.2346 19.2839 53.5123 19.0792 53.717C18.8744 53.9217 18.5967 54.0368 18.3072 54.0368Z" fill="#A991FF"/>
</svg>
