<svg width="50" height="50" viewBox="0 0 50 50" fill="none" xmlns="http://www.w3.org/2000/svg">
<path d="M17.8406 37.6251L6.64143 48.7663C5.13081 50.2773 2.67186 50.2823 1.15285 48.7782L1.13835 48.7637C-0.379514 47.2458 -0.379514 44.7769 1.13873 43.2583L12.3452 32.1087C12.9174 31.5392 13.8432 31.5411 14.4139 32.1114L14.4165 32.1144L16.1145 33.8162L17.8433 35.5507L17.8463 35.5534C18.4166 36.1271 18.4147 37.0545 17.8406 37.6251Z" fill="#696E73"/>
<path d="M17.8406 37.625L6.64141 48.7662C5.13079 50.2772 2.67184 50.2821 1.15283 48.778L16.1144 33.8164L17.8436 35.5509L17.8463 35.5536C18.4166 36.127 18.4147 37.0543 17.8406 37.625Z" fill="#373C41"/>
<path d="M43.8188 36.0275C39.8324 40.0138 34.5323 42.2096 28.8949 42.2096C23.258 42.2096 17.9582 40.0142 13.9719 36.0282L13.9375 35.9935C9.97329 32.0114 7.79053 26.7257 7.79053 21.1052C7.79053 15.4678 9.98626 10.1677 13.9726 6.18133C17.9582 2.19574 23.2583 0 28.8957 0C34.5163 0 39.8019 2.18277 43.784 6.14699L43.8188 6.18133C47.8047 10.1677 50.0001 15.4674 50.0001 21.1044C50.0001 26.7418 47.8044 32.0419 43.8188 36.0275Z" fill="#E1EBF0"/>
<path d="M43.8187 36.0275C39.8324 40.0138 34.5323 42.2095 28.8949 42.2095C23.2579 42.2095 17.9582 40.0142 13.9718 36.0282L13.9375 35.9935L43.7844 6.14697L43.8187 6.1813C47.8051 10.1677 50.0001 15.4674 50.0001 21.1044C50.0001 26.7417 47.8043 32.0419 43.8187 36.0275Z" fill="#B4D2D7"/>
<path d="M40.2678 32.4769C33.9968 38.7482 23.7933 38.7474 17.5231 32.4769L17.4884 32.4425C11.2525 26.1693 11.2643 15.992 17.5238 9.73289C23.7822 3.47413 33.9594 3.4623 40.2327 9.69818L40.2674 9.73289C46.5376 16.0031 46.5384 26.2066 40.2678 32.4769Z" fill="#FFE477"/>
<path d="M40.2677 32.4767C33.9967 38.748 23.7932 38.7473 17.523 32.4767L17.4883 32.4423L40.2326 9.698L40.2673 9.73271C46.5375 16.0029 46.5383 26.2065 40.2677 32.4767Z" fill="#FFCD00"/>
<path d="M36.8873 17.9218L30.1324 24.7266L28.6727 26.1968C28.3279 26.5441 27.8757 26.7175 27.4239 26.7175C26.9716 26.7175 26.5198 26.5441 26.1745 26.1968L23.0363 23.0344C22.3466 22.3398 22.3466 21.2146 23.0363 20.5195C23.725 19.8248 24.8435 19.8248 25.5331 20.5195L27.4239 22.4239L34.3905 15.4068C35.0801 14.7117 36.1986 14.7117 36.8873 15.4068C37.5769 16.1015 37.5769 17.228 36.8873 17.9218Z" fill="white"/>
</svg>
