<svg width="18" height="18" viewBox="0 0 18 18" fill="none" xmlns="http://www.w3.org/2000/svg">
<g clip-path="url(#clip0)">
<path d="M0.703111 10.7031L15.5938 10.7031L13.1271 13.1579C12.8519 13.4318 12.8508 13.877 13.1248 14.1522C13.3987 14.4275 13.8439 14.4285 14.1192 14.1546L17.7931 10.4984C17.7934 10.4982 17.7935 10.4979 17.7938 10.4977C18.0683 10.2238 18.0692 9.77715 17.7938 9.5023C17.7936 9.50209 17.7934 9.50184 17.7932 9.50163L14.1192 5.84538C13.844 5.57151 13.3988 5.57246 13.1248 5.84777C12.8509 6.12301 12.852 6.56819 13.1272 6.84213L15.5938 9.29688L0.703111 9.29688C0.314775 9.29688 -1.37665e-05 9.61167 -1.37325e-05 10C-1.36986e-05 10.3883 0.314775 10.7031 0.703111 10.7031Z" fill="white"/>
</g>
<defs>
<clipPath id="clip0">
<rect width="18" height="18" fill="white" transform="translate(18 18) rotate(180)"/>
</clipPath>
</defs>
</svg>
