<svg width="7" height="11" viewBox="0 0 7 11" fill="none" xmlns="http://www.w3.org/2000/svg">
<path d="M4.64395 5.69803L0.977792 9.36434C0.876844 9.46505 0.821311 9.5997 0.821311 9.74328C0.821311 9.88693 0.876844 10.0215 0.977792 10.1224L1.29904 10.4435C1.39983 10.5445 1.53456 10.6001 1.67813 10.6001C1.82171 10.6001 1.95628 10.5445 2.05715 10.4435L6.42229 6.07839C6.52356 5.97721 6.57901 5.842 6.57861 5.69827C6.57901 5.55389 6.52364 5.41885 6.42229 5.31758L2.06121 0.95674C1.96034 0.855712 1.82577 0.800099 1.68212 0.800099C1.53854 0.800099 1.40397 0.855712 1.30302 0.95674L0.981855 1.27783C0.772868 1.48682 0.772868 1.82703 0.981855 2.03593L4.64395 5.69803Z" fill="white"/>
</svg>
