<svg width="7" height="11" viewBox="0 0 7 11" fill="none" xmlns="http://www.w3.org/2000/svg">
<path d="M2.35605 5.30197L6.02221 1.63566C6.12316 1.53495 6.17869 1.4003 6.17869 1.25673C6.17869 1.11307 6.12316 0.978501 6.02221 0.877632L5.70096 0.556543C5.60017 0.455515 5.46544 0.399902 5.32187 0.399902C5.17829 0.399902 5.04372 0.455515 4.94285 0.556543L0.577711 4.92161C0.476444 5.02279 0.42099 5.158 0.421389 5.30173C0.42099 5.44611 0.476364 5.58115 0.577711 5.68242L4.93879 10.0433C5.03966 10.1443 5.17423 10.1999 5.31788 10.1999C5.46146 10.1999 5.59603 10.1443 5.69698 10.0433L6.01814 9.72217C6.22713 9.51318 6.22713 9.17297 6.01814 8.96407L2.35605 5.30197Z" fill="white"/>
</svg>
