<svg width="18" height="18" viewBox="0 0 18 18" fill="none" xmlns="http://www.w3.org/2000/svg">
<g clip-path="url(#clip0)">
<path d="M17.2969 9.29687H2.40618L4.87288 6.84212C5.14812 6.56818 5.14917 6.123 4.87524 5.84776C4.6013 5.57249 4.15608 5.57147 3.88084 5.84537L0.206873 9.50162C0.206627 9.50183 0.206451 9.50208 0.20624 9.50229C-0.0682953 9.77623 -0.0691742 10.2229 0.20617 10.4977C0.206416 10.4979 0.206591 10.4982 0.206802 10.4984L3.88077 14.1546C4.15597 14.4285 4.60119 14.4275 4.87517 14.1522C5.1491 13.877 5.14805 13.4318 4.87281 13.1579L2.40618 10.7031H17.2969C17.6852 10.7031 18 10.3883 18 10C18 9.61166 17.6852 9.29687 17.2969 9.29687Z" fill="#335DFF"/>
</g>
<defs>
<clipPath id="clip0">
<rect width="18" height="18" fill="white"/>
</clipPath>
</defs>
</svg>
