<svg width="170" height="170" viewBox="0 0 170 170" fill="none" xmlns="http://www.w3.org/2000/svg">
<g opacity="0.5">
<circle cx="1.97674" cy="25.6977" r="1.97674" fill="#A991FF"/>
<circle cx="1.97674" cy="120.581" r="1.97674" fill="#A991FF"/>
<circle cx="96.8605" cy="25.6977" r="1.97674" fill="#A991FF"/>
<circle cx="96.8605" cy="120.581" r="1.97674" fill="#A991FF"/>
<circle cx="49.4181" cy="25.6977" r="1.97674" fill="#A991FF"/>
<circle cx="49.4181" cy="120.581" r="1.97674" fill="#A991FF"/>
<circle cx="144.302" cy="25.6977" r="1.97674" fill="#A991FF"/>
<circle cx="144.302" cy="120.581" r="1.97674" fill="#A991FF"/>
<circle cx="1.97674" cy="73.1396" r="1.97674" fill="#A991FF"/>
<circle cx="1.97674" cy="168.023" r="1.97674" fill="#A991FF"/>
<circle cx="96.8605" cy="73.1396" r="1.97674" fill="#A991FF"/>
<circle cx="96.8605" cy="168.023" r="1.97674" fill="#A991FF"/>
<circle cx="49.4181" cy="73.1396" r="1.97674" fill="#A991FF"/>
<circle cx="49.4181" cy="168.023" r="1.97674" fill="#A991FF"/>
<circle cx="144.302" cy="73.1396" r="1.97674" fill="#A991FF"/>
<circle cx="144.302" cy="168.023" r="1.97674" fill="#A991FF"/>
<circle cx="25.6974" cy="25.6977" r="1.97674" fill="#A991FF"/>
<circle cx="25.6974" cy="120.581" r="1.97674" fill="#A991FF"/>
<circle cx="120.581" cy="25.6977" r="1.97674" fill="#A991FF"/>
<circle cx="120.581" cy="120.581" r="1.97674" fill="#A991FF"/>
<circle cx="73.1398" cy="25.6977" r="1.97674" fill="#A991FF"/>
<circle cx="73.1398" cy="120.581" r="1.97674" fill="#A991FF"/>
<circle cx="168.023" cy="25.6977" r="1.97674" fill="#A991FF"/>
<circle cx="168.023" cy="120.581" r="1.97674" fill="#A991FF"/>
<circle cx="25.6974" cy="73.1396" r="1.97674" fill="#A991FF"/>
<circle cx="25.6974" cy="168.023" r="1.97674" fill="#A991FF"/>
<circle cx="120.581" cy="73.1396" r="1.97674" fill="#A991FF"/>
<circle cx="120.581" cy="168.023" r="1.97674" fill="#A991FF"/>
<circle cx="73.1398" cy="73.1396" r="1.97674" fill="#A991FF"/>
<circle cx="73.1398" cy="168.023" r="1.97674" fill="#A991FF"/>
<circle cx="168.023" cy="73.1396" r="1.97674" fill="#A991FF"/>
<circle cx="168.023" cy="168.023" r="1.97674" fill="#A991FF"/>
<circle cx="1.97674" cy="1.97674" r="1.97674" fill="#A991FF"/>
<circle cx="1.97674" cy="96.8603" r="1.97674" fill="#A991FF"/>
<circle cx="96.8605" cy="1.97674" r="1.97674" fill="#A991FF"/>
<circle cx="96.8605" cy="96.8603" r="1.97674" fill="#A991FF"/>
<circle cx="49.4181" cy="1.97674" r="1.97674" fill="#A991FF"/>
<circle cx="49.4181" cy="96.8603" r="1.97674" fill="#A991FF"/>
<circle cx="144.302" cy="1.97674" r="1.97674" fill="#A991FF"/>
<circle cx="144.302" cy="96.8603" r="1.97674" fill="#A991FF"/>
<circle cx="1.97674" cy="49.4186" r="1.97674" fill="#A991FF"/>
<circle cx="1.97674" cy="144.302" r="1.97674" fill="#A991FF"/>
<circle cx="96.8605" cy="49.4186" r="1.97674" fill="#A991FF"/>
<circle cx="96.8605" cy="144.302" r="1.97674" fill="#A991FF"/>
<circle cx="49.4181" cy="49.4186" r="1.97674" fill="#A991FF"/>
<circle cx="49.4181" cy="144.302" r="1.97674" fill="#A991FF"/>
<circle cx="144.302" cy="49.4186" r="1.97674" fill="#A991FF"/>
<circle cx="144.302" cy="144.302" r="1.97674" fill="#A991FF"/>
<circle cx="25.6974" cy="1.97674" r="1.97674" fill="#A991FF"/>
<circle cx="25.6974" cy="96.8603" r="1.97674" fill="#A991FF"/>
<circle cx="120.581" cy="1.97674" r="1.97674" fill="#A991FF"/>
<circle cx="120.581" cy="96.8603" r="1.97674" fill="#A991FF"/>
<circle cx="73.1398" cy="1.97674" r="1.97674" fill="#A991FF"/>
<circle cx="73.1398" cy="96.8603" r="1.97674" fill="#A991FF"/>
<circle cx="168.023" cy="1.97674" r="1.97674" fill="#A991FF"/>
<circle cx="168.023" cy="96.8603" r="1.97674" fill="#A991FF"/>
<circle cx="25.6974" cy="49.4186" r="1.97674" fill="#A991FF"/>
<circle cx="25.6974" cy="144.302" r="1.97674" fill="#A991FF"/>
<circle cx="120.581" cy="49.4186" r="1.97674" fill="#A991FF"/>
<circle cx="120.581" cy="144.302" r="1.97674" fill="#A991FF"/>
<circle cx="73.1398" cy="49.4186" r="1.97674" fill="#A991FF"/>
<circle cx="73.1398" cy="144.302" r="1.97674" fill="#A991FF"/>
<circle cx="168.023" cy="49.4186" r="1.97674" fill="#A991FF"/>
<circle cx="168.023" cy="144.302" r="1.97674" fill="#A991FF"/>
</g>
</svg>
