<svg width="87" height="87" viewBox="0 0 87 87" fill="none" xmlns="http://www.w3.org/2000/svg">
<circle cx="43.5" cy="43.5" r="43.5" fill="#335DFF"/>
<mask id="mask0" mask-type="alpha" maskUnits="userSpaceOnUse" x="0" y="0" width="87" height="87">
<circle cx="43.5" cy="43.5" r="43.5" fill="#C4C4C4"/>
</mask>
<g mask="url(#mask0)">
<path d="M54.0656 68.7671H46.7238H40.033H32.8664H28.8231L26.1943 146.904H37.4167L39.7889 80.534H46.9804L49.7281 146.904H60.9505L57.9525 68.7671H54.0656Z" fill="#3E4870"/>
<path d="M57.9651 72.4722H28.8232L29.3177 47.6741L31.1516 33.7854H55.3489L57.2453 47.6616L57.9651 72.4722Z" fill="#6BC5FF"/>
<path d="M46.9807 80.5339H44.79H42.0799H39.7891L38.894 106.046H41.7419L43.4631 93.2898L45.1843 106.046H48.0384L46.9807 80.5339Z" fill="#D9D9D9"/>
<path d="M40.0455 33.7854L32.6411 110.627H23.7095L29.3175 46.3409L31.1514 33.7854H40.0455Z" fill="white"/>
<path d="M40.0456 33.7854L34.3624 38.9616C34.1159 39.1847 33.9209 39.4588 33.7909 39.7649C33.661 40.0709 33.5993 40.4016 33.61 40.7339C33.6207 41.0663 33.7036 41.3923 33.853 41.6893C34.0024 41.9864 34.2147 42.2473 34.4751 42.4541L35.5641 43.3179L33.0605 45.6524C32.716 45.958 32.4719 46.3606 32.3602 46.8074C32.2485 47.2542 32.2745 47.7243 32.4346 48.156L37.398 61.4814L40.0456 33.7854Z" fill="#D9D9D9"/>
<path d="M40.0456 33.7854L35.1761 39.4185C34.8444 39.8004 34.6779 40.2984 34.7131 40.803C34.7484 41.3077 34.9824 41.7777 35.3639 42.1099L36.7847 43.3617L33.8429 46.3722C33.6027 46.6138 33.4326 46.9161 33.351 47.2469C33.2694 47.5776 33.2794 47.9244 33.3798 48.2499L37.3793 61.494L40.0456 33.7854Z" fill="white"/>
<path d="M46.4546 33.7854L53.859 110.627H62.7905L57.1825 46.3409L55.3486 33.7854H46.4546Z" fill="white"/>
<path d="M46.4487 33.7854L52.1632 38.9616C52.4088 39.1853 52.6029 39.4595 52.7322 39.7655C52.8615 40.0715 52.9229 40.4018 52.9122 40.7338C52.9015 41.0658 52.8189 41.3916 52.6702 41.6885C52.5214 41.9855 52.31 42.2467 52.0505 42.4541L50.9552 43.3179L53.4588 45.6524C53.8019 45.9591 54.045 46.3617 54.1566 46.8081C54.2682 47.2544 54.2431 47.724 54.0847 48.156L49.1151 61.4814L46.4487 33.7854Z" fill="#D9D9D9"/>
<path d="M46.4487 33.7854L51.3245 39.4185C51.6554 39.8012 51.8208 40.2997 51.7845 40.8043C51.7481 41.309 51.5128 41.7786 51.1304 42.1099L49.7159 43.3617L52.6576 46.3722C52.8979 46.6138 53.068 46.9161 53.1496 47.2469C53.2312 47.5776 53.2212 47.9244 53.1208 48.2499L49.1151 61.494L46.4487 33.7854Z" fill="white"/>
<path d="M17.5009 84.5585L26.1946 83.4068L25.9067 77.949L17.1816 79.013L17.5009 84.5585Z" fill="white"/>
<path d="M29.3178 46.3409L31.1517 33.7854C29.7658 33.7848 28.4114 34.1987 27.2626 34.9738C26.1138 35.749 25.223 36.85 24.7049 38.1354L17.6635 55.6606C16.6061 58.2826 16.1423 61.1062 16.3053 63.9287L17.1816 79.0379L25.9066 77.9739L25.093 62.4516L29.3178 46.3409Z" fill="white"/>
<path d="M19.322 84.3207L18.4395 90.1228L22.9209 91.6876L23.7095 93.5089H25.412L25.8439 89.7222L27.5213 88.9148L25.5997 83.4883L19.322 84.3207Z" fill="#F2C9AD"/>
<path d="M25.8443 89.7221L25.1245 85.6475L25.4312 85.9667C25.9055 86.4589 26.2033 87.0945 26.2781 87.7739C26.3528 88.4534 26.2003 89.1385 25.8443 89.7221Z" fill="#EBA58E"/>
<path d="M25.5999 83.4883L19.3222 84.3207L19.0405 86.1922L25.5999 83.4883Z" fill="#402C49"/>
<path d="M29.3177 46.341L30.4631 38.511L29.4679 40.7892C28.0741 43.9994 27.6016 47.5342 28.1035 50.9977L29.3177 46.341Z" fill="#D9D9D9"/>
<path d="M68.9999 84.5585L60.3062 83.4068L60.594 77.949L69.3253 79.013L68.9999 84.5585Z" fill="white"/>
<path d="M57.1826 46.3409L55.355 33.7854C56.7398 33.786 58.0928 34.2005 59.2404 34.9756C60.388 35.7507 61.2778 36.851 61.7955 38.1354L68.8369 55.6606C69.8943 58.2826 70.3581 61.1062 70.1951 63.9287L69.3188 79.0379L60.5938 77.9739L61.4075 62.4516L57.1826 46.3409Z" fill="white"/>
<path d="M67.1783 84.3207L68.0608 90.1228L63.5856 91.6876L62.7907 93.5089H61.0883L60.6564 89.7222L58.979 88.9148L60.9067 83.4883L67.1783 84.3207Z" fill="#F2C9AD"/>
<path d="M60.65 89.7221L61.3698 85.6475L61.0631 85.9667C60.5888 86.4589 60.291 87.0945 60.2163 87.7739C60.1416 88.4534 60.2941 89.1385 60.65 89.7221Z" fill="#EBA58E"/>
<path d="M60.9067 83.4883L67.1783 84.3207L67.4599 86.1922L60.9067 83.4883Z" fill="#402C49"/>
<path d="M57.1826 46.341L56.0435 38.511L57.0324 40.7892C58.4272 43.999 58.9039 47.533 58.4093 50.9977L57.1826 46.341Z" fill="#D9D9D9"/>
<path d="M40.5277 32.0456C39.2219 32.3611 38.0417 33.0634 37.1416 34.0607C36.2415 35.0579 35.6634 36.3037 35.483 37.6349L35.3891 38.3296C35.0033 41.1141 34.9675 43.9359 35.2827 46.7292L35.7772 51.0667L36.4719 50.9853L35.9837 46.6478C35.6696 43.9132 35.7032 41.1497 36.0839 38.4235L36.1778 37.7288C36.339 36.5371 36.8559 35.4217 37.661 34.5284C38.4661 33.6351 39.5219 33.0054 40.6905 32.7216L41.1224 32.6214L40.9534 31.9392L40.5277 32.0456Z" fill="#495375"/>
<path d="M49.2842 38.2857L49.0964 36.1264C49.015 35.1324 48.6146 34.1913 47.9547 33.4435C47.2949 32.6957 46.411 32.1812 45.4349 31.9767L45.2221 31.9329L45.0781 32.6214L45.2847 32.6652C46.1166 32.8341 46.8713 33.2683 47.4355 33.9025C47.9998 34.5367 48.3432 35.3368 48.4142 36.1827L48.5957 38.3358C47.6641 38.4833 46.8158 38.9583 46.2031 39.6754C45.5904 40.3924 45.2537 41.3045 45.2534 42.2477V43.4119H45.9544V42.2477C45.9351 41.807 46.0052 41.367 46.1605 40.9542C46.3159 40.5413 46.5532 40.1642 46.8582 39.8456C47.1632 39.5269 47.5296 39.2733 47.9352 39.1001C48.3408 38.9268 48.7774 38.8375 49.2184 38.8375C49.6595 38.8375 50.0961 38.9268 50.5017 39.1001C50.9074 39.2733 51.2737 39.5269 51.5787 39.8456C51.8837 40.1642 52.121 40.5413 52.2763 40.9542C52.4317 41.367 52.5018 41.807 52.4825 42.2477V43.4119H53.1835V42.2477C53.1804 41.2086 52.7706 40.2121 52.0418 39.4716C51.3129 38.731 50.323 38.3054 49.2842 38.2857Z" fill="#495375"/>
<path d="M36.2774 54.6718C37.5495 54.6718 38.5807 53.6406 38.5807 52.3685C38.5807 51.0964 37.5495 50.0652 36.2774 50.0652C35.0053 50.0652 33.9741 51.0964 33.9741 52.3685C33.9741 53.6406 35.0053 54.6718 36.2774 54.6718Z" fill="#E4E4E0"/>
<path d="M37.9991 52.3684C37.9991 52.7089 37.8981 53.0417 37.709 53.3247C37.5199 53.6078 37.251 53.8284 36.9365 53.9586C36.622 54.0889 36.2759 54.123 35.9421 54.0566C35.6082 53.9902 35.3015 53.8262 35.0608 53.5855C34.8201 53.3448 34.6561 53.0381 34.5897 52.7042C34.5233 52.3703 34.5574 52.0243 34.6877 51.7098C34.8179 51.3953 35.0385 51.1264 35.3216 50.9373C35.6046 50.7482 35.9374 50.6472 36.2779 50.6472C36.7344 50.6472 37.1721 50.8286 37.4949 51.1513C37.8177 51.4741 37.9991 51.9119 37.9991 52.3684Z" fill="#D4CFBE"/>
<path d="M37.279 52.3684C37.29 52.5061 37.2723 52.6446 37.2271 52.7752C37.1818 52.9058 37.1101 53.0256 37.0163 53.1271C36.9226 53.2286 36.8088 53.3096 36.6822 53.3649C36.5556 53.4203 36.4189 53.4489 36.2808 53.4489C36.1426 53.4489 36.0059 53.4203 35.8793 53.3649C35.7527 53.3096 35.6389 53.2286 35.5452 53.1271C35.4514 53.0256 35.3797 52.9058 35.3345 52.7752C35.2892 52.6446 35.2715 52.5061 35.2824 52.3684C35.3023 52.1173 35.4162 51.8829 35.6012 51.7119C35.7862 51.541 36.0288 51.446 36.2808 51.446C36.5327 51.446 36.7753 51.541 36.9603 51.7119C37.1454 51.8829 37.2591 52.1173 37.279 52.3684Z" fill="#A59B95"/>
<path d="M47.0492 51.4109C46.6076 51.4109 46.1842 51.2355 45.8719 50.9232C45.5597 50.611 45.3843 50.1875 45.3843 49.746V43.4119H45.7348V49.746C45.7348 50.0946 45.8733 50.4289 46.1198 50.6754C46.3663 50.9219 46.7006 51.0604 47.0492 51.0604V51.4109Z" fill="#D4CFBE"/>
<path d="M47.5065 50.9163L47.1247 50.9664C47.1087 50.9694 47.0942 50.9779 47.0839 50.9905C47.0736 51.0031 47.0681 51.019 47.0684 51.0352V51.4233C47.0692 51.4393 47.0751 51.4546 47.0853 51.467C47.0954 51.4794 47.1092 51.4882 47.1247 51.4922L47.5065 51.536C47.5503 51.5423 47.5949 51.5391 47.6373 51.5265C47.6798 51.5139 47.719 51.4924 47.7523 51.4632C47.7856 51.4341 47.8122 51.3981 47.8303 51.3577C47.8483 51.3173 47.8575 51.2735 47.857 51.2293C47.8573 51.1848 47.8482 51.1408 47.8302 51.1002C47.8121 51.0595 47.7857 51.0232 47.7525 50.9936C47.7193 50.964 47.6803 50.9418 47.6378 50.9284C47.5954 50.9151 47.5506 50.911 47.5065 50.9163Z" fill="#A59B95"/>
<path d="M51.3555 51.4109C51.797 51.4109 52.2205 51.2355 52.5327 50.9232C52.8449 50.611 53.0203 50.1875 53.0203 49.746V43.4119H52.6698V49.746C52.6698 50.0946 52.5314 50.4289 52.2849 50.6754C52.0384 50.9219 51.7041 51.0604 51.3555 51.0604V51.4109Z" fill="#D4CFBE"/>
<path d="M50.9174 50.9163L51.2992 50.9664C51.3152 50.9694 51.3297 50.9779 51.34 50.9905C51.3503 51.0031 51.3558 51.019 51.3555 51.0352V51.4233C51.3547 51.4393 51.3488 51.4546 51.3387 51.467C51.3285 51.4794 51.3147 51.4882 51.2992 51.4922L50.9174 51.536C50.8736 51.5423 50.829 51.5391 50.7865 51.5265C50.7441 51.5139 50.7049 51.4924 50.6716 51.4632C50.6383 51.4341 50.6117 51.3981 50.5937 51.3577C50.5756 51.3173 50.5665 51.2735 50.5669 51.2293C50.5666 51.1848 50.5757 51.1408 50.5938 51.1002C50.6118 51.0595 50.6383 51.0232 50.6714 50.9936C50.7046 50.964 50.7437 50.9418 50.7861 50.9284C50.8285 50.9151 50.8733 50.911 50.9174 50.9163Z" fill="#A59B95"/>
<path d="M46.4546 33.7855L43.25 37.9478L40.0454 33.7855V23.7649H46.4546V33.7855Z" fill="#F2C9AD"/>
<path d="M40.0454 23.7649V29.6108C40.4657 30.0315 40.9647 30.3652 41.5141 30.5929C42.0634 30.8206 42.6522 30.9379 43.2469 30.9379C43.8415 30.9379 44.4303 30.8206 44.9797 30.5929C45.529 30.3652 46.0281 30.0315 46.4483 29.6108V23.7649H40.0454Z" fill="#402C49"/>
<path d="M38.068 22.9701C38.068 23.5076 37.9086 24.033 37.6098 24.4799C37.311 24.9267 36.8864 25.2749 36.3897 25.4803C35.893 25.6857 35.3465 25.7391 34.8194 25.6338C34.2923 25.5285 33.8083 25.2692 33.4286 24.8886C33.049 24.5081 32.7908 24.0235 32.6867 23.4962C32.5826 22.9688 32.6373 22.4225 32.8438 21.9262C33.0504 21.43 33.3995 21.0062 33.847 20.7084C34.2946 20.4107 34.8204 20.2524 35.3579 20.2537C35.7143 20.2537 36.0673 20.324 36.3965 20.4606C36.7257 20.5972 37.0248 20.7973 37.2765 21.0497C37.5282 21.302 37.7277 21.6015 37.8635 21.931C37.9994 22.2606 38.0689 22.6136 38.068 22.9701Z" fill="#F2C9AD"/>
<path d="M36.7846 22.9699C36.7846 23.2537 36.7004 23.5311 36.5426 23.7669C36.3848 24.0027 36.1606 24.1865 35.8983 24.2948C35.6361 24.403 35.3476 24.4311 35.0694 24.3752C34.7912 24.3194 34.5358 24.1823 34.3356 23.9812C34.1354 23.7802 33.9993 23.5242 33.9447 23.2457C33.8901 22.9673 33.9195 22.6789 34.0289 22.4171C34.1383 22.1553 34.323 21.9319 34.5595 21.7751C34.7961 21.6184 35.0738 21.5354 35.3576 21.5366C35.5455 21.5366 35.7316 21.5738 35.9051 21.6459C36.0787 21.718 36.2362 21.8236 36.3688 21.9568C36.5014 22.09 36.6064 22.2481 36.6778 22.4219C36.7491 22.5958 36.7854 22.782 36.7846 22.9699Z" fill="#EBA58E"/>
<path d="M51.1491 25.6801C52.6459 25.6801 53.8593 24.4667 53.8593 22.9699C53.8593 21.4731 52.6459 20.2598 51.1491 20.2598C49.6523 20.2598 48.439 21.4731 48.439 22.9699C48.439 24.4667 49.6523 25.6801 51.1491 25.6801Z" fill="#F2C9AD"/>
<path d="M49.7158 22.9699C49.7158 23.2534 49.7999 23.5305 49.9574 23.7662C50.1149 24.0019 50.3387 24.1857 50.6006 24.2941C50.8625 24.4026 51.1507 24.431 51.4288 24.3757C51.7068 24.3204 51.9622 24.1839 52.1626 23.9835C52.3631 23.783 52.4996 23.5276 52.5549 23.2496C52.6102 22.9715 52.5818 22.6833 52.4733 22.4214C52.3648 22.1595 52.1811 21.9357 51.9454 21.7782C51.7097 21.6207 51.4326 21.5366 51.1491 21.5366C50.769 21.5366 50.4044 21.6876 50.1356 21.9564C49.8668 22.2252 49.7158 22.5898 49.7158 22.9699Z" fill="#EBA58E"/>
<path d="M50.955 15.9911C50.955 11.7324 47.504 8.28003 43.247 8.28003C38.99 8.28003 35.5391 11.7324 35.5391 15.9911V21.7682C35.5391 26.0269 38.99 29.4792 43.247 29.4792C47.504 29.4792 50.955 26.0269 50.955 21.7682V15.9911Z" fill="#F2C9AD"/>
<path d="M39.8703 18.6011C39.7375 18.6011 39.6102 18.6539 39.5163 18.7478C39.4224 18.8417 39.3696 18.969 39.3696 19.1018V19.7277C39.3835 19.8517 39.4425 19.9662 39.5355 20.0493C39.6284 20.1325 39.7488 20.1785 39.8735 20.1785C39.9982 20.1785 40.1185 20.1325 40.2115 20.0493C40.3044 19.9662 40.3635 19.8517 40.3773 19.7277V19.1018C40.3773 19.0356 40.3642 18.9699 40.3386 18.9088C40.3131 18.8476 40.2756 18.7921 40.2284 18.7456C40.1813 18.699 40.1253 18.6622 40.0639 18.6374C40.0024 18.6126 39.9366 18.6003 39.8703 18.6011Z" fill="#402C49"/>
<path d="M45.7661 24.6411C44.1716 25.0237 42.5113 25.0408 40.9092 24.6912C40.989 25.0658 41.152 25.4178 41.3859 25.7211C41.6199 26.0244 41.919 26.2714 42.2611 26.4437C42.5977 26.6166 42.9692 26.7109 43.3476 26.7196C43.7259 26.7283 44.1013 26.6511 44.4455 26.4938C44.7854 26.2975 45.0793 26.0305 45.3071 25.7109C45.5349 25.3913 45.6915 25.0265 45.7661 24.6411Z" fill="white"/>
<path d="M39.3698 16.5106C38.9748 16.5574 38.5959 16.6947 38.2626 16.9118C37.9293 17.1289 37.6506 17.42 37.4482 17.7624L41.5416 17.2617C41.2623 16.9771 40.9208 16.7612 40.544 16.6309C40.1671 16.5006 39.7652 16.4594 39.3698 16.5106Z" fill="#6A3649"/>
<path d="M46.6301 18.6011C46.7629 18.6011 46.8903 18.6538 46.9842 18.7477C47.0781 18.8416 47.1309 18.969 47.1309 19.1018V19.7277C47.1309 19.8605 47.0781 19.9879 46.9842 20.0818C46.8903 20.1757 46.7629 20.2284 46.6301 20.2284C46.4973 20.2284 46.37 20.1757 46.2761 20.0818C46.1821 19.9879 46.1294 19.8605 46.1294 19.7277V19.1018C46.1294 18.969 46.1821 18.8416 46.2761 18.7477C46.37 18.6538 46.4973 18.6011 46.6301 18.6011Z" fill="#402C49"/>
<path d="M47.1309 16.5106C47.5259 16.5574 47.9048 16.6947 48.238 16.9118C48.5713 17.1289 48.85 17.42 49.0524 17.7624L44.959 17.2617C45.2383 16.9771 45.5798 16.7612 45.9566 16.6309C46.3335 16.5006 46.7354 16.4594 47.1309 16.5106Z" fill="#6A3649"/>
<path d="M52.9827 10.6836C52.8375 10.1924 52.6269 9.723 52.3568 9.28783C51.4504 7.94545 50.168 6.90037 48.6703 6.2835C46.9866 5.53868 44.8085 4.86896 42.9558 5.0317C41.1032 5.19443 39.2505 6.15832 38.368 7.63544C37.5809 7.62118 36.8008 7.78554 36.0864 8.11619C35.372 8.44684 34.7418 8.93518 34.2433 9.54445C33.4079 10.6816 32.9901 12.072 33.0603 13.4813C33.1384 14.8673 33.38 16.2392 33.7801 17.5685C34.2978 19.2242 34.9122 20.8481 35.6203 22.4317L36.6405 14.6956C37.4664 15.2623 38.4271 15.6013 39.4258 15.6783C39.7887 15.734 40.1601 15.6772 40.4898 15.5155C40.6203 15.4417 40.7298 15.3356 40.8076 15.2074C40.8854 15.0792 40.929 14.9331 40.9342 14.7832C40.9399 14.6239 40.907 14.4656 40.8384 14.3217C40.7697 14.1779 40.6673 14.0528 40.5398 13.957C41.4616 14.6698 42.5307 15.168 43.6693 15.4154C43.9238 15.5025 44.1948 15.5303 44.4617 15.4967C44.7285 15.463 44.9842 15.3689 45.2091 15.2213C45.3347 15.095 45.4215 14.9353 45.4592 14.7611C45.4969 14.587 45.484 14.4057 45.4219 14.2387C45.2899 13.9011 45.0992 13.5896 44.8586 13.3186C45.3748 13.9156 46.0158 14.3921 46.7363 14.7144C47.4412 15.0572 48.2376 15.1647 49.0083 15.0211C49.4693 14.9146 49.8983 14.7 50.2601 14.3952C50.2601 14.4953 50.2726 14.5892 50.2976 14.6768L50.9235 22.5757C51.6343 20.9396 52.261 19.2684 52.8012 17.5685C53.1527 16.2318 53.3625 14.8619 53.4271 13.4813C53.4592 12.5289 53.3083 11.5792 52.9827 10.6836Z" fill="#6A3649"/>
<path d="M44.308 22.2315L42.2676 22.2002C42.3307 22.4223 42.4584 22.6207 42.6345 22.77C42.8106 22.9193 43.0271 23.0129 43.2565 23.0389C43.4912 23.0207 43.7155 22.9347 43.9022 22.7914C44.0888 22.648 44.2299 22.4535 44.308 22.2315Z" fill="#EBA58E"/>
<path d="M49.165 22.9136V22.0435C45.4096 21.8057 44.5959 20.4475 43.2502 20.4475C41.9045 20.4475 41.0721 21.8057 37.3354 22.0435V22.9136C40.9531 22.5631 41.8544 21.2174 43.2502 21.2174C44.646 21.2174 45.5473 22.5693 49.165 22.9136Z" fill="white"/>
<path d="M43.25 21.2236C41.8542 21.2236 40.9529 22.5693 37.3352 22.9198V24.2968C37.305 25.7101 37.8372 27.0776 38.8149 28.0987C39.7925 29.1198 41.1356 29.7109 42.549 29.7421H43.951C45.3643 29.7109 46.7074 29.1198 47.685 28.0987C48.6627 27.0776 49.1949 25.7101 49.1647 24.2968V22.9136C45.547 22.5693 44.6457 21.2236 43.25 21.2236Z" fill="#FDF7E7"/>
</g>
</svg>
