<svg width="87" height="87" viewBox="0 0 87 87" fill="none" xmlns="http://www.w3.org/2000/svg">
<circle cx="43.5" cy="43.5" r="43.5" fill="#335DFF"/>
<mask id="mask0" mask-type="alpha" maskUnits="userSpaceOnUse" x="0" y="0" width="87" height="87">
<circle cx="43.5" cy="43.5" r="43.5" fill="#5F37EE"/>
</mask>
<g mask="url(#mask0)">
<path d="M7.78194 65.2597L7.24188 54.2163L10.1719 38.5669C9.19415 38.8615 8.31302 39.4123 7.6199 40.1621C6.92677 40.912 6.4469 41.8337 6.23004 42.8315L4.3988 51.2801C3.97729 53.2231 3.88912 55.2235 4.13807 57.196L5.26165 65.955V67.6372C5.26181 67.9869 5.36413 68.3288 5.55602 68.6211C5.74792 68.9133 6.02102 69.1431 6.34177 69.2823L8.26614 70.1203L9.30902 68.556L8.92415 67.2462L9.63804 66.6813L7.78194 65.2597Z" fill="#F0BF9C"/>
<path d="M10.1714 38.5669L9.96039 38.629C9.03684 38.9095 8.1989 39.4183 7.52403 40.1084C6.84916 40.7984 6.35914 41.6475 6.09924 42.577L4.19971 49.4054L8.08569 49.6661L10.1714 38.5669Z" fill="#5297F4"/>
<path d="M4.8078 49.4304L8.09786 49.6539L7.73781 51.5721L4.66504 50.0946L4.8078 49.4304Z" fill="#422C4F"/>
<path d="M6.95654 64.6887L9.16024 101.779H14.654L15.3741 65.2226L6.95654 64.6887Z" fill="#5DABFF"/>
<path d="M15.3741 65.2226L6.95654 64.6887L7.18001 68.4133C7.52764 68.5064 7.88769 68.5871 8.23531 68.6616L8.85608 68.7858C9.9108 68.9869 10.8785 69.5066 11.6288 70.2746C12.3791 71.0427 12.876 72.0223 13.0524 73.0814L14.983 84.3359L15.281 69.3755L15.3741 65.2226Z" fill="#5297F4"/>
<path d="M13.7661 64.6265L16.963 101.779H22.4568L23.1769 65.2224L13.7661 64.6265Z" fill="#5DABFF"/>
<path d="M23.1148 68.5066L23.1769 65.2228L13.7661 64.6021L14.1758 69.3447C17.1791 69.451 20.1836 69.1693 23.1148 68.5066Z" fill="#5297F4"/>
<path d="M20.9601 98.0052C21.3574 89.5504 21.4319 75.8191 21.1277 67.3457C20.7242 75.8067 20.6497 89.5318 20.9601 98.0052Z" fill="#5297F4"/>
<path d="M12.2082 39.2373C10.8621 38.9168 9.61257 38.2782 8.5643 37.375C8.09924 36.9727 7.7719 36.4348 7.62827 35.8369C7.48464 35.239 7.53193 34.6112 7.76351 34.0415L7.838 33.8677C8.18844 32.9674 8.25134 31.9807 8.01803 31.0432C7.69349 29.9158 7.65509 28.7253 7.9063 27.5794C8.11965 26.8404 8.50643 26.1631 9.03442 25.6038C9.56242 25.0445 10.2163 24.6194 10.9418 24.3638C12.4104 23.8651 14.0129 23.9382 15.4299 24.5687C15.8486 24.3216 16.3306 24.2028 16.8161 24.2271C17.3016 24.2513 17.7694 24.4176 18.1613 24.7052C18.88 25.2815 19.4133 26.0565 19.6946 26.9338C20.1025 27.9976 20.3454 29.1176 20.4147 30.2549C20.4856 31.3906 20.8656 32.4853 21.5134 33.4208V33.458C22.0166 34.1691 22.2323 35.0442 22.1171 35.9077C22.002 36.7713 21.5646 37.5593 20.8927 38.1137C20.1936 38.665 19.4008 39.0856 18.5524 39.3553C16.6094 40.0381 14.2008 39.7029 12.2082 39.2373Z" fill="#422C4F"/>
<path d="M13.4427 26.3628C12.7231 26.5256 12.0237 26.7671 11.3569 27.0829C10.6827 27.3769 10.0434 27.7454 9.45117 28.1816C10.207 28.1765 10.9533 28.0118 11.6411 27.6984C12.329 27.3849 12.9429 26.9298 13.4427 26.3628Z" fill="#454F6B"/>
<path d="M13.5983 25.8042C13.0662 25.5525 12.4759 25.4496 11.8901 25.5064C11.3043 25.5633 10.7448 25.7777 10.271 26.1269C11.3866 26.1023 12.4988 25.9944 13.5983 25.8042Z" fill="#454F6B"/>
<path d="M18.2414 29.2309C17.5545 28.1364 16.5433 27.2836 15.3486 26.7913C16.0404 27.8814 17.0502 28.7329 18.2414 29.2309Z" fill="#454F6B"/>
<path d="M13.4615 37.8594L10.1714 38.5671C9.41308 38.7338 8.72892 39.1412 8.22103 39.7285C7.71313 40.3158 7.4087 41.0516 7.35318 41.8261L7.32215 42.3289C7.21865 43.8423 6.8134 45.3198 6.13027 46.6742C5.83183 47.2649 5.72068 47.9326 5.81163 48.5881C5.90258 49.2436 6.19132 49.8558 6.6393 50.343C6.92238 50.6519 7.13635 51.0177 7.26694 51.4159C7.39753 51.8141 7.44174 52.2356 7.39663 52.6522L5.9937 65.862C11.3445 66.7882 16.8 66.947 22.1956 66.3338L24.9394 66.0234L23.8282 60.809C22.8522 56.234 22.5697 51.5382 22.9902 46.8791L23.3999 42.2979C23.4807 41.3978 23.2177 40.5004 22.6637 39.7864C22.1098 39.0724 21.306 38.5946 20.414 38.4491L16.7267 37.8284L13.4615 37.8594Z" fill="#5DABFF"/>
<path d="M20.4576 40.3236C19.8616 41.2903 19.5457 42.4035 19.5451 43.5392V44.4393L9.98535 46.5126L11.7918 62.0752L20.2776 60.9454C21.5122 60.7831 22.7677 60.9523 23.9153 61.4358L23.9836 61.4668L23.847 60.8088C22.8708 56.2317 22.5883 51.5338 23.009 46.8727L23.4187 42.2977C23.4757 41.7251 23.3924 41.1473 23.1761 40.6141C22.9598 40.0809 22.6169 39.6083 22.1771 39.2373L20.4887 40.3236H20.4576Z" fill="#5297F4"/>
<path d="M17.8012 43.2537C16.6156 43.0054 15.0512 42.8626 13.5614 42.5087C12.8351 42.3374 12.1264 42.0984 11.4446 41.7949C10.8339 41.5184 10.2569 41.1726 9.7251 40.7644C10.1275 41.3334 10.6432 41.8132 11.2398 42.1735C11.9179 42.5864 12.6577 42.8881 13.4311 43.0674C14.8664 43.3793 16.3446 43.4423 17.8012 43.2537Z" fill="#5297F4"/>
<path d="M19.1108 39.6594C18.2781 40.1539 17.3906 40.5497 16.4664 40.8389C15.5372 41.1142 14.5787 41.2788 13.6108 41.3293C14.5938 41.5481 15.6166 41.5093 16.5802 41.2168C17.5437 40.9242 18.4154 40.3878 19.1108 39.6594Z" fill="#5297F4"/>
<path d="M22.6987 63.7764C21.6123 63.9812 20.3584 64.1985 19.0113 64.3537C17.6643 64.5089 16.2365 64.6206 14.7964 64.6516C13.3562 64.6827 11.9284 64.6516 10.5752 64.5275C9.2219 64.4033 7.96796 64.2606 6.85059 64.0992C8.04799 64.4667 9.27267 64.7386 10.5131 64.9124C13.3488 65.3184 16.2317 65.2597 19.0486 64.7386C20.2897 64.519 21.5106 64.1972 22.6987 63.7764Z" fill="#5297F4"/>
<path d="M17.7888 62.9878C17.0998 62.9878 16.3114 63.0189 15.4796 62.9878C14.6209 62.9365 13.7665 62.8286 12.922 62.665C12.0798 62.4913 11.2503 62.2611 10.439 61.976C9.65062 61.6966 8.93054 61.3862 8.29736 61.0945C8.88141 61.6255 9.53507 62.0746 10.2403 62.4291C11.0474 62.8361 11.9055 63.1326 12.7917 63.3106C13.6781 63.4875 14.584 63.5459 15.4858 63.4844C16.2726 63.4251 17.0475 63.258 17.7888 62.9878Z" fill="#5297F4"/>
<path d="M19.9041 44.9232L9.98633 46.51L12.2694 60.7799L22.1872 59.1931L19.9041 44.9232Z" fill="#BD6C67"/>
<path d="M21.544 38.8215C21.0277 39.2863 20.6568 39.8905 20.4762 40.5612C20.2956 41.232 20.3128 41.9408 20.5259 42.6019L23.667 52.3045L14.3928 53.2232L13.3127 52.6024C13.1988 52.5364 13.0718 52.4962 12.9407 52.4846C12.8096 52.4731 12.6775 52.4904 12.5538 52.5353C12.4301 52.5803 12.3177 52.6519 12.2247 52.745C12.1317 52.8381 12.0602 52.9505 12.0153 53.0742L11.8663 53.4901L10.8669 53.7509C10.7213 53.7888 10.5945 53.8784 10.51 54.0028C10.4255 54.1273 10.3891 54.2782 10.4075 54.4275C10.4217 54.5506 10.4725 54.6667 10.5532 54.7607C10.634 54.8548 10.7411 54.9225 10.8606 54.9551L11.2021 55.0482C11.3373 55.0867 11.4555 55.1698 11.5373 55.2841L12.5243 56.6374C12.6257 56.7765 12.7536 56.8942 12.9005 56.9838C13.0475 57.0734 13.2107 57.1332 13.3807 57.1597C13.5508 57.1863 13.7245 57.179 13.8917 57.1384C14.059 57.0977 14.2166 57.0245 14.3555 56.923L15.7895 55.8676L25.4672 55.3214C25.8602 55.299 26.243 55.1882 26.5872 54.9971C26.9313 54.8061 27.2278 54.5398 27.4546 54.2181C27.6814 53.8964 27.8326 53.5276 27.897 53.1393C27.9613 52.751 27.9371 52.3531 27.8261 51.9755L25.1941 43.0613C24.9211 42.1347 24.4546 41.2765 23.8253 40.5435C23.1961 39.8105 22.4186 39.2193 21.544 38.8091V38.8215Z" fill="#F0BF9C"/>
<path d="M22.9165 49.983L27.057 49.3933L27.1749 49.7968L23.3821 51.4356L22.9165 49.983Z" fill="#422C4F"/>
<path d="M21.5439 38.8215L21.4012 38.9457C20.9205 39.3806 20.5659 39.937 20.3748 40.5564C20.1836 41.1758 20.1629 41.8352 20.3148 42.4654L22.1771 50.0946L27.944 49.269L25.3182 42.6703C24.6786 41.0499 23.4439 39.7352 21.8667 38.9953L21.5439 38.8215Z" fill="#5DABFF"/>
<path d="M11.2575 32.8314C11.2575 33.092 11.1802 33.3466 11.0353 33.5632C10.8904 33.7797 10.6845 33.9484 10.4437 34.0478C10.2028 34.1473 9.93792 34.173 9.68246 34.1217C9.42701 34.0704 9.19253 33.9444 9.00873 33.7598C8.82493 33.5751 8.7001 33.34 8.65003 33.0843C8.59995 32.8286 8.62689 32.5638 8.72745 32.3235C8.82801 32.0831 8.99765 31.878 9.21488 31.7342C9.43212 31.5903 9.68718 31.5142 9.94772 31.5154C10.1203 31.5154 10.2911 31.5495 10.4504 31.6157C10.6097 31.6819 10.7544 31.7789 10.8761 31.9012C10.9978 32.0235 11.0941 32.1686 11.1596 32.3283C11.2251 32.4879 11.2583 32.6589 11.2575 32.8314Z" fill="#EBA588"/>
<path d="M10.6935 32.8311C10.6935 32.9784 10.6498 33.1224 10.5679 33.245C10.4861 33.3675 10.3697 33.4629 10.2336 33.5193C10.0975 33.5757 9.94771 33.5904 9.80321 33.5617C9.65871 33.533 9.52598 33.462 9.4218 33.3578C9.31762 33.2537 9.24667 33.1209 9.21793 32.9764C9.18918 32.8319 9.20394 32.6821 9.26032 32.546C9.3167 32.4099 9.41219 32.2936 9.53469 32.2117C9.65719 32.1299 9.80122 32.0862 9.94855 32.0862C10.0464 32.0862 10.1432 32.1055 10.2336 32.1429C10.324 32.1803 10.4061 32.2352 10.4753 32.3044C10.5444 32.3735 10.5993 32.4557 10.6368 32.546C10.6742 32.6364 10.6935 32.7333 10.6935 32.8311Z" fill="#E78882"/>
<path d="M16.7458 34.7743V33.8494H13.4619V37.4932C13.894 37.4824 14.3195 37.3856 14.7138 37.2087C15.1082 37.0318 15.4634 36.7783 15.7587 36.4628C16.2118 35.9823 16.5493 35.4048 16.7458 34.7743Z" fill="#422C4F"/>
<path d="M15.7587 36.4626C15.4614 36.7833 15.1027 37.0409 14.7038 37.22C14.305 37.3992 13.8742 37.4963 13.437 37.5055V38.3249C13.9296 38.6319 14.4984 38.7947 15.0789 38.7947C15.6594 38.7947 16.2282 38.6319 16.7208 38.3249V34.7493C16.5351 35.3863 16.206 35.9724 15.7587 36.4626Z" fill="#F0BF9C"/>
<path d="M9.30908 30.3855L10.3209 34.1101C10.4341 34.5255 10.6298 34.9139 10.8965 35.252C11.1631 35.5901 11.4952 35.871 11.8728 36.0779C12.4952 36.4176 13.2015 36.5727 13.9089 36.5248C14.6912 36.4691 15.4352 36.1646 16.032 35.6557L16.2616 35.4571C16.8714 34.9351 17.2653 34.2049 17.3666 33.4086L17.6087 31.4159C16.4637 30.8819 15.5352 29.9731 14.9767 28.8398L14.5483 27.9707L12.8412 29.2805C11.9858 29.9346 10.9498 30.3095 9.87398 30.3544L9.30908 30.3855Z" fill="#F0BF9C"/>
<path d="M13.8963 29.7647C13.6554 29.748 13.4139 29.7876 13.1909 29.8802C12.9679 29.9729 12.7695 30.1161 12.6113 30.2986L15.0944 30.46C14.9604 30.2608 14.783 30.0948 14.5754 29.9743C14.3679 29.8539 14.1356 29.7822 13.8963 29.7647Z" fill="#422C4F"/>
<path d="M10.501 29.8887C10.7011 29.8673 10.9033 29.8998 11.0866 29.9828C11.27 30.0657 11.4278 30.1961 11.5439 30.3605L9.59473 30.646C9.67102 30.4545 9.79382 30.2849 9.95205 30.1527C10.1103 30.0205 10.299 29.9298 10.501 29.8887Z" fill="#422C4F"/>
<path d="M14.0758 31.4967C14.0758 31.579 14.0431 31.6579 13.9849 31.7161C13.9267 31.7743 13.8478 31.807 13.7655 31.807C13.6831 31.807 13.6042 31.7743 13.546 31.7161C13.4878 31.6579 13.4551 31.579 13.4551 31.4967C13.4551 31.4143 13.4878 31.3354 13.546 31.2772C13.6042 31.219 13.6831 31.1863 13.7655 31.1863C13.8478 31.1863 13.9267 31.219 13.9849 31.2772C14.0431 31.3354 14.0758 31.4143 14.0758 31.4967Z" fill="#422C4F"/>
<path d="M11.0787 31.4965C11.0692 31.5551 11.0431 31.6098 11.0035 31.654C10.9639 31.6982 10.9124 31.7301 10.8552 31.746C10.798 31.7618 10.7374 31.7609 10.6807 31.7434C10.624 31.7259 10.5735 31.6925 10.5352 31.6472C10.4969 31.6018 10.4724 31.5464 10.4646 31.4876C10.4568 31.4288 10.4661 31.3689 10.4913 31.3152C10.5164 31.2614 10.5565 31.216 10.6067 31.1843C10.6569 31.1527 10.7151 31.1361 10.7745 31.1365C10.8624 31.1444 10.9436 31.1866 11.0005 31.254C11.0575 31.3214 11.0856 31.4086 11.0787 31.4965Z" fill="#422C4F"/>
<path d="M18.0891 31.6197L14.1045 33.1741L14.1834 33.3765L18.1681 31.8221L18.0891 31.6197Z" fill="#F7DD8C"/>
<path d="M17.7272 33.4882L14.3926 34.2771L14.4426 34.4885L17.7772 33.6997L17.7272 33.4882Z" fill="#F7DD8C"/>
<path d="M13.8956 32.5519C13.039 32.1484 12.7224 31.6829 12.083 31.7201C11.4436 31.7574 11.3505 32.1609 10.6366 32.7258C10.3994 32.9137 10.2115 33.1566 10.0893 33.4335C9.96703 33.7104 9.91414 34.013 9.93516 34.3149C9.95567 34.6497 10.0438 34.9769 10.1942 35.2767C10.3447 35.5765 10.5543 35.8427 10.8104 36.0592C11.0336 36.2663 11.2961 36.4264 11.5824 36.53C11.8686 36.6337 12.1728 36.6787 12.4768 36.6625C12.7807 36.6463 13.0784 36.5691 13.352 36.4357C13.6256 36.3022 13.8696 36.1151 14.0694 35.8854C15.0068 34.917 15.1372 33.1355 13.8956 32.5519Z" fill="white"/>
<path d="M19.8127 32.8314C19.8127 33.0917 19.7355 33.3461 19.5909 33.5625C19.4463 33.779 19.2408 33.9476 19.0003 34.0472C18.7598 34.1468 18.4952 34.1729 18.2399 34.1221C17.9846 34.0714 17.7501 33.946 17.5661 33.762C17.3821 33.5779 17.2567 33.3434 17.206 33.0881C17.1552 32.8329 17.1812 32.5683 17.2808 32.3278C17.3804 32.0873 17.5491 31.8818 17.7655 31.7372C17.9819 31.5926 18.2364 31.5154 18.4967 31.5154C18.8457 31.5154 19.1804 31.654 19.4272 31.9008C19.674 32.1476 19.8127 32.4824 19.8127 32.8314Z" fill="#F0BF9C"/>
<path d="M19.2413 32.8311C19.2413 32.9784 19.1976 33.1224 19.1158 33.245C19.0339 33.3675 18.9176 33.4629 18.7815 33.5193C18.6453 33.5757 18.4956 33.5904 18.3511 33.5617C18.2066 33.533 18.0738 33.462 17.9696 33.3578C17.8655 33.2537 17.7945 33.1209 17.7658 32.9764C17.737 32.8319 17.7518 32.6821 17.8082 32.546C17.8645 32.4099 17.96 32.2936 18.0825 32.2117C18.205 32.1299 18.3491 32.0862 18.4964 32.0862C18.5942 32.0862 18.6911 32.1055 18.7815 32.1429C18.8718 32.1803 18.9539 32.2352 19.0231 32.3044C19.0923 32.3735 19.1472 32.4557 19.1846 32.546C19.222 32.6364 19.2413 32.7333 19.2413 32.8311Z" fill="#EBA588"/>
<path d="M57.3505 57.0596H53.148H49.3116H45.2084H42.1791L36.6978 101.81H43.1289L49.7524 63.7949H50.8946L50.1745 101.81H56.6056L59.1818 57.0596H57.3505Z" fill="#3E4870"/>
<path d="M57.3505 57.0596H53.148H49.3116H45.2084H42.1791L36.6978 101.81H43.1289L49.7524 63.7949H50.8946L50.1745 101.81H56.6056L59.1818 57.0596H57.3505Z" fill="#6CA8BC"/>
<path d="M57.3495 57.0596H42.178L40.5889 69.8473C42.8325 71.4437 45.4916 72.3538 48.2429 72.4669L49.7575 63.7762H50.8935L50.7259 72.4669H52.1661C54.3103 72.4713 56.4293 72.0051 58.3737 71.1012L59.1807 57.0596H57.3495Z" fill="#5195A8"/>
<path d="M44.8038 86.7444C44.2791 86.5048 43.7728 86.2268 43.2891 85.9126C42.7549 85.5577 42.256 85.1524 41.7993 84.7021C41.3475 84.2445 40.942 83.7434 40.5888 83.2061C40.2775 82.7217 40.0016 82.2155 39.7632 81.6914C39.8337 82.2827 40.0037 82.8577 40.266 83.3923C40.5703 84.0044 40.9706 84.564 41.4517 85.0497C41.9351 85.5336 42.4951 85.9342 43.1091 86.2354C43.6421 86.4973 44.2147 86.6693 44.8038 86.7444Z" fill="#5195A8"/>
<path d="M45.1831 83.9075C44.7672 83.9944 44.2955 84.1372 43.8175 84.2675C43.3395 84.3979 42.8553 84.5158 42.458 84.6524C42.9332 84.8243 43.451 84.8396 43.9354 84.6958C44.4231 84.5689 44.8592 84.2934 45.1831 83.9075Z" fill="#5195A8"/>
<path d="M56.3572 88.1722C55.8229 87.9853 55.304 87.757 54.8053 87.4894C54.2477 87.1936 53.7215 86.8421 53.2347 86.4403C52.7527 86.036 52.31 85.5871 51.9125 85.0995C51.5556 84.6591 51.2359 84.1898 50.9565 83.6965C51.0832 84.2678 51.3057 84.8135 51.6146 85.3105C51.9659 85.8797 52.4084 86.3872 52.9244 86.8128C53.4411 87.2411 54.0239 87.5828 54.6501 87.8246C55.1965 88.0322 55.7731 88.1496 56.3572 88.1722Z" fill="#5195A8"/>
<path d="M53.396 85.7017C54.373 85.2734 55.2264 84.6058 55.8774 83.7607C56.5283 82.9155 56.9559 81.92 57.1206 80.866C56.6913 81.8014 56.1626 82.688 55.5438 83.5104C54.9125 84.3192 54.192 85.0543 53.396 85.7017Z" fill="#5195A8"/>
<path d="M40.6823 36.3635C40.0419 36.4876 39.45 36.7909 38.9753 37.2382C38.5006 37.6854 38.1626 38.2583 38.0006 38.89L34.7354 51.5598L41.6879 51.6653L40.6823 36.3635Z" fill="#6CA8BC"/>
<path d="M41.6881 51.6651L40.8191 38.4304C40.2476 40.5105 39.8816 42.6417 39.7265 44.7932L39.2485 51.6216L41.6881 51.6651Z" fill="#5195A8"/>
<path d="M35.7655 51.572L35.2068 53.7819L33.897 66.3089H36.6966L38.6396 53.9309L39.2479 51.6279L35.7655 51.572Z" fill="#F0BF9C"/>
<path d="M38.2555 68.5002C38.2331 68.2122 38.1534 67.9315 38.0213 67.6747C37.8891 67.4178 37.707 67.1898 37.4857 67.0042L36.6787 66.3089L37.1443 64.6887H33.9412L33.8791 66.3089L33.4383 68.3823C33.361 68.7532 33.4057 69.1391 33.5657 69.4826C33.7256 69.826 33.9924 70.1086 34.326 70.288L34.6613 70.468C35.0358 70.6672 35.3249 70.996 35.4744 71.393C35.5294 71.5078 35.6182 71.603 35.7291 71.6656C35.8399 71.7282 35.9672 71.7552 36.0939 71.743C36.2206 71.7308 36.3405 71.68 36.4373 71.5974C36.5342 71.5148 36.6033 71.4044 36.6353 71.2812L37.0822 68.4816L37.4671 69.6548C37.5306 69.8485 37.6511 70.0185 37.8128 70.1426C37.9745 70.2666 38.1699 70.339 38.3734 70.3501L38.2555 68.5002Z" fill="#FDF7E7"/>
<path d="M35.7662 51.572L39.2487 51.6279L38.9383 52.8073L35.7041 51.8141L35.7662 51.572Z" fill="#422C4F"/>
<path d="M60.4535 36.3635C61.0944 36.488 61.6869 36.7913 62.1626 37.2384C62.6382 37.6855 62.9776 38.2581 63.1414 38.89L66.4004 51.5598L59.4541 51.6653L60.4535 36.3635Z" fill="#6CA8BC"/>
<path d="M59.4419 51.6651L60.3048 38.4304C60.8823 40.5092 61.2483 42.6409 61.3973 44.7932L61.8753 51.6216L59.4419 51.6651Z" fill="#5195A8"/>
<path d="M65.3637 51.572L65.9162 53.7819L67.2322 66.3089H64.4263L62.4895 53.9309L61.875 51.6279L65.3637 51.572Z" fill="#F0BF9C"/>
<path d="M62.8744 68.5002C62.8933 68.2139 62.9689 67.9343 63.0968 67.6775C63.2246 67.4207 63.4022 67.1918 63.6193 67.0042L64.4263 66.3089L63.9669 64.6887H67.1638L67.2321 66.3089L67.6667 68.3823C67.745 68.7532 67.7008 69.1396 67.5408 69.4832C67.3807 69.8269 67.1133 70.1093 66.779 70.288L66.45 70.468C66.074 70.6654 65.7843 70.9948 65.6368 71.393C65.583 71.51 65.4941 71.6075 65.3824 71.6717C65.2707 71.736 65.1418 71.764 65.0136 71.7517C64.8853 71.7394 64.764 71.6875 64.6666 71.6032C64.5691 71.5189 64.5003 71.4064 64.4697 71.2812L64.0228 68.4816L63.6379 69.6548C63.5763 69.8485 63.4572 70.0188 63.2964 70.143C63.1356 70.2672 62.9407 70.3394 62.7378 70.3501L62.8744 68.5002Z" fill="#FDF7E7"/>
<path d="M65.3637 51.572L61.875 51.6279L62.1916 52.8073L65.4196 51.8141L65.3637 51.572Z" fill="#422C4F"/>
<path d="M59.4422 51.6653L60.4541 36.3635L52.4897 34.6315L50.5778 34.4888L48.6596 34.6315L40.6952 36.3635L41.7008 51.6653L39.2612 66.5077L39.9999 67.023C42.545 69.0565 45.7123 70.1525 48.97 70.1268H52.1793C55.4371 70.1535 58.6047 69.0574 61.1493 67.023L59.4422 51.6653Z" fill="#6CA8BC"/>
<path d="M57.2073 63.2052C56.7019 63.5782 56.1104 63.8174 55.4878 63.9004C54.8047 63.9923 54.1136 64.0089 53.4268 63.9501C51.9371 63.8408 50.4723 63.5081 49.0815 62.9631C47.6836 62.4212 46.3441 61.739 45.0838 60.927C43.8423 60.151 42.7621 59.344 41.8062 58.6426C42.7473 59.5988 43.7645 60.477 44.8479 61.2684C46.0898 62.181 47.4464 62.9261 48.8828 63.4845C50.326 64.0488 51.8588 64.3495 53.4082 64.3722C54.123 64.3839 54.8364 64.3046 55.5312 64.1363C56.1668 63.9908 56.748 63.6679 57.2073 63.2052Z" fill="#5195A8"/>
<path d="M57.9337 58.8784C57.3431 59.3358 56.7207 59.7507 56.0714 60.1199C55.3255 60.5414 54.542 60.8926 53.7311 61.169C52.9248 61.4537 52.0934 61.6615 51.2481 61.7898C50.495 61.8901 49.7357 61.9357 48.9761 61.9264C49.7351 62.05 50.506 62.0833 51.2729 62.0257C52.1498 61.9587 53.0151 61.7836 53.849 61.5042C54.6804 61.2191 55.4728 60.8312 56.208 60.3496C56.8406 59.9309 57.4201 59.4369 57.9337 58.8784Z" fill="#5195A8"/>
<path d="M44.5493 47.3261C45.7722 47.4448 47.0053 47.4052 48.218 47.2082C51.0094 46.7742 53.6333 45.5995 55.8162 43.8064C56.771 43.0309 57.6222 42.1358 58.3489 41.1433C57.4969 42.0068 56.5727 42.796 55.5865 43.5022C54.4744 44.3021 53.2848 44.9883 52.0357 45.5507C50.7858 46.1058 49.4842 46.5362 48.1497 46.8357C46.9652 47.0982 45.7609 47.2622 44.5493 47.3261Z" fill="#5195A8"/>
<path d="M53.278 44.3153C52.3382 44.396 51.3933 44.396 50.4535 44.3153C49.3898 44.2181 48.3392 44.0101 47.3187 43.6945C46.3008 43.3801 45.3171 42.9641 44.3825 42.453C43.5553 41.9992 42.7682 41.4759 42.0298 40.8887C42.6832 41.5871 43.4239 42.1984 44.2335 42.7075C46.097 43.8764 48.2419 44.5198 50.4411 44.5698C51.3938 44.6072 52.3472 44.5217 53.278 44.3153Z" fill="#5195A8"/>
<path d="M57.741 51.6713C56.7311 52.0351 55.693 52.3154 54.6372 52.5094C52.2372 52.9465 49.7725 52.881 47.3991 52.3169C46.3509 52.0669 45.3252 51.7305 44.3325 51.3113C45.2647 51.88 46.2661 52.3264 47.3122 52.6397C49.7144 53.3666 52.2677 53.4352 54.7055 52.8384C55.7633 52.5817 56.7836 52.1894 57.741 51.6713Z" fill="#5195A8"/>
<path d="M49.1128 34.3521C48.3596 34.5337 47.6788 34.9384 47.1593 35.5132C46.6399 36.088 46.306 36.8062 46.2014 37.5739L46.1455 37.9712C45.9283 39.5767 45.9095 41.203 46.0896 42.8131L46.3752 45.2962L46.7725 45.2527L46.4932 42.7697C46.313 41.1927 46.3318 39.5993 46.549 38.027L46.6049 37.6297C46.6969 36.9425 46.9945 36.2991 47.4587 35.7839C47.9228 35.2688 48.5319 34.906 49.2059 34.7432L49.4542 34.6811L49.3549 34.29L49.1128 34.3521Z" fill="#495375"/>
<path d="M54.1591 37.9464L54.0474 36.7049C54.0015 36.1318 53.771 35.589 53.3904 35.1581C53.0099 34.7272 52.4998 34.4313 51.9368 34.3149H51.8188L51.7319 34.706L51.8561 34.7371C52.3338 34.8348 52.7669 35.085 53.0904 35.4499C53.4139 35.8148 53.6103 36.2747 53.6501 36.7607L53.7556 38.0023C53.2188 38.0877 52.7298 38.3613 52.3761 38.7741C52.0225 39.1869 51.8271 39.712 51.825 40.2556V40.9323H52.2285V40.2556C52.2285 39.7568 52.4267 39.2784 52.7795 38.9256C53.1322 38.5729 53.6106 38.3747 54.1094 38.3747C54.6083 38.3747 55.0867 38.5729 55.4395 38.9256C55.7922 39.2784 55.9904 39.7568 55.9904 40.2556V40.9323H56.4001V40.2556C56.4035 39.6539 56.1706 39.0748 55.7516 38.643C55.3325 38.2112 54.7607 37.961 54.1591 37.9464Z" fill="#495375"/>
<path d="M47.9884 46.066C47.9884 46.3287 47.9105 46.5856 47.7645 46.804C47.6186 47.0225 47.4111 47.1927 47.1683 47.2933C46.9256 47.3938 46.6585 47.4201 46.4008 47.3689C46.1431 47.3176 45.9064 47.1911 45.7206 47.0053C45.5348 46.8195 45.4083 46.5828 45.3571 46.3251C45.3058 46.0675 45.3321 45.8003 45.4327 45.5576C45.5332 45.3149 45.7035 45.1074 45.9219 44.9614C46.1404 44.8155 46.3972 44.7375 46.66 44.7375C47.0123 44.7375 47.3502 44.8775 47.5993 45.1266C47.8485 45.3758 47.9884 45.7137 47.9884 46.066Z" fill="#E4E4E0"/>
<path d="M46.6597 47.059C47.2083 47.059 47.653 46.6143 47.653 46.0657C47.653 45.5172 47.2083 45.0725 46.6597 45.0725C46.1112 45.0725 45.6665 45.5172 45.6665 46.0657C45.6665 46.6143 46.1112 47.059 46.6597 47.059Z" fill="#D4CFBE"/>
<path d="M47.2376 46.0658C47.2376 46.18 47.2038 46.2916 47.1403 46.3866C47.0769 46.4815 46.9867 46.5555 46.8812 46.5992C46.7758 46.6429 46.6597 46.6543 46.5477 46.6321C46.4357 46.6098 46.3328 46.5548 46.2521 46.4741C46.1714 46.3933 46.1164 46.2905 46.0941 46.1785C46.0718 46.0665 46.0833 45.9504 46.127 45.8449C46.1707 45.7394 46.2446 45.6493 46.3396 45.5858C46.4345 45.5224 46.5461 45.4885 46.6603 45.4885C46.8134 45.4885 46.9603 45.5493 47.0685 45.6576C47.1768 45.7659 47.2376 45.9127 47.2376 46.0658Z" fill="#A59B95"/>
<path d="M52.8686 45.5133C52.7425 45.5133 52.6177 45.4884 52.5013 45.4399C52.3849 45.3915 52.2793 45.3205 52.1904 45.2311C52.1016 45.1417 52.0313 45.0355 51.9836 44.9188C51.9359 44.8021 51.9118 44.6772 51.9126 44.5511V40.9072H52.1113V44.5325C52.1113 44.7339 52.1909 44.9272 52.3327 45.0702C52.4746 45.2132 52.6672 45.2944 52.8686 45.296V45.5133Z" fill="#D4CFBE"/>
<path d="M53.1227 45.2279H52.9054C52.8955 45.2279 52.8861 45.2318 52.8791 45.2388C52.8721 45.2458 52.8682 45.2552 52.8682 45.2651V45.4886C52.8682 45.4985 52.8721 45.5079 52.8791 45.5149C52.8861 45.5219 52.8955 45.5258 52.9054 45.5258H53.1227C53.1483 45.5294 53.1744 45.5274 53.1992 45.52C53.224 45.5125 53.2469 45.4999 53.2664 45.4828C53.2858 45.4657 53.3013 45.4446 53.3119 45.421C53.3224 45.3973 53.3278 45.3717 53.3275 45.3458C53.3123 45.3055 53.2836 45.2717 53.2462 45.2502C53.2089 45.2287 53.1652 45.2208 53.1227 45.2279Z" fill="#A59B95"/>
<path d="M55.3511 45.5133C55.4777 45.5141 55.6031 45.4898 55.7203 45.4417C55.8374 45.3937 55.9438 45.3228 56.0333 45.2333C56.1228 45.1438 56.1936 45.0374 56.2417 44.9203C56.2898 44.8032 56.3141 44.6777 56.3132 44.5511V40.9072H56.1084V44.5325C56.1092 44.6325 56.0903 44.7316 56.0526 44.8242C56.0149 44.9168 55.9592 45.001 55.8888 45.072C55.8184 45.143 55.7346 45.1993 55.6423 45.2378C55.5501 45.2762 55.4511 45.296 55.3511 45.296V45.5133Z" fill="#D4CFBE"/>
<path d="M55.1023 45.2277H55.3196C55.3229 45.2334 55.3246 45.2398 55.3246 45.2464C55.3246 45.2529 55.3229 45.2593 55.3196 45.265V45.4885C55.3229 45.4941 55.3246 45.5005 55.3246 45.5071C55.3246 45.5136 55.3229 45.52 55.3196 45.5257H55.1023C55.0767 45.5293 55.0506 45.5273 55.0258 45.5198C55.001 45.5124 54.9781 45.4997 54.9587 45.4826C54.9392 45.4655 54.9237 45.4445 54.9131 45.4208C54.9026 45.3972 54.8972 45.3716 54.8975 45.3457C54.9116 45.3046 54.9402 45.2701 54.9778 45.2484C55.0155 45.2267 55.0597 45.2194 55.1023 45.2277Z" fill="#A59B95"/>
<path d="M48.8887 31.4282V35.7053C48.8887 36.0715 49.6398 36.3633 50.5647 36.3633C51.4897 36.3633 52.2346 36.0715 52.2346 35.7053V31.4282H48.8887Z" fill="#F0BF9C"/>
<path d="M48.8887 31.4282V33.6443C49.0587 33.8433 49.2688 34.0042 49.5052 34.1165C49.7415 34.2288 49.9989 34.29 50.2606 34.2962H50.8813C51.1419 34.2891 51.3981 34.2275 51.6333 34.1152C51.8686 34.0029 52.0777 33.8425 52.247 33.6443V31.4282H48.8887Z" fill="#422C4F"/>
<path d="M53.3455 28.7839H47.7586C47.1835 28.7839 46.6318 28.5558 46.2245 28.1497C45.8172 27.7436 45.5876 27.1926 45.5859 26.6174V28.2314C45.5876 28.8066 45.8172 29.3576 46.2245 29.7637C46.6318 30.1698 47.1835 30.3979 47.7586 30.3979H53.3455C53.9157 30.3913 54.4604 30.1602 54.8614 29.7546C55.2623 29.349 55.4872 28.8017 55.4871 28.2314V26.6174C55.4872 27.1877 55.2623 27.7351 54.8614 28.1406C54.4604 28.5462 53.9157 28.7774 53.3455 28.7839Z" fill="#5195A8"/>
<path d="M50.5652 20C49.2481 20 47.985 20.5232 47.0537 21.4545C46.1223 22.3859 45.5991 23.649 45.5991 24.9661V26.636C45.6008 27.2111 45.8304 27.7621 46.2377 28.1683C46.6449 28.5744 47.1966 28.8024 47.7718 28.8024H53.3587C53.93 28.7926 54.4743 28.5575 54.8731 28.1482C55.2719 27.739 55.4929 27.1887 55.4879 26.6173V24.9475C55.483 23.6411 54.9636 22.3893 54.0422 21.4632C53.1208 20.5371 51.8716 20.0114 50.5652 20Z" fill="#6CA8BC"/>
<path d="M50.5646 33.1975C50.0628 33.1983 49.5657 33.1002 49.1018 32.9087C48.6379 32.7172 48.2162 32.4361 47.8611 32.0815C47.5059 31.727 47.2242 31.3058 47.0319 30.8422C46.8397 30.3787 46.7407 29.8817 46.7407 29.3798V27.0396C46.7504 26.3928 47.012 25.7754 47.4699 25.3186C47.9279 24.8618 48.546 24.6018 49.1927 24.5938H51.9365C52.5852 24.5938 53.2073 24.8514 53.666 25.3101C54.1246 25.7688 54.3823 26.3909 54.3823 27.0396V29.3798C54.3823 30.3923 53.9801 31.3634 53.2641 32.0794C52.5482 32.7953 51.5771 33.1975 50.5646 33.1975Z" fill="#F0BF9C"/>
<path d="M53.9727 29.6342V29.1314C51.8187 28.9948 51.3345 28.2126 50.5647 28.2126C49.795 28.2126 49.3232 28.9948 47.1567 29.1314V29.6342C49.2363 29.4293 49.7577 28.6534 50.5647 28.6534C51.3717 28.6534 51.887 29.448 53.9727 29.6342Z" fill="white"/>
<path d="M50.565 28.6721C49.758 28.6721 49.2365 29.4481 47.157 29.6529V30.4475C47.147 31.2566 47.4572 32.0368 48.02 32.6182C48.5827 33.1996 49.3525 33.535 50.1615 33.5513H50.9685C51.7743 33.5255 52.5385 33.1872 53.0993 32.6079C53.66 32.0285 53.9734 31.2538 53.973 30.4475V29.6343C51.8872 29.4481 51.3658 28.6721 50.565 28.6721Z" fill="#FDF7E7"/>
<path d="M48.6595 25.6427C48.41 25.6576 48.1676 25.7312 47.9519 25.8574C47.7361 25.9835 47.5532 26.1588 47.418 26.369L49.9507 26.1766C49.7898 25.9958 49.59 25.8539 49.3664 25.7614C49.1427 25.6689 48.9011 25.6284 48.6595 25.6427Z" fill="#8C404C"/>
<path d="M49.0569 27.027C49.0569 27.0921 49.0376 27.1557 49.0015 27.2098C48.9653 27.2639 48.914 27.3061 48.8538 27.331C48.7937 27.3559 48.7276 27.3624 48.6637 27.3497C48.5999 27.337 48.5413 27.3057 48.4953 27.2596C48.4493 27.2136 48.4179 27.155 48.4052 27.0912C48.3926 27.0274 48.3991 26.9612 48.424 26.9011C48.4489 26.841 48.491 26.7896 48.5452 26.7534C48.5993 26.7173 48.6629 26.698 48.7279 26.698C48.8152 26.698 48.8989 26.7327 48.9606 26.7944C49.0223 26.8561 49.0569 26.9397 49.0569 27.027Z" fill="#422C4F"/>
<path d="M52.4457 25.6425C52.6952 25.6574 52.9376 25.731 53.1533 25.8572C53.3691 25.9834 53.552 26.1587 53.6872 26.3688L51.1421 26.1764C51.3046 25.9943 51.5065 25.8516 51.7323 25.7591C51.9582 25.6666 52.2021 25.6267 52.4457 25.6425Z" fill="#8C404C"/>
<path d="M52.0737 27.027C52.0737 27.0921 52.093 27.1557 52.1292 27.2098C52.1653 27.2639 52.2167 27.3061 52.2768 27.331C52.3369 27.3559 52.4031 27.3624 52.4669 27.3497C52.5307 27.337 52.5894 27.3057 52.6354 27.2596C52.6814 27.2136 52.7127 27.155 52.7254 27.0912C52.7381 27.0274 52.7316 26.9612 52.7067 26.9011C52.6818 26.841 52.6396 26.7896 52.5855 26.7534C52.5314 26.7173 52.4678 26.698 52.4027 26.698C52.3155 26.698 52.2318 26.7327 52.1701 26.7944C52.1084 26.8561 52.0737 26.9397 52.0737 27.027Z" fill="#422C4F"/>
<path d="M39.5395 56.7366H35.3121H31.4509H27.3229H24.9888L23.4741 101.779H29.9487L31.3144 63.5215H35.4611L37.0378 101.779H43.5062L41.7804 56.7366H39.5395Z" fill="#3E4870"/>
<path d="M41.7871 58.8782H24.9893L25.2748 44.5821L26.3301 36.5742H40.2787L41.3774 44.5696L41.7871 58.8782Z" fill="#6BC5FF"/>
<path d="M35.4616 63.5217H34.1952H32.6309H31.3149L30.7935 78.2276H32.4385L33.4317 70.8716L34.4187 78.2276H36.0637L35.4616 63.5217Z" fill="#D9D9D9"/>
<path d="M31.4643 36.5742L27.1935 80.8657H22.0474L25.2753 43.8123L26.3306 36.5742H31.4643Z" fill="white"/>
<path d="M31.4641 36.5742L28.174 39.5663C28.0327 39.6953 27.9211 39.8534 27.8468 40.0298C27.7726 40.2061 27.7375 40.3965 27.744 40.5877C27.7505 40.7789 27.7984 40.9665 27.8844 41.1374C27.9705 41.3083 28.0926 41.4585 28.2423 41.5776L28.8631 42.0742L27.4043 43.4212C27.2127 43.5989 27.078 43.8293 27.0172 44.0834C26.9564 44.3375 26.9723 44.6039 27.0629 44.849L29.9246 52.5278L31.4641 36.5742Z" fill="#D9D9D9"/>
<path d="M31.4639 36.5742L28.6518 39.8084C28.5571 39.9175 28.4848 40.0443 28.4391 40.1814C28.3934 40.3186 28.3753 40.4634 28.3857 40.6075C28.3961 40.7517 28.4348 40.8924 28.4996 41.0216C28.5644 41.1507 28.6542 41.2658 28.7636 41.3603L29.5768 42.068L27.8821 43.8061C27.7455 43.9474 27.6488 44.1224 27.6019 44.3132C27.555 44.5041 27.5596 44.7039 27.6151 44.8924L29.9244 52.5216L31.4639 36.5742Z" fill="white"/>
<path d="M35.1514 36.5742L39.4222 80.8657H44.5684L41.3404 43.8123L40.2851 36.5742H35.1514Z" fill="white"/>
<path d="M35.1514 36.5742L38.4476 39.5601C38.5889 39.6891 38.7006 39.8472 38.7748 40.0236C38.849 40.1999 38.8841 40.3903 38.8777 40.5815C38.8712 40.7727 38.8232 40.9602 38.7372 41.1311C38.6512 41.3021 38.5291 41.4522 38.3793 41.5714L37.7586 42.068L39.2174 43.415C39.409 43.5927 39.5437 43.8231 39.6044 44.0772C39.6652 44.3313 39.6493 44.5977 39.5588 44.8428L36.6971 52.5216L35.1514 36.5742Z" fill="#D9D9D9"/>
<path d="M35.1514 36.5742L37.9634 39.8084C38.0582 39.9175 38.1304 40.0443 38.1761 40.1814C38.2218 40.3186 38.2399 40.4634 38.2296 40.6075C38.2192 40.7517 38.1805 40.8924 38.1156 41.0216C38.0508 41.1507 37.9611 41.2658 37.8517 41.3603L37.0323 42.0493L38.727 43.7875C38.8664 43.9269 38.965 44.1019 39.012 44.2934C39.0591 44.4849 39.0528 44.6856 38.9939 44.8738L36.6909 52.503L35.1514 36.5742Z" fill="white"/>
<path d="M18.4655 65.8435L23.4751 65.1792L23.3137 62.032L18.2793 62.6465L18.4655 65.8435Z" fill="white"/>
<path d="M25.2748 43.8124L26.3302 36.5743C25.5326 36.5701 24.752 36.8043 24.0885 37.2467C23.4249 37.6891 22.9085 38.3196 22.6056 39.0573L18.5458 49.1447C17.9378 50.6571 17.6707 52.2849 17.7636 53.9122L18.2664 62.6029L23.3008 61.9821L22.8291 53.0369L25.2748 43.8124Z" fill="white"/>
<path d="M19.5149 65.7006L19.0059 69.0466L21.5882 69.9529L22.0476 71.002H23.0222L23.2767 68.8169L24.2451 68.3513L23.1339 65.2227L19.5149 65.7006Z" fill="#F2C9AD"/>
<path d="M23.2763 68.8169L22.8604 66.4705L23.0342 66.6505C23.3087 66.9338 23.4814 67.3003 23.5252 67.6924C23.5691 68.0845 23.4815 68.48 23.2763 68.8169Z" fill="#EBA58E"/>
<path d="M23.133 65.2227L19.5139 65.7006L19.3525 66.7808L23.133 65.2227Z" fill="#402C49"/>
<path d="M25.2745 43.8125L25.9325 39.2996L25.3614 40.6156C24.5544 42.4651 24.2813 44.5037 24.573 46.5004L25.2745 43.8125Z" fill="#D9D9D9"/>
<path d="M48.1502 65.8435L43.1406 65.1792L43.302 62.032L48.3364 62.6465L48.1502 65.8435Z" fill="white"/>
<path d="M41.3404 43.8124L40.2852 36.5743C41.0827 36.5701 41.8633 36.8043 42.5269 37.2467C43.1905 37.6891 43.7068 38.3196 44.0097 39.0573L48.0385 49.1696C48.6465 50.6819 48.9136 52.3097 48.8207 53.937L48.3178 62.6277L43.2834 62.0069L43.7552 53.0617L41.3404 43.8124Z" fill="white"/>
<path d="M47.1008 65.7006L47.6098 69.0466L45.0275 69.9529L44.5681 71.002H43.5873L43.339 68.8169L42.3706 68.3513L43.4818 65.2227L47.1008 65.7006Z" fill="#F2C9AD"/>
<path d="M43.3386 68.8169L43.7545 66.4705L43.5807 66.6505C43.3062 66.9338 43.1335 67.3003 43.0896 67.6924C43.0458 68.0845 43.1334 68.48 43.3386 68.8169Z" fill="#EBA58E"/>
<path d="M43.4819 65.2227L47.101 65.7006L47.2624 66.7808L43.4819 65.2227Z" fill="#402C49"/>
<path d="M41.3401 43.8125L40.6821 39.2996L41.2532 40.6156C42.0603 42.4651 42.3334 44.5037 42.0416 46.5004L41.3401 43.8125Z" fill="#D9D9D9"/>
<path d="M31.7373 35.5689C30.9844 35.752 30.3043 36.1581 29.7859 36.734C29.2676 37.3099 28.9352 38.0289 28.8321 38.7969L28.7763 39.1942C28.5539 40.7993 28.533 42.4259 28.7142 44.0361L28.9997 46.5192L29.4032 46.4695L29.1177 43.9865C28.9376 42.4095 28.9563 40.8161 29.1735 39.2438L29.2294 38.8403C29.3226 38.1542 29.6207 37.5121 30.0848 36.9982C30.5489 36.4843 31.1573 36.1224 31.8304 35.96L32.0787 35.8979L31.9856 35.5068L31.7373 35.5689Z" fill="#495375"/>
<path d="M36.7833 39.1693L36.6778 37.9278C36.6299 37.3553 36.3987 36.8136 36.0185 36.3831C35.6383 35.9525 35.1293 35.6561 34.5671 35.5378H34.443L34.3623 35.9351H34.4803C34.9585 36.0342 35.3918 36.2855 35.7152 36.6514C36.0386 37.0174 36.2347 37.4782 36.2742 37.965L36.3798 39.2065C35.8419 39.2922 35.3521 39.5666 34.9983 39.9807C34.6445 40.3948 34.4498 40.9215 34.4492 41.4661V42.1366H34.8589V41.4289C34.8589 40.93 35.0571 40.4516 35.4098 40.0989C35.7626 39.7461 36.241 39.548 36.7398 39.548C37.2387 39.548 37.7171 39.7461 38.0698 40.0989C38.4226 40.4516 38.6207 40.93 38.6207 41.4289V42.0993H39.0242V41.4289C39.0179 40.8348 38.7803 40.2665 38.362 39.8447C37.9436 39.4228 37.3773 39.1806 36.7833 39.1693Z" fill="#495375"/>
<path d="M30.6139 47.2887C30.6139 47.5517 30.5358 47.8087 30.3896 48.0273C30.2433 48.2459 30.0355 48.4162 29.7924 48.5165C29.5493 48.6169 29.2819 48.6428 29.024 48.5911C28.7661 48.5393 28.5295 48.4122 28.3439 48.2258C28.1584 48.0394 28.0324 47.8021 27.9818 47.544C27.9312 47.2859 27.9584 47.0186 28.0599 46.776C28.1614 46.5333 28.3327 46.3263 28.5519 46.1811C28.7712 46.0359 29.0287 45.959 29.2917 45.9602C29.4658 45.9602 29.6383 45.9946 29.7991 46.0615C29.9599 46.1283 30.106 46.2262 30.2288 46.3497C30.3517 46.4731 30.449 46.6196 30.515 46.7807C30.5811 46.9419 30.6147 47.1145 30.6139 47.2887Z" fill="#E4E4E0"/>
<path d="M29.2911 48.2821C29.8396 48.2821 30.2843 47.8374 30.2843 47.2889C30.2843 46.7403 29.8396 46.2957 29.2911 46.2957C28.7425 46.2957 28.2979 46.7403 28.2979 47.2889C28.2979 47.8374 28.7425 48.2821 29.2911 48.2821Z" fill="#D4CFBE"/>
<path d="M29.8626 47.2888C29.8626 47.4032 29.8286 47.5151 29.7649 47.6101C29.7012 47.7052 29.6106 47.7792 29.5048 47.8227C29.3989 47.8662 29.2825 47.8773 29.1704 47.8545C29.0582 47.8317 28.9554 47.7761 28.8749 47.6947C28.7944 47.6134 28.7399 47.5099 28.7184 47.3975C28.6968 47.2851 28.7091 47.1689 28.7537 47.0635C28.7984 46.9581 28.8734 46.8684 28.9691 46.8057C29.0649 46.743 29.1771 46.7102 29.2915 46.7115C29.367 46.7115 29.4418 46.7264 29.5115 46.7555C29.5812 46.7846 29.6445 46.8272 29.6976 46.8809C29.7507 46.9346 29.7926 46.9983 29.8209 47.0683C29.8493 47.1383 29.8634 47.2133 29.8626 47.2888Z" fill="#A59B95"/>
<path d="M35.4993 46.736C35.2441 46.736 34.9994 46.6347 34.8189 46.4542C34.6385 46.2738 34.5371 46.0291 34.5371 45.7739V42.1238H34.742V45.7739C34.742 45.9747 34.8217 46.1674 34.9638 46.3094C35.1058 46.4514 35.2984 46.5312 35.4993 46.5312V46.736Z" fill="#D4CFBE"/>
<path d="M35.7474 46.4509H35.5301C35.5208 46.4537 35.5128 46.4595 35.5071 46.4673C35.5015 46.4752 35.4987 46.4847 35.4991 46.4944V46.7179C35.4989 46.7268 35.502 46.7354 35.5077 46.7422C35.5134 46.7491 35.5213 46.7536 35.5301 46.7551H35.7474C35.7727 46.7597 35.7986 46.7586 35.8234 46.752C35.8483 46.7453 35.8713 46.7333 35.8909 46.7166C35.9105 46.7 35.9261 46.6793 35.9367 46.6559C35.9474 46.6325 35.9526 46.607 35.9522 46.5813C35.9405 46.5379 35.913 46.5005 35.8751 46.4764C35.8372 46.4523 35.7916 46.4432 35.7474 46.4509Z" fill="#A59B95"/>
<path d="M37.9826 46.736C38.2367 46.7344 38.4799 46.6323 38.659 46.452C38.8381 46.2718 38.9386 46.028 38.9386 45.7739V42.1238H38.7275V45.7739C38.7275 45.8733 38.708 45.9718 38.6699 46.0637C38.6318 46.1556 38.5761 46.2391 38.5057 46.3094C38.4354 46.3797 38.3519 46.4355 38.26 46.4735C38.1682 46.5116 38.0697 46.5312 37.9702 46.5312L37.9826 46.736Z" fill="#D4CFBE"/>
<path d="M37.7273 46.4509H37.9446C37.955 46.4524 37.9645 46.4577 37.9714 46.4657C37.9782 46.4737 37.9819 46.4839 37.9818 46.4944V46.7179C37.9818 46.7277 37.9779 46.7372 37.9709 46.7442C37.9639 46.7512 37.9545 46.7551 37.9446 46.7551H37.7273C37.7022 46.7586 37.6766 46.7568 37.6522 46.7497C37.6279 46.7426 37.6053 46.7305 37.586 46.7141C37.5666 46.6977 37.551 46.6774 37.54 46.6545C37.5291 46.6316 37.5231 46.6067 37.5225 46.5813C37.5342 46.5379 37.5617 46.5005 37.5996 46.4764C37.6375 46.4523 37.6831 46.4432 37.7273 46.4509Z" fill="#A59B95"/>
<path d="M35.1512 36.5741L33.3075 38.9765L31.4639 36.5741V30.801H35.1512V36.5741Z" fill="#F2C9AD"/>
<path d="M31.4639 30.801V34.1718C31.9552 34.6563 32.6175 34.9279 33.3075 34.9279C33.9976 34.9279 34.6599 34.6563 35.1512 34.1718V30.801H31.4639Z" fill="#402C49"/>
<path d="M30.322 30.3419C30.322 30.6513 30.2303 30.9538 30.0584 31.211C29.8865 31.4683 29.6422 31.6688 29.3563 31.7872C29.0705 31.9056 28.7559 31.9365 28.4525 31.8762C28.149 31.8158 27.8703 31.6668 27.6515 31.4481C27.4328 31.2293 27.2838 30.9506 27.2234 30.6471C27.1631 30.3437 27.194 30.0291 27.3124 29.7433C27.4308 29.4574 27.6314 29.2131 27.8886 29.0412C28.1459 28.8693 28.4483 28.7776 28.7577 28.7776C28.9633 28.7768 29.1671 28.8167 29.3573 28.895C29.5475 28.9733 29.7202 29.0885 29.8657 29.2339C30.0111 29.3794 30.1263 29.5521 30.2046 29.7423C30.2829 29.9325 30.3228 30.1363 30.322 30.3419Z" fill="#F2C9AD"/>
<path d="M29.5765 30.342C29.5765 30.5056 29.5279 30.6654 29.4369 30.8013C29.3459 30.9372 29.2166 31.043 29.0654 31.1053C28.9142 31.1676 28.7479 31.1836 28.5875 31.1513C28.4272 31.1189 28.2801 31.0397 28.1649 30.9236C28.0497 30.8075 27.9716 30.6598 27.9404 30.4992C27.9093 30.3387 27.9265 30.1725 27.9899 30.0217C28.0534 29.871 28.1602 29.7425 28.2967 29.6525C28.4333 29.5625 28.5936 29.5152 28.7571 29.5164C28.8652 29.5164 28.9723 29.5378 29.0721 29.5793C29.1719 29.6209 29.2625 29.6818 29.3387 29.7586C29.4149 29.8353 29.4751 29.9264 29.5159 30.0265C29.5568 30.1267 29.5773 30.2339 29.5765 30.342Z" fill="#EBA58E"/>
<path d="M36.2935 30.3419C36.2935 30.6513 36.3852 30.9538 36.5571 31.211C36.729 31.4683 36.9733 31.6688 37.2592 31.7872C37.545 31.9056 37.8595 31.9365 38.163 31.8762C38.4664 31.8158 38.7452 31.6668 38.9639 31.4481C39.1827 31.2293 39.3317 30.9506 39.3921 30.6471C39.4524 30.3437 39.4214 30.0291 39.303 29.7433C39.1846 29.4574 38.9841 29.2131 38.7269 29.0412C38.4696 28.8693 38.1672 28.7776 37.8578 28.7776C37.6521 28.7768 37.4483 28.8167 37.2582 28.895C37.068 28.9733 36.8953 29.0885 36.7498 29.2339C36.6044 29.3794 36.4892 29.5521 36.4109 29.7423C36.3326 29.9325 36.2926 30.1363 36.2935 30.3419Z" fill="#F2C9AD"/>
<path d="M37.0327 30.342C37.0327 30.5053 37.0811 30.6649 37.1719 30.8007C37.2626 30.9364 37.3915 31.0423 37.5424 31.1047C37.6933 31.1672 37.8593 31.1836 38.0194 31.1517C38.1796 31.1199 38.3267 31.0412 38.4421 30.9258C38.5576 30.8103 38.6362 30.6632 38.6681 30.503C38.6999 30.3429 38.6836 30.1769 38.6211 30.026C38.5586 29.8752 38.4528 29.7462 38.317 29.6555C38.1812 29.5648 38.0216 29.5164 37.8583 29.5164C37.6394 29.5164 37.4294 29.6033 37.2745 29.7582C37.1197 29.913 37.0327 30.123 37.0327 30.342Z" fill="#EBA58E"/>
<path d="M33.3079 21.8748C32.1291 21.8748 30.9986 22.343 30.1651 23.1766C29.3316 24.0101 28.8633 25.1406 28.8633 26.3194V29.6343C28.8633 30.8131 29.3316 31.9436 30.1651 32.7771C30.9986 33.6107 32.1291 34.079 33.3079 34.079C34.4867 34.079 35.6173 33.6107 36.4508 32.7771C37.2843 31.9436 37.7526 30.8131 37.7526 29.6343V26.3194C37.7526 25.1406 37.2843 24.0101 36.4508 23.1766C35.6173 22.343 34.4867 21.8748 33.3079 21.8748Z" fill="#F2C9AD"/>
<path d="M31.3582 27.8215C31.2808 27.8215 31.2066 27.8523 31.1519 27.907C31.0971 27.9617 31.0664 28.0359 31.0664 28.1133V28.4857C31.0664 28.5631 31.0971 28.6373 31.1519 28.6921C31.2066 28.7468 31.2808 28.7775 31.3582 28.7775C31.4355 28.7775 31.5098 28.7468 31.5645 28.6921C31.6192 28.6373 31.6499 28.5631 31.6499 28.4857V28.1133C31.6499 28.0359 31.6192 27.9617 31.5645 27.907C31.5098 27.8523 31.4355 27.8215 31.3582 27.8215Z" fill="#402C49"/>
<path d="M34.7604 31.304C33.8367 31.5119 32.8783 31.5119 31.9546 31.304C32.0021 31.5199 32.0969 31.7227 32.2321 31.8977C32.3673 32.0726 32.5397 32.2154 32.7368 32.3158C32.9312 32.4063 33.1431 32.4532 33.3575 32.4532C33.572 32.4532 33.7838 32.4063 33.9783 32.3158C34.1719 32.2108 34.3414 32.0666 34.4761 31.8924C34.6108 31.7182 34.7076 31.5177 34.7604 31.304Z" fill="white"/>
<path d="M31.0731 26.6173C30.844 26.6458 30.6247 26.7267 30.432 26.8538C30.2393 26.9808 30.0784 27.1505 29.9619 27.3498L32.3208 27.0642C32.1611 26.8989 31.9655 26.7726 31.7491 26.6951C31.5328 26.6175 31.3014 26.5909 31.0731 26.6173Z" fill="#6A3649"/>
<path d="M35.2576 27.8215C35.335 27.8215 35.4092 27.8523 35.4639 27.907C35.5186 27.9617 35.5493 28.0359 35.5493 28.1133V28.4857C35.5493 28.5631 35.5186 28.6373 35.4639 28.6921C35.4092 28.7468 35.335 28.7775 35.2576 28.7775C35.1802 28.7775 35.106 28.7468 35.0513 28.6921C34.9966 28.6373 34.9658 28.5631 34.9658 28.4857V28.1133C34.9658 28.0359 34.9966 27.9617 35.0513 27.907C35.106 27.8523 35.1802 27.8215 35.2576 27.8215Z" fill="#402C49"/>
<path d="M35.5425 26.6173C35.7715 26.6458 35.9909 26.7267 36.1836 26.8537C36.3763 26.9808 36.5372 27.1505 36.6537 27.3498L34.2886 27.0642C34.4497 26.8991 34.6465 26.773 34.8638 26.6956C35.0811 26.6181 35.3133 26.5913 35.5425 26.6173Z" fill="#6A3649"/>
<path d="M38.919 23.2591C38.8315 22.9777 38.7085 22.7086 38.5527 22.4583C38.032 21.6837 37.2931 21.081 36.4297 20.7264C35.4078 20.2239 34.2778 19.9809 33.1397 20.0187C32.6145 20.0521 32.1037 20.204 31.6457 20.4631C31.1877 20.7223 30.7943 21.0818 30.4952 21.5148C30.0419 21.5079 29.5929 21.6031 29.1813 21.7933C28.7698 21.9835 28.4063 22.2638 28.1177 22.6135C27.6386 23.2713 27.3978 24.0726 27.4349 24.8855C27.4806 25.6854 27.6202 26.4771 27.8508 27.2444C28.1465 28.1986 28.501 29.1336 28.9123 30.0441L29.502 25.587C29.9768 25.913 30.5293 26.1078 31.1036 26.1519C31.3152 26.1857 31.532 26.1532 31.7244 26.0587C31.7994 26.0162 31.8623 25.955 31.9069 25.881C31.9515 25.8071 31.9762 25.7229 31.9789 25.6366C31.9828 25.5449 31.9645 25.4535 31.9256 25.3703C31.8867 25.2871 31.8283 25.2145 31.7554 25.1586C32.2812 25.5694 32.8919 25.8579 33.5432 26.0029C33.6901 26.0517 33.8461 26.067 33.9997 26.0477C34.1533 26.0284 34.3006 25.9749 34.4309 25.8911C34.5042 25.8179 34.5549 25.7251 34.5769 25.6238C34.5989 25.5226 34.5913 25.4171 34.555 25.32C34.481 25.1257 34.3715 24.9468 34.2322 24.7924C34.527 25.1366 34.8936 25.412 35.3061 25.5994C35.7141 25.7919 36.1719 25.8526 36.616 25.7732C36.8869 25.7193 37.1404 25.5999 37.3547 25.4256V25.587L37.7147 30.1372C38.133 29.1935 38.4998 28.2278 38.8135 27.2444C39.0159 26.4727 39.1386 25.6823 39.1797 24.8855C39.1932 24.332 39.1048 23.7807 38.919 23.2591Z" fill="#6A3649"/>
<path d="M33.9164 29.9136H32.7432C32.7779 30.0428 32.8511 30.1583 32.9531 30.2448C33.0552 30.3313 33.1811 30.3847 33.3143 30.3978C33.4515 30.3865 33.5823 30.3343 33.6896 30.248C33.7969 30.1617 33.8759 30.0452 33.9164 29.9136Z" fill="#EBA58E"/>
<path d="M36.7159 30.3109V29.8143C34.568 29.6716 34.0838 28.8894 33.3079 28.8894C32.5319 28.8894 32.0664 29.6716 29.8999 29.8143V30.3109C31.9857 30.1123 32.5009 29.3363 33.3079 29.3363C34.1149 29.3363 34.6301 30.1123 36.7159 30.3109Z" fill="white"/>
<path d="M33.3072 29.3362C32.5002 29.3362 31.9849 30.1121 29.8992 30.3108V31.1054C29.889 31.918 30.198 32.7023 30.7598 33.2896C31.3216 33.8769 32.0913 34.2205 32.9037 34.2464H33.7107C34.523 34.2205 35.2927 33.8769 35.8545 33.2896C36.4163 32.7023 36.7253 31.918 36.7152 31.1054V30.3108C34.6294 30.1121 34.1141 29.3362 33.3072 29.3362Z" fill="#FDF7E7"/>
<path d="M73.9306 57.8667H59.653L54.302 89.2835C53.8058 92.1893 53.5566 95.1319 53.5571 98.0797V101.376C53.5571 101.541 53.6225 101.699 53.7389 101.815C53.8554 101.931 54.0133 101.997 54.1779 101.997H58.9391C59.2296 101.996 59.5138 101.912 59.758 101.754C60.0022 101.597 60.1963 101.373 60.3172 101.109L61.0808 99.4516C62.7386 95.8656 63.7876 92.0285 64.1846 88.0979L66.5249 64.5089H68.0644L66.0407 91.3755C65.8769 93.5936 65.956 95.823 66.2766 98.0239L66.7359 101.221C66.7683 101.432 66.8748 101.625 67.0363 101.765C67.1978 101.905 67.4038 101.982 67.6174 101.984H72.0931C72.417 101.983 72.7333 101.886 73.0026 101.706C73.2719 101.526 73.4824 101.271 73.6078 100.972L73.7754 100.563C75.3154 96.8451 76.1085 92.8606 76.1094 88.8366V57.8667H73.9306Z" fill="white"/>
<path d="M76.1218 57.8664H59.6716C59.2508 57.3682 58.9408 56.7862 58.7621 56.159C58.5833 55.5319 58.54 54.8739 58.6349 54.2287L60.9814 38.0889H74.6382L77.084 54.2287C77.1792 54.8594 77.1435 55.5029 76.979 56.1192C76.8145 56.7354 76.5249 57.3112 76.128 57.8105L76.1218 57.8664Z" fill="white"/>
<path d="M66.624 64.5086C67.6558 63.4108 68.2498 61.9733 68.2939 60.4674L68.3684 57.8664C68.9319 57.1783 69.3523 56.3846 69.6049 55.5318C69.8576 54.679 69.9373 53.7843 69.8396 52.9003L68.2256 38.1013H69.6409L71.2549 52.9003C71.3527 53.7843 71.2729 54.679 71.0203 55.5318C70.7676 56.3846 70.3472 57.1783 69.7837 57.8664L69.7092 60.4674C69.6651 61.9733 69.0711 63.4108 68.0394 64.5086H66.624Z" fill="#6CA8BC"/>
<path d="M73.3591 38.114H62.3716L64.8546 38.6355C67.6867 39.2317 70.6272 39.0515 73.3653 38.114H73.3591Z" fill="#6CA8BC"/>
<g opacity="0.3">
<path opacity="0.3" d="M61.4038 57.8231C62.4094 57.8231 63.5455 57.8231 64.7497 57.8231C65.954 57.8231 67.2328 57.699 68.4743 57.5562C69.7158 57.4134 70.9884 57.1962 72.1989 56.9354C73.4094 56.6747 74.4833 56.4264 75.4517 56.1843C74.4878 56.7799 73.4589 57.2631 72.3851 57.6245C71.1607 58.0421 69.8956 58.3292 68.6109 58.4811C67.3248 58.6329 66.0261 58.6453 64.7373 58.5184C63.6036 58.4123 62.4854 58.1791 61.4038 57.8231Z" fill="#454F6B"/>
<path opacity="0.3" d="M61.5405 47.3882C62.4158 47.891 63.4028 48.4435 64.5016 48.9525C65.6297 49.4822 66.7909 49.9384 67.9778 50.3182C69.1678 50.691 70.3809 50.9855 71.6093 51.1997C72.795 51.4045 73.9248 51.5287 74.9304 51.6156C73.8172 51.8682 72.6749 51.9684 71.5348 51.9135C70.2281 51.8503 68.9348 51.6208 67.6861 51.2307C66.4429 50.8338 65.2558 50.2789 64.1539 49.5795C63.1886 48.9693 62.3097 48.2323 61.5405 47.3882Z" fill="#454F6B"/>
<path opacity="0.3" d="M64.7061 48.7164C67.9715 48.8064 71.2254 48.2908 74.303 47.1956C73.6696 47.6555 72.9815 48.035 72.2545 48.3253C71.4272 48.6675 70.5625 48.9112 69.6784 49.0516C68.7937 49.1903 67.896 49.2278 67.0029 49.1634C66.222 49.108 65.4507 48.9579 64.7061 48.7164Z" fill="#454F6B"/>
<path opacity="0.3" d="M67.7847 86.9492C70.3484 85.8507 72.7157 84.341 74.7931 82.4797C74.6663 83.1877 74.382 83.8581 73.9613 84.4413C73.0025 85.7991 71.5492 86.7264 69.9139 87.0237C69.2074 87.1575 68.48 87.132 67.7847 86.9492Z" fill="#454F6B"/>
<path opacity="0.3" d="M62.8001 86.974C62.2098 87.0706 61.606 87.0474 61.0248 86.9057C59.6894 86.5856 58.5132 85.7971 57.7099 84.6834C57.3578 84.1982 57.1066 83.6473 56.9712 83.0632C57.8216 83.715 58.7714 84.4848 59.7894 85.1614C60.8075 85.838 61.8752 86.434 62.8001 86.974Z" fill="#454F6B"/>
<path opacity="0.3" d="M59.3608 84.4412C60.0313 84.255 60.8321 84.106 61.6204 83.926C62.4088 83.7459 63.2034 83.5535 63.8862 83.4355C63.3217 84.0406 62.5872 84.4604 61.7794 84.64C60.9717 84.8195 60.1285 84.7502 59.3608 84.4412Z" fill="#454F6B"/>
</g>
<path d="M80.1136 60.1447L82.2925 60.4179L82.4228 60.2689C82.8418 59.8019 83.0816 59.2014 83.0995 58.5742L83.1988 55.309C83.2433 53.7911 82.9749 52.2803 82.4104 50.8706L78.2885 40.6217C77.9842 39.885 77.4675 39.2554 76.8042 38.8132C76.141 38.371 75.3611 38.1362 74.564 38.1387L75.6193 45.3768L78.0588 54.651L77.4381 57.8231C77.3697 58.1825 77.3763 58.5522 77.4575 58.909C77.5387 59.2658 77.6927 59.602 77.9099 59.8964L80.1136 60.1447Z" fill="white"/>
<path d="M77.7734 66.762L81.3863 67.2462L82.2926 60.4178L77.9348 59.8716L77.7734 66.762Z" fill="#F7DD8C"/>
<path d="M81.3856 67.2464L81.8139 70.0709C81.8377 70.2164 81.809 70.3657 81.7328 70.4919C81.6565 70.6182 81.5379 70.7132 81.398 70.7599L79.5792 71.3807C79.496 71.409 79.4198 71.4546 79.3556 71.5145C79.2914 71.5745 79.2407 71.6473 79.2067 71.7283L79.0205 72.1442C78.9726 72.2574 78.8921 72.3538 78.7893 72.4212C78.6865 72.4886 78.5661 72.524 78.4432 72.5229C78.2888 72.5237 78.1396 72.4669 78.0248 72.3635C77.91 72.2602 77.8379 72.1179 77.8224 71.9642L77.6362 70.3378L77.0154 70.0523C76.9063 69.9984 76.8092 69.9232 76.7298 69.831C76.6505 69.7388 76.5905 69.6316 76.5534 69.5158C76.5163 69.3999 76.5029 69.2778 76.5141 69.1567C76.5252 69.0355 76.5606 68.9179 76.6181 68.8107L77.7541 66.7622L81.3856 67.2464Z" fill="#F7DD8C"/>
<path d="M77.6305 70.3562L78.0464 68.0098L77.8663 68.1898C77.5937 68.4744 77.4228 68.8411 77.3801 69.2329C77.3375 69.6247 77.4255 70.0196 77.6305 70.3562Z" fill="#EFB96D"/>
<path d="M75.6253 45.3521L74.9673 40.8391L75.5384 42.1551C76.3443 44.005 76.6194 46.0426 76.333 48.04L75.6253 45.3521Z" fill="#D9D9D9"/>
<path d="M55.4381 60.1448L53.2654 60.4179L53.1288 60.2689C52.7098 59.8019 52.4701 59.2014 52.4522 58.5742L52.3529 55.309C52.3084 53.7911 52.5768 52.2803 53.1413 50.8706L57.2693 40.6218C57.5723 39.884 58.0886 39.2535 58.7522 38.8111C59.4158 38.3687 60.1964 38.1346 60.9939 38.1387L59.9386 45.3768L57.499 54.651L58.1198 57.8231C58.1881 58.1826 58.1815 58.5523 58.1003 58.9091C58.0192 59.2658 57.8652 59.602 57.648 59.8965L55.4381 60.1448Z" fill="white"/>
<path d="M57.7786 66.762L54.1657 67.2462L53.2656 60.4178L57.6172 59.8716L57.7786 66.762Z" fill="#F7DD8C"/>
<path d="M54.1655 67.2464L53.7372 70.0709C53.7133 70.2164 53.7421 70.3657 53.8183 70.4919C53.8945 70.6182 54.0132 70.7132 54.1531 70.7599L55.9781 71.3807C56.0601 71.4097 56.1351 71.4557 56.1982 71.5156C56.2613 71.5755 56.3111 71.6479 56.3444 71.7283L56.5306 72.1442C56.5785 72.2574 56.659 72.3538 56.7617 72.4212C56.8645 72.4886 56.985 72.524 57.1079 72.5229C57.2623 72.5237 57.4115 72.4669 57.5263 72.3635C57.6411 72.2602 57.7132 72.1179 57.7287 71.9642L57.9149 70.3378L58.5357 70.0523C58.6453 69.9991 58.7431 69.9242 58.823 69.8321C58.9028 69.74 58.9632 69.6327 59.0003 69.5166C59.0375 69.4005 59.0507 69.2781 59.0391 69.1568C59.0275 69.0354 58.9914 68.9177 58.9329 68.8107L57.797 66.7622L54.1655 67.2464Z" fill="#F7DD8C"/>
<path d="M57.9208 70.3562L57.5049 68.0098L57.6849 68.1898C57.9575 68.4744 58.1285 68.8411 58.1711 69.2329C58.2138 69.6247 58.1258 70.0196 57.9208 70.3562Z" fill="#EFB96D"/>
<path d="M59.9262 45.3521L60.5842 40.8391L60.0131 42.1551C59.2072 44.005 58.932 46.0426 59.2185 48.04L59.9262 45.3521Z" fill="#D9D9D9"/>
<path d="M53.2656 60.4179L55.4383 60.1448L53.2656 60.4179Z" fill="white"/>
<path d="M73.3588 38.114L72.9119 28.1818C72.8545 26.9719 72.3339 25.8303 71.4579 24.9937C70.582 24.157 69.4178 23.6893 68.2065 23.6875C67.05 23.6961 65.9371 24.1298 65.0797 24.9059C64.2223 25.682 63.6803 26.7464 63.557 27.8963L62.4023 38.114H73.3588Z" fill="white"/>
<path d="M69.6407 34.8795C70.409 34.8779 71.1454 34.572 71.6887 34.0286C72.232 33.4853 72.538 32.7489 72.5396 31.9806V30.3604C72.538 29.592 72.232 28.8556 71.6887 28.3123C71.1454 27.769 70.409 27.4631 69.6407 27.4614C68.8718 27.4614 68.1344 27.7669 67.5908 28.3105C67.0471 28.8542 66.7417 29.5915 66.7417 30.3604V31.9806C66.7417 32.7494 67.0471 33.4868 67.5908 34.0305C68.1344 34.5741 68.8718 34.8795 69.6407 34.8795Z" fill="#EBA58E"/>
<path d="M67.0958 28.8521H72.1798C72.3983 28.8537 72.6073 28.9412 72.7618 29.0957C72.9163 29.2501 73.0038 29.4592 73.0054 29.6777V30.7019C73.0054 30.8459 72.977 30.9885 72.9217 31.1215C72.8664 31.2544 72.7854 31.3751 72.6833 31.4767C72.5811 31.5782 72.46 31.6586 72.3267 31.7131C72.1934 31.7676 72.0507 31.7953 71.9067 31.7945H71.2114C70.9823 31.7947 70.759 31.7228 70.573 31.5892C70.387 31.4555 70.2476 31.2667 70.1748 31.0496C70.1492 30.9787 70.1024 30.9174 70.0407 30.8741C69.9791 30.8308 69.9056 30.8076 69.8302 30.8076C69.7549 30.8076 69.6814 30.8308 69.6197 30.8741C69.5581 30.9174 69.5113 30.9787 69.4857 31.0496C69.4136 31.2672 69.2745 31.4565 69.0883 31.5903C68.9021 31.7242 68.6783 31.7956 68.449 31.7945H67.3689C67.0792 31.7945 66.8012 31.6794 66.5964 31.4745C66.3915 31.2696 66.2764 30.9917 66.2764 30.7019V29.6777C66.2764 29.4598 66.3625 29.2507 66.516 29.0961C66.6695 28.9414 66.8779 28.8537 67.0958 28.8521Z" fill="#D1F4F5"/>
<path d="M67.9029 28.8521H72.9932C73.2111 28.8537 73.4195 28.9414 73.573 29.0961C73.7265 29.2507 73.8126 29.4598 73.8126 29.6777V30.7019C73.8126 30.9917 73.6975 31.2696 73.4926 31.4745C73.2877 31.6794 73.0098 31.7945 72.72 31.7945H72.0248C71.7951 31.7941 71.5712 31.7222 71.3843 31.5887C71.1974 31.4551 71.0567 31.2667 70.9819 31.0496C70.9579 30.978 70.9121 30.9157 70.8508 30.8716C70.7895 30.8275 70.716 30.8038 70.6405 30.8038C70.565 30.8038 70.4914 30.8275 70.4301 30.8716C70.3689 30.9157 70.323 30.978 70.299 31.0496C70.225 31.2672 70.0846 31.4562 69.8975 31.5898C69.7104 31.7234 69.4861 31.795 69.2562 31.7945H68.176C67.8863 31.7945 67.6084 31.6794 67.4035 31.4745C67.1986 31.2696 67.0835 30.9917 67.0835 30.7019V29.6777C67.0835 29.4598 67.1696 29.2507 67.3231 29.0961C67.4766 28.9414 67.685 28.8537 67.9029 28.8521Z" fill="#E7FAF9"/>
<path d="M67.8654 33.278C67.8497 33.5693 67.8936 33.8608 67.9943 34.1347C68.095 34.4085 68.2504 34.659 68.4511 34.8708C68.6518 35.0826 68.8936 35.2513 69.1616 35.3665C69.4297 35.4818 69.7184 35.5413 70.0101 35.5413C70.3019 35.5413 70.5906 35.4818 70.8587 35.3665C71.1267 35.2513 71.3685 35.0826 71.5692 34.8708C71.7699 34.659 71.9253 34.4085 72.026 34.1347C72.1267 33.8608 72.1706 33.5693 72.1549 33.278C72.1549 31.8502 71.3168 31.3474 70.1312 31.3474C68.9455 31.3474 67.8654 31.8502 67.8654 33.278Z" fill="#E4E4E0"/>
<path d="M69.2566 31.689C69.0484 31.9948 68.9361 32.3557 68.9338 32.7256C68.9501 33.2613 69.1781 33.7687 69.568 34.1365C69.9579 34.5042 70.4777 34.7023 71.0134 34.6873C71.4423 34.6878 71.8617 34.5603 72.2177 34.321C72.0218 34.6051 71.7592 34.8369 71.4529 34.996C71.1466 35.1551 70.806 35.2366 70.4609 35.2335C70.1959 35.2418 69.9319 35.1978 69.684 35.104C69.436 35.0102 69.209 34.8684 69.0159 34.6868C68.8228 34.5052 68.6673 34.2873 68.5584 34.0456C68.4496 33.8039 68.3894 33.5431 68.3813 33.2781C68.3848 32.9616 68.4665 32.6508 68.6192 32.3735C68.772 32.0962 68.9909 31.8611 69.2566 31.689Z" fill="#D4CFBE"/>
<path d="M68.9331 32.7379C68.9353 32.3679 69.0477 32.007 69.2559 31.7012C69.6116 31.4613 70.0311 31.3337 70.4602 31.335C70.7251 31.3267 70.9892 31.3707 71.2371 31.4645C71.485 31.5583 71.7121 31.7001 71.9052 31.8817C72.0983 32.0633 72.2538 32.2812 72.3627 32.5229C72.4715 32.7646 72.5317 33.0254 72.5397 33.2904C72.5365 33.6621 72.4243 34.0247 72.2169 34.3333C71.8609 34.5725 71.4416 34.7001 71.0127 34.6995C70.4769 34.7146 69.9571 34.5165 69.5673 34.1487C69.1774 33.781 68.9493 33.2736 68.9331 32.7379Z" fill="#E4E4E0"/>
<path d="M63.4335 28.219H73.0615C73.1815 28.219 73.2788 28.1217 73.2788 28.0017V26.934C73.2788 26.814 73.1815 26.7167 73.0615 26.7167H63.4335C63.3135 26.7167 63.2162 26.814 63.2162 26.934V28.0017C63.2162 28.1217 63.3135 28.219 63.4335 28.219Z" fill="#6CA8BC"/>
<path d="M70.2993 26.7105V25.5869C70.2993 25.093 70.1031 24.6193 69.7539 24.2701C69.4046 23.9208 68.9309 23.7246 68.437 23.7246H67.5928C68.0867 23.7246 68.5604 23.9208 68.9096 24.2701C69.2588 24.6193 69.4551 25.093 69.4551 25.5869V26.7105H70.2993Z" fill="#6CA8BC"/>
<path opacity="0.5" d="M73.0616 28.2126L73.1733 28.2871C73.7382 28.6523 74.1542 29.207 74.3466 29.8515L75.6812 34.2899C75.7862 34.6567 75.8052 35.0427 75.7368 35.418C75.6684 35.7933 75.5145 36.1479 75.2869 36.4541C75.0594 36.7603 74.7644 37.0099 74.4247 37.1836C74.0851 37.3574 73.71 37.4505 73.3285 37.4558H66.2518C65.8875 37.451 65.5287 37.366 65.2008 37.2069C64.873 37.0479 64.5842 36.8186 64.355 36.5354C64.1257 36.2522 63.9615 35.9221 63.8742 35.5683C63.7868 35.2146 63.7784 34.8459 63.8495 34.4886L64.7992 30.0067C64.8775 29.6405 65.0275 29.2934 65.2406 28.9855C65.4537 28.6776 65.7257 28.4149 66.0408 28.2126H73.074H73.0616Z" fill="#D9D9D9"/>
<g opacity="0.5">
<path opacity="0.5" d="M73.2784 30.7081H73.3777C73.4193 30.6961 73.458 30.6758 73.4916 30.6486C73.5251 30.6213 73.5529 30.5875 73.5731 30.5493C73.5934 30.5111 73.6058 30.4692 73.6095 30.4261C73.6133 30.383 73.6084 30.3396 73.595 30.2984L73.3653 29.5411C73.3394 29.4579 73.2822 29.3881 73.2057 29.3464C73.1293 29.3046 73.0396 29.2943 72.9556 29.3176C72.872 29.3448 72.802 29.4032 72.7604 29.4807C72.7188 29.5582 72.7086 29.6488 72.7321 29.7335L72.9618 30.4909C72.9852 30.5557 73.0283 30.6115 73.0851 30.6505C73.1419 30.6895 73.2095 30.7096 73.2784 30.7081Z" fill="white"/>
<path opacity="0.5" d="M74.5643 34.9356H74.6574C74.6992 34.9229 74.738 34.9019 74.7716 34.8741C74.8052 34.8462 74.8329 34.8119 74.8532 34.7732C74.8734 34.7344 74.8857 34.6921 74.8894 34.6486C74.8931 34.605 74.8881 34.5612 74.8746 34.5197L73.9559 31.4965C73.9491 31.4495 73.9322 31.4044 73.9063 31.3645C73.8804 31.3246 73.8462 31.2908 73.806 31.2654C73.7658 31.24 73.7205 31.2237 73.6734 31.2174C73.6262 31.2112 73.5783 31.2153 73.5329 31.2294C73.4874 31.2434 73.4456 31.2672 73.4103 31.299C73.3749 31.3308 73.3468 31.3699 73.3281 31.4136C73.3093 31.4573 73.3002 31.5045 73.3014 31.5521C73.3026 31.5996 73.3141 31.6463 73.3351 31.689L74.2539 34.7183C74.2769 34.7821 74.3191 34.8372 74.3746 34.8761C74.4302 34.915 74.4964 34.9358 74.5643 34.9356Z" fill="white"/>
</g>
</g>
</svg>
