<svg width="87" height="87" viewBox="0 0 87 87" fill="none" xmlns="http://www.w3.org/2000/svg">
<circle cx="43.5" cy="43.5" r="43.5" fill="#335DFF"/>
<mask id="mask0" mask-type="alpha" maskUnits="userSpaceOnUse" x="0" y="0" width="87" height="87">
<circle cx="43.5" cy="43.5" r="43.5" fill="#5C30F7"/>
</mask>
<g mask="url(#mask0)">
<path d="M51.7933 41.1914L65.4733 44.7014V66.4014C65.4748 69.1586 66.0575 71.8845 67.1833 74.4014L68.8233 78.1014C70.0421 80.8449 70.8346 83.7585 71.1733 86.7414H42.1733L44.0933 79.8614C44.9324 76.8562 44.9943 73.6871 44.2733 70.6514L43.9533 69.3014C43.788 68.6155 43.4664 67.977 43.0137 67.4358C42.5609 66.8946 41.9893 66.4653 41.3433 66.1814H41.2633C40.0755 65.6547 39.1084 64.7306 38.528 63.5681C37.9477 62.4056 37.7904 61.0773 38.0833 59.8114L41.2133 46.3914L51.7933 41.1914Z" fill="white"/>
<path d="M67.1834 74.4214L69.0334 78.2114L59.1534 81.9814C58.3187 82.3038 57.4073 82.3724 56.5337 82.1784C55.6601 81.9845 54.8633 81.5367 54.2434 80.8914L53.0434 79.7014L52.5234 79.8114C51.3136 80.0906 50.0564 80.0945 48.8448 79.8228C47.6332 79.551 46.4982 79.0106 45.5234 78.2414L44.5234 77.4814V74.4214H67.1834Z" fill="#EAF1FF"/>
<path d="M61.6031 66.1714C60.7031 66.6814 59.6631 67.2514 58.5331 67.7914C56.1757 68.9182 53.7006 69.7801 51.1531 70.3614C49.9331 70.6414 48.7632 70.8514 47.7432 71.0114C48.9135 71.0999 50.0898 71.0664 51.2531 70.9114C52.5848 70.7408 53.8951 70.4325 55.1631 69.9914C56.4295 69.5496 57.6461 68.9765 58.7932 68.2814C59.8024 67.6803 60.7445 66.973 61.6031 66.1714Z" fill="#EAF1FF"/>
<path d="M61.7332 69.3315C60.1532 69.7615 58.1132 70.3315 56.0432 70.7415C53.9732 71.1515 51.8732 71.4715 50.2432 71.7415C54.2193 72.04 58.1996 71.219 61.7332 69.3716V69.3315Z" fill="#EAF1FF"/>
<path d="M64.7334 81.9815C63.5434 82.1215 62.1934 82.2615 60.7334 82.3615C59.2734 82.4615 57.7334 82.4915 56.2234 82.4515C54.7134 82.4115 53.1634 82.2915 51.7334 82.1215C50.3034 81.9515 48.9434 81.7415 47.7334 81.5415C48.9763 82.0662 50.2651 82.4746 51.5834 82.7615C53.0908 83.0802 54.6234 83.2642 56.1634 83.3115C57.7067 83.3482 59.25 83.2411 60.7734 82.9915C62.1056 82.7835 63.4149 82.4487 64.6834 81.9915L64.7334 81.9815Z" fill="#EAF1FF"/>
<path d="M63.363 85.1316C61.5406 85.1452 59.7195 85.0316 57.913 84.7916C56.1107 84.5291 54.3295 84.1381 52.583 83.6216C53.3402 84.0279 54.1336 84.3627 54.953 84.6216C56.8328 85.2513 58.8125 85.5292 60.793 85.4416C61.6581 85.3983 62.5179 85.2812 63.363 85.0916V85.1316Z" fill="#EAF1FF"/>
<path d="M56.9832 42.9814L45.7032 44.2314C44.4486 45.3901 43.3854 46.7401 42.5533 48.2314L45.1532 49.5215L41.3232 52.9015C42.5149 58.9751 45.1642 64.6683 49.0432 69.4915L50.6632 69.7115C53.1632 67.9515 60.1633 62.1714 61.5233 55.3414L57.6732 51.6614L61.8732 49.2014C61.5732 48.4714 59.7832 44.6314 56.9832 42.9814Z" fill="#EAF1FF"/>
<path d="M51.6631 38.4215C51.8803 37.1244 51.8258 35.7964 51.5031 34.5215L46.7031 40.7615L47.3431 42.2915L47.7131 43.1815C48.6313 43.0169 49.4705 42.5569 50.1031 41.8715C50.9555 40.9028 51.4988 39.7013 51.6631 38.4215Z" fill="black"/>
<path d="M54.8727 46.9014L54.7527 42.0414L53.9327 40.0914L51.5727 34.4214L51.5027 34.5214C51.8254 35.7963 51.8799 37.1243 51.6627 38.4214C51.4983 39.7012 50.9551 40.9027 50.1027 41.8714C49.47 42.5568 48.6308 43.0168 47.7127 43.1814L48.3527 44.7014L47.9827 46.9214C47.8427 47.7114 47.7327 48.5114 47.6427 49.3014C47.6109 50.6368 47.6643 51.9728 47.8027 53.3014C48.8492 53.6033 49.9198 53.8141 51.0027 53.9314C52.1836 53.9364 53.3633 53.8562 54.5327 53.6914C54.8209 51.4402 54.9346 49.1701 54.8727 46.9014Z" fill="#E9B49D"/>
<path d="M47.6428 49.3015C47.4812 50.7527 47.3944 52.2113 47.3828 53.6715C48.5939 53.8616 49.817 53.9652 51.0428 53.9815C49.96 53.8643 48.8893 53.6535 47.8428 53.3515C47.689 52.0072 47.6222 50.6544 47.6428 49.3015Z" fill="black"/>
<path d="M10.5127 69.6414L12.6727 70.5514L14.1727 71.5013L14.6527 70.7314L13.6827 69.8413L10.5127 69.6414Z" fill="#A7C793"/>
<path d="M13.0627 68.7615L10.5127 69.6415L13.6827 69.8415L13.0627 68.7615Z" fill="#B3DBA9"/>
<path d="M61.0934 49.0515C61.0934 49.0515 58.9934 42.6615 53.9334 40.0515L54.7534 42.0015L54.8734 46.8615C55.0106 52.1786 54.2013 57.4777 52.4834 62.5115L49.7334 70.5115C49.7334 70.5115 58.2334 62.7315 60.8434 55.2615L56.7434 51.4815L61.0934 49.0515Z" fill="white"/>
<path d="M47.3834 53.6715C47.4031 51.4091 47.6038 49.1519 47.9834 46.9215L48.3534 44.7015L47.7134 43.1815L47.3434 42.2915C45.7875 43.9615 44.4225 45.7995 43.2734 47.7715L45.9034 49.3615L42.1934 52.9815C43.3434 61.1115 49.7334 70.6315 49.7334 70.6315L48.1234 61.9815C47.604 59.2426 47.3561 56.4591 47.3834 53.6715Z" fill="white"/>
<path d="M54.5331 53.6914C52.1619 54.0314 49.7543 54.0314 47.3831 53.6914C47.3545 56.4857 47.6024 59.2759 48.1231 62.0214L49.7331 70.6114L52.4831 62.6114C53.4724 59.7168 54.1594 56.7275 54.5331 53.6914Z" fill="#CE7181"/>
<path d="M47.3232 14.9114C45.7847 14.3354 44.1081 14.2378 42.5132 14.6314C41.6899 14.8555 40.9277 15.2623 40.2832 15.8214C40.6952 16.7787 41.3671 17.6016 42.2227 18.1966C43.0784 18.7917 44.0836 19.1353 45.1245 19.1883C46.1654 19.2414 47.2003 19.0019 48.1121 18.497C49.0238 17.9921 49.7759 17.2419 50.2832 16.3314C49.3497 15.7544 48.3575 15.2783 47.3232 14.9114Z" fill="#B2451F"/>
<path d="M47.3225 14.9115C48.343 15.281 49.3217 15.757 50.2425 16.3315C50.7203 15.4973 50.9719 14.5528 50.9725 13.5915C50.9742 12.761 50.7905 11.9407 50.4349 11.1903C50.0792 10.4399 49.5606 9.7783 48.9168 9.25382C48.2729 8.72933 47.5201 8.35514 46.7133 8.15857C45.9065 7.96201 45.0659 7.948 44.253 8.11759C43.4401 8.28717 42.6752 8.63607 42.0143 9.13883C41.3533 9.64158 40.8129 10.2855 40.4325 11.0237C40.0521 11.7618 39.8412 12.5756 39.8152 13.4056C39.7893 14.2356 39.9489 15.061 40.2825 15.8215C40.927 15.2623 41.6892 14.8556 42.5125 14.6315C44.1074 14.2379 45.784 14.3355 47.3225 14.9115Z" fill="#BE562A"/>
<path d="M36.4833 38.2414C34.3498 36.1065 32.6874 33.5481 31.6033 30.7314C31.0746 29.3177 30.8299 27.8138 30.8831 26.3055C30.9363 24.7972 31.2864 23.3142 31.9133 21.9413C32.5666 20.7109 33.4699 19.6305 34.5651 18.7695C35.6603 17.9084 36.9234 17.2858 38.2733 16.9413C41.0048 16.261 43.8898 16.584 46.4033 17.8513C47.1175 17.3543 47.9695 17.0938 48.8396 17.1064C49.7096 17.1189 50.5537 17.4039 51.2533 17.9214C52.2937 18.8555 52.9967 20.1069 53.2533 21.4814C54.3498 25.6169 53.9569 30.0063 52.1433 33.8813C47.311 36.4776 41.962 37.9669 36.4833 38.2414Z" fill="#BE562A"/>
<path d="M36.2929 40.0914C36.6029 39.7414 36.6129 38.7614 35.7729 38.8914L35.4629 39.6014L36.2929 40.0914Z" fill="#E0A02F"/>
<path d="M32.7831 37.4614C32.8717 37.9657 33.1077 38.4324 33.4613 38.8026C33.8149 39.1728 34.2703 39.4299 34.77 39.5414C35.2696 39.6529 35.7911 39.6138 36.2686 39.4291C36.7461 39.2444 37.1581 38.9223 37.4526 38.5036C37.7472 38.0848 37.911 37.5882 37.9234 37.0764C37.9358 36.5646 37.7963 36.0605 37.5224 35.628C37.2485 35.1955 36.8525 34.8538 36.3846 34.6462C35.9166 34.4385 35.3976 34.3742 34.8932 34.4614C34.5574 34.5194 34.2364 34.6431 33.9486 34.8254C33.6607 35.0076 33.4117 35.2449 33.2157 35.5236C33.0197 35.8023 32.8806 36.1169 32.8063 36.4494C32.7321 36.7819 32.7242 37.1258 32.7831 37.4614Z" fill="#DB9387"/>
<path d="M33.8329 37.2814C33.8671 37.4784 33.9397 37.6667 34.0466 37.8356C34.1535 38.0046 34.2927 38.1508 34.4561 38.2659C34.6195 38.381 34.804 38.4629 34.9991 38.5067C35.1941 38.5506 35.3959 38.5555 35.5929 38.5214C35.7899 38.4873 35.9782 38.4146 36.1472 38.3077C36.3161 38.2008 36.4623 38.0616 36.5774 37.8982C36.6926 37.7348 36.7744 37.5503 36.8182 37.3552C36.8621 37.1601 36.8671 36.9584 36.8329 36.7614C36.764 36.3636 36.5398 36.0094 36.2097 35.7769C35.8797 35.5443 35.4707 35.4524 35.0729 35.5214C34.6751 35.5904 34.321 35.8145 34.0884 36.1446C33.8559 36.4746 33.764 36.8836 33.8329 37.2814Z" fill="#D17E74"/>
<path d="M36.2929 40.0914C36.1447 39.9671 36.0225 39.8148 35.9333 39.6432C35.844 39.4716 35.7896 39.2841 35.7729 39.0914C35.7719 39.0671 35.7657 39.0434 35.7547 39.0218C35.7437 39.0001 35.7282 38.9811 35.7093 38.966C35.6903 38.9508 35.6684 38.9399 35.6448 38.9339C35.6213 38.928 35.5968 38.9271 35.5729 38.9314H35.3829C35.347 38.9365 35.3131 38.9513 35.2849 38.9742C35.2567 38.9971 35.2353 39.0272 35.2229 39.0614C35.1679 39.2779 35.1679 39.5048 35.2229 39.7214C35.281 39.9128 35.3839 40.0876 35.5229 40.2314C35.5732 40.2846 35.637 40.3229 35.7075 40.3423C35.7781 40.3617 35.8526 40.3614 35.9229 40.3414C36.0682 40.2964 36.197 40.2094 36.2929 40.0914Z" fill="#ECB344"/>
<path d="M51.5326 32.4614C49.8153 31.6522 48.303 30.4658 47.1082 28.9905C45.9135 27.5153 45.0672 25.7893 44.6326 23.9414C43.897 26.0607 42.611 27.9463 40.9064 29.4048C39.2019 30.8633 37.1402 31.8423 34.9326 32.2414L35.6126 36.1714C35.7963 37.2273 36.1863 38.2366 36.7601 39.1418C37.334 40.047 38.0806 40.8302 38.9572 41.4468C39.8338 42.0634 40.8233 42.5013 41.8691 42.7354C42.915 42.9696 43.9968 42.9954 45.0526 42.8114C46.1081 42.6288 47.1172 42.24 48.0223 41.6672C48.9274 41.0943 49.7107 40.3487 50.3274 39.4728C50.9441 38.597 51.3821 37.6082 51.6163 36.563C51.8506 35.5178 51.8765 34.4367 51.6926 33.3814L51.5326 32.4614Z" fill="#E9B49D"/>
<path d="M54.3329 36.3414C54.6429 35.9914 54.6629 35.0115 53.8329 35.1315L53.5029 35.8315L54.3329 36.3414Z" fill="#E0A02F"/>
<path d="M53.5627 35.7615C54.9931 35.7615 56.1526 34.602 56.1526 33.1715C56.1526 31.7411 54.9931 30.5815 53.5627 30.5815C52.1322 30.5815 50.9727 31.7411 50.9727 33.1715C50.9727 34.602 52.1322 35.7615 53.5627 35.7615Z" fill="#E9B49D"/>
<path d="M53.563 34.6913C54.4024 34.6913 55.083 34.0108 55.083 33.1714C55.083 32.3319 54.4024 31.6514 53.563 31.6514C52.7235 31.6514 52.043 32.3319 52.043 33.1714C52.043 34.0108 52.7235 34.6913 53.563 34.6913Z" fill="#DB9387"/>
<path d="M54.3332 36.3413C54.0376 36.0886 53.8542 35.729 53.8231 35.3413C53.8233 35.3172 53.8184 35.2934 53.8086 35.2713C53.7988 35.2493 53.7845 35.2295 53.7665 35.2135C53.7485 35.1974 53.7274 35.1853 53.7044 35.1781C53.6814 35.1708 53.6571 35.1685 53.6331 35.1713H53.4431C53.4054 35.1747 53.3694 35.1887 53.3393 35.2117C53.3092 35.2347 53.2863 35.2658 53.2732 35.3014C53.2084 35.52 53.2084 35.7527 53.2732 35.9713C53.3262 36.1576 53.4221 36.3288 53.5532 36.4713C53.6023 36.5262 53.6657 36.5665 53.7362 36.5877C53.8068 36.6089 53.8819 36.6101 53.9532 36.5913C54.1013 36.5465 54.2334 36.4597 54.3332 36.3413Z" fill="#ECB344"/>
<path d="M38.3834 30.9814C37.9584 31.0501 37.5591 31.2295 37.2255 31.5016C36.892 31.7737 36.636 32.1289 36.4834 32.5314C37.8181 31.9881 39.2534 31.7358 40.6934 31.7914C40.4132 31.4657 40.0523 31.2194 39.6468 31.0772C39.2414 30.9351 38.8056 30.902 38.3834 30.9814Z" fill="#BE562A"/>
<path d="M45.1932 29.8415C44.7278 29.9187 44.2894 30.1123 43.9188 30.4042C43.5481 30.6962 43.2573 31.0771 43.0732 31.5115C44.577 30.9665 46.1637 30.6857 47.7632 30.6815C47.439 30.3382 47.0339 30.0814 46.5851 29.9347C46.1362 29.788 45.6577 29.7559 45.1932 29.8415Z" fill="#BE562A"/>
<path d="M46.183 32.1716L45.7229 32.2716C45.5965 32.175 45.442 32.1223 45.2829 32.1216C45.1441 32.1216 45.0083 32.1629 44.893 32.2403C44.7777 32.3176 44.688 32.4276 44.6353 32.5561C44.5826 32.6846 44.5694 32.8258 44.5972 32.9619C44.625 33.0979 44.6927 33.2226 44.7916 33.3201C44.8905 33.4176 45.0162 33.4834 45.1526 33.5093C45.2891 33.5352 45.4301 33.5199 45.5578 33.4654C45.6856 33.4108 45.7942 33.3196 45.8699 33.2032C45.9456 33.0867 45.9849 32.9504 45.9829 32.8116C45.9878 32.7617 45.9878 32.7114 45.9829 32.6616L46.2829 32.2916C46.2941 32.2772 46.3 32.2594 46.2996 32.2412C46.2993 32.223 46.2928 32.2054 46.2811 32.1914C46.2694 32.1774 46.2534 32.1679 46.2355 32.1642C46.2177 32.1606 46.1991 32.1632 46.183 32.1716Z" fill="#272425"/>
<path d="M37.1425 33.0914H37.6125C37.7179 32.9707 37.8637 32.8925 38.0225 32.8714C38.1125 32.8557 38.2048 32.858 38.2939 32.8782C38.383 32.8984 38.4672 32.9361 38.5417 32.9891C38.6161 33.0422 38.6792 33.1094 38.7275 33.1871C38.7757 33.2647 38.808 33.3511 38.8225 33.4414C38.8517 33.624 38.8085 33.8109 38.7021 33.9622C38.5956 34.1135 38.4343 34.2172 38.2525 34.2514C38.0687 34.2777 37.8819 34.2321 37.731 34.1241C37.5801 34.016 37.4767 33.8538 37.4425 33.6714C37.4325 33.6185 37.4325 33.5642 37.4425 33.5114L37.0825 33.2014C37.0778 33.1903 37.0757 33.1783 37.0763 33.1663C37.0769 33.1542 37.0802 33.1425 37.0859 33.1319C37.0917 33.1213 37.0998 33.1122 37.1096 33.1052C37.1194 33.0981 37.1306 33.0934 37.1425 33.0914Z" fill="#272425"/>
<path d="M42.1932 36.7715C41.5627 36.8814 40.9232 36.9316 40.2832 36.9215C40.3712 37.1126 40.5122 37.2745 40.6895 37.388C40.8667 37.5014 41.0728 37.5616 41.2832 37.5615C41.6632 37.5615 42.0432 37.1415 42.1932 36.7715Z" fill="#DB9387"/>
<path d="M46.1333 37.8716C44.3792 38.5228 42.5244 38.8612 40.6533 38.8716C40.9656 39.3573 41.4071 39.7465 41.9281 39.9955C42.4491 40.2445 43.0292 40.3436 43.6033 40.2816C44.201 40.1405 44.7503 39.8429 45.1949 39.4194C45.6395 38.9959 45.9634 38.4617 46.1333 37.8716Z" fill="white"/>
<path d="M39.3534 25.4713C40.1355 25.0856 40.8307 24.5443 41.3964 23.8806C41.9621 23.2168 42.3865 22.4447 42.6434 21.6113L34.2734 25.7413C35.0937 26.046 35.9676 26.1792 36.8414 26.1328C37.7152 26.0863 38.5701 25.8612 39.3534 25.4713Z" fill="#B2451F"/>
<path d="M40.6826 20.8014C41.1522 20.7973 41.6159 20.6977 42.0457 20.5085C42.4755 20.3194 42.8624 20.0448 43.1826 19.7014H38.1826C38.5029 20.0448 38.8897 20.3194 39.3195 20.5085C39.7493 20.6977 40.2131 20.7973 40.6826 20.8014Z" fill="#B2451F"/>
<path d="M47.9331 23.4514C48.2504 23.9192 48.6596 24.3173 49.1358 24.6216C49.6121 24.926 50.1453 25.13 50.7031 25.2214L47.3131 20.2214C47.1932 20.7738 47.1863 21.3447 47.2929 21.8998C47.3994 22.4549 47.6172 22.9827 47.9331 23.4514Z" fill="#B2451F"/>
<path d="M39.8128 36.5414C39.2828 35.9714 38.6129 35.7414 38.3029 36.0214L36.9229 37.2914C37.2329 37.0014 37.9229 37.2414 38.4329 37.8114C38.9429 38.3814 39.1328 39.0714 38.8228 39.3614L40.2029 38.0914C40.5129 37.8114 40.3328 37.1114 39.8128 36.5414Z" fill="#797979"/>
<path d="M38.4334 37.8114C37.9034 37.2414 37.2334 37.0014 36.9234 37.2914L35.9834 38.1514C36.2934 37.8614 36.9834 38.1014 37.4934 38.6714C38.0034 39.2414 38.1934 39.9314 37.8834 40.2214L38.8234 39.3614C39.1334 39.0714 38.9534 38.3814 38.4334 37.8114Z" fill="#B1B1B1"/>
<path d="M37.4927 38.6715C36.9727 38.1015 36.2927 37.8615 35.9827 38.1515L34.2227 39.7615L36.1227 41.8315L37.8827 40.2215C38.1927 39.9815 38.0427 39.2415 37.4927 38.6715Z" fill="#797979"/>
<path d="M46.8128 36.5414C46.2828 35.9714 45.6129 35.7414 45.3029 36.0214L43.9229 37.2914C44.2329 37.0014 44.9229 37.2414 45.4329 37.8114C45.9429 38.3814 46.1328 39.0714 45.8228 39.3614L47.2029 38.0914C47.5129 37.8114 47.3328 37.1114 46.8128 36.5414Z" fill="#797979"/>
<path d="M45.4334 37.8114C44.9034 37.2414 44.2334 37.0014 43.9234 37.2914L42.9834 38.1514C43.2934 37.8614 43.9834 38.1014 44.4934 38.6714C45.0034 39.2414 45.1934 39.9314 44.8834 40.2214L45.8234 39.3614C46.1334 39.0714 45.9534 38.3814 45.4334 37.8114Z" fill="#B1B1B1"/>
<path d="M44.4927 38.6715C43.9627 38.1015 43.2927 37.8615 42.9827 38.1515L41.2227 39.7615L43.1227 41.8315L44.8827 40.2215C45.1927 39.9815 45.0427 39.2415 44.4927 38.6715Z" fill="#797979"/>
<path d="M32.7032 40.0615L29.5732 42.9815H42.3033V50.9815L45.3732 48.1615C45.5411 48.0079 45.675 47.821 45.7663 47.6126C45.8576 47.4042 45.9042 47.179 45.9032 46.9515V40.9515C45.9045 40.7904 45.874 40.6307 45.8133 40.4815C45.7525 40.3324 45.6629 40.1967 45.5495 40.0823C45.436 39.968 45.3011 39.8772 45.1524 39.8153C45.0038 39.7533 44.8443 39.7215 44.6833 39.7215H33.8132C33.4143 39.6966 33.0198 39.8174 32.7032 40.0615Z" fill="#515151"/>
<path d="M42.3027 52.3613V58.7213C40.9327 61.1313 36.3027 61.8413 36.3027 61.8413V52.3613H42.3027Z" fill="#515151"/>
<path d="M27.5433 42.9814H43.7833L34.6433 51.7014C34.0431 52.2769 33.5654 52.9677 33.2389 53.7324C32.9124 54.4971 32.7438 55.32 32.7433 56.1515V80.2814H17.1133V55.2115C17.114 54.3604 17.2923 53.5188 17.6367 52.7406C17.981 51.9623 18.484 51.2644 19.1133 50.6914L27.5433 42.9814Z" fill="#CBCBCD"/>
<path d="M43.7831 42.9814V50.9814L38.6631 55.6314C38.4322 55.8439 38.248 56.1021 38.1223 56.3896C37.9967 56.6771 37.9322 56.9877 37.9332 57.3015V80.2814H32.7432V56.1014C32.7437 55.2699 32.9122 54.4471 33.2387 53.6824C33.5652 52.9177 34.0429 52.2269 34.6432 51.6515L43.7831 42.9814Z" fill="#B1B1B1"/>
<path d="M36.2433 80.2815H13.6133V86.7615H36.2433V80.2815Z" fill="#999999"/>
<path d="M45.8332 80.2815H36.2432V86.7615H45.8332V80.2815Z" fill="#7B7B7B"/>
<path d="M34.0428 81.7815H33.3428C33.4515 81.7815 33.5558 81.8247 33.6327 81.9016C33.7096 81.9785 33.7528 82.0828 33.7528 82.1915V84.8515C33.7528 84.9602 33.7096 85.0645 33.6327 85.1414C33.5558 85.2183 33.4515 85.2615 33.3428 85.2615H34.0428C34.0962 85.2615 34.149 85.2509 34.1982 85.2301C34.2474 85.2094 34.2919 85.179 34.3292 85.1408C34.3665 85.1026 34.3957 85.0574 34.4153 85.0077C34.4348 84.958 34.4441 84.9049 34.4428 84.8515V82.1915C34.4441 82.1381 34.4348 82.0851 34.4153 82.0354C34.3957 81.9857 34.3665 81.9404 34.3292 81.9022C34.2919 81.864 34.2474 81.8336 34.1982 81.8129C34.149 81.7922 34.0962 81.7815 34.0428 81.7815Z" fill="#4E4E4E"/>
<path d="M33.3328 81.7815H29.0428C28.9341 81.7815 28.8298 81.8247 28.7529 81.9016C28.676 81.9785 28.6328 82.0828 28.6328 82.1915V84.8515C28.6328 84.9602 28.676 85.0645 28.7529 85.1414C28.8298 85.2183 28.9341 85.2615 29.0428 85.2615H33.3728C33.4815 85.2615 33.5858 85.2183 33.6627 85.1414C33.7396 85.0645 33.7828 84.9602 33.7828 84.8515V82.1915C33.7831 82.1341 33.7713 82.0773 33.7483 82.0248C33.7252 81.9722 33.6914 81.9251 33.649 81.8865C33.6065 81.8478 33.5565 81.8185 33.502 81.8004C33.4476 81.7824 33.3899 81.7759 33.3328 81.7815Z" fill="#5E5E5E"/>
<path d="M32.823 82.5815V84.5915L32.083 83.9215L32.563 83.4315L32.823 82.5815Z" fill="#D1422F"/>
<path d="M31.8333 82.5815H32.8232L32.5632 83.4315H31.5732L31.8333 82.5815Z" fill="#D6634F"/>
<path d="M31.0928 83.9214H32.0828L32.5628 83.4314H31.5728L31.0928 83.9214Z" fill="#DC925B"/>
<path d="M32.8228 84.5914H31.8328L31.0928 83.9214H32.0828L32.8228 84.5914Z" fill="#D6634F"/>
<path d="M30.7031 84.5915V82.5815L29.9531 83.2415L30.4431 83.7315L30.7031 84.5915Z" fill="#D1422F"/>
<path d="M29.7131 84.5914H30.7031L30.4431 83.7314H29.4531L29.7131 84.5914Z" fill="#DC925B"/>
<path d="M28.9629 83.2415H29.9529L30.4429 83.7314H29.4529L28.9629 83.2415Z" fill="#D6634F"/>
<path d="M30.7029 82.5815H29.7129L28.9629 83.2415H29.9529L30.7029 82.5815Z" fill="#DC925B"/>
<path d="M20.2027 81.9814H19.5527C19.818 81.9814 20.0723 82.0868 20.2598 82.2744C20.4474 82.4619 20.5527 82.7162 20.5527 82.9814V84.4114C20.5527 84.6767 20.4474 84.931 20.2598 85.1186C20.0723 85.3061 19.818 85.4114 19.5527 85.4114H20.2027C20.4679 85.4114 20.7223 85.3061 20.9098 85.1186C21.0974 84.931 21.2027 84.6767 21.2027 84.4114V82.9814C21.2027 82.7162 21.0974 82.4619 20.9098 82.2744C20.7223 82.0868 20.4679 81.9814 20.2027 81.9814Z" fill="#4E4E4E"/>
<path d="M19.5532 81.9814H17.2432C16.9779 81.9814 16.7236 82.0868 16.536 82.2744C16.3485 82.4619 16.2432 82.7162 16.2432 82.9814V84.4114C16.2432 84.6767 16.3485 84.931 16.536 85.1186C16.7236 85.3061 16.9779 85.4114 17.2432 85.4114H19.5532C19.8184 85.4114 20.0727 85.3061 20.2603 85.1186C20.4478 84.931 20.5532 84.6767 20.5532 84.4114V82.9814C20.5532 82.7162 20.4478 82.4619 20.2603 82.2744C20.0727 82.0868 19.8184 81.9814 19.5532 81.9814Z" fill="#5E5E5E"/>
<path d="M13.9234 59.0315C13.5634 59.0315 13.2734 59.6415 13.2734 60.3815C13.2734 61.1215 13.5634 61.7415 13.9234 61.7415H17.1134V59.0315H13.9234Z" fill="#515151"/>
<path d="M15.2432 70.2314C14.1532 70.2314 13.2432 72.0814 13.2432 74.3514C13.2432 76.6214 14.1232 78.4615 15.2432 78.4615H17.1132V70.2314H15.2432Z" fill="#515151"/>
<path d="M15.5134 56.5015C15.3334 56.5015 15.1934 56.8015 15.1934 57.1715C15.1934 57.5415 15.3334 57.8515 15.5134 57.8515H17.1134V56.5015H15.5134Z" fill="#515151"/>
<path d="M48.0026 68.1914H37.9326V70.5914H48.0026V68.1914Z" fill="#515151"/>
<path d="M61.0928 53.6714L61.1428 55.5514C61.262 59.8943 62.2836 64.1648 64.1428 68.0914L65.3228 70.5914L61.0928 53.6714Z" fill="#D1DAFF"/>
<path d="M58.7634 74.7915C58.4234 72.5415 57.2534 70.7915 56.0334 70.6415C55.9041 70.6214 55.7726 70.6214 55.6434 70.6415C54.3034 70.8515 53.5334 73.0415 53.9134 75.5315C54.2934 78.0215 55.6834 79.8915 57.0234 79.6815C58.3634 79.4715 59.1434 77.2915 58.7634 74.7915Z" fill="#E4D3D5"/>
<path d="M57.7129 72.6814L51.4229 73.2514L51.6328 77.5514L57.1829 77.9414C57.675 77.267 58.0005 76.4857 58.1328 75.6614C58.2914 74.6484 58.1453 73.6111 57.7129 72.6814Z" fill="#E9B49D"/>
<path d="M59.2726 72.5415L57.7126 72.6815C58.149 73.6172 58.2953 74.662 58.1326 75.6815C58.0003 76.5058 57.6748 77.2871 57.1826 77.9615L59.9526 78.1515L59.2726 72.5415Z" fill="black"/>
<path d="M37.7433 70.8414L39.8533 69.8414C40.0813 69.7294 40.3296 69.6648 40.5833 69.6514L43.0833 69.5014C43.431 69.4752 43.7787 69.5517 44.0833 69.7214L49.5233 72.6714H51.4433C51.6416 72.6717 51.8368 72.7213 52.0113 72.8155C52.1858 72.9097 52.3342 73.0458 52.4433 73.2114C52.8839 73.9019 53.113 74.7063 53.1024 75.5254C53.0917 76.3444 52.8418 77.1425 52.3833 77.8214C52.2432 78.0417 52.0226 78.1985 51.7684 78.2583C51.5143 78.3181 51.2469 78.2761 51.0233 78.1414L49.9433 77.5514L48.2933 77.7314C46.9453 77.8789 45.5928 77.4951 44.5233 76.6614L39.8733 77.1014C39.7437 77.1126 39.6144 77.0776 39.5082 77.0026C39.402 76.9275 39.3259 76.8172 39.2933 76.6914C39.2774 76.6183 39.2765 76.5428 39.2908 76.4694C39.3051 76.396 39.3341 76.3263 39.3763 76.2646C39.4184 76.2028 39.4726 76.1503 39.5357 76.1102C39.5988 76.0701 39.6695 76.0432 39.7433 76.0314L42.2133 75.6714L38.4633 75.8314C38.3289 75.8359 38.1973 75.7919 38.0927 75.7075C37.988 75.623 37.9172 75.5037 37.8933 75.3714C37.8708 75.2382 37.8981 75.1014 37.9701 74.987C38.042 74.8727 38.1535 74.7888 38.2833 74.7514L40.2133 74.1714L42.4433 73.9214L39.7833 73.8714L37.7833 74.2214C37.6217 74.251 37.455 74.2163 37.3187 74.1248C37.1823 74.0333 37.0871 73.8921 37.0533 73.7314C37.0207 73.5844 37.0409 73.4307 37.1104 73.2972C37.1799 73.1637 37.2942 73.0589 37.4333 73.0014L39.5133 72.1814L42.2033 71.6914L40.4133 71.5114L38.2333 72.1314C38.1433 72.1583 38.0487 72.1663 37.9555 72.1548C37.8622 72.1433 37.7723 72.1127 37.6915 72.0648C37.6107 72.0169 37.5407 71.9527 37.486 71.8764C37.4312 71.8001 37.3928 71.7133 37.3733 71.6214C37.3389 71.4687 37.3566 71.3089 37.4237 71.1675C37.4908 71.0261 37.6033 70.9113 37.7433 70.8414Z" fill="#B3DBA9"/>
<path d="M44.423 69.9114L45.963 76.0714L45.603 75.5614C45.0331 74.749 44.6346 73.8291 44.4317 72.8578C44.2289 71.8864 44.2259 70.8839 44.423 69.9114Z" fill="#A7C793"/>
<path d="M42.1934 75.6715L41.9234 75.5914C40.9081 75.2806 39.8189 75.3123 38.8234 75.6815L38.4434 75.8315L42.1934 75.6715Z" fill="#A7C793"/>
<path d="M42.4225 73.9215L41.3325 73.6715C40.3257 73.441 39.2709 73.55 38.3325 73.9815L37.8125 74.2215L39.8125 73.8716L42.4225 73.9215Z" fill="#A7C793"/>
<path d="M42.1927 71.6914L40.4026 71.5114L38.2227 72.1314L39.6727 71.2814C39.8721 71.1641 40.0962 71.0949 40.327 71.0793C40.5579 71.0637 40.7892 71.1021 41.0027 71.1914L42.1927 71.6914Z" fill="#A7C793"/>
<path d="M40.5527 77.0315L41.9727 76.6516C42.7521 76.4413 43.5733 76.4413 44.3527 76.6516H44.5027L40.5527 77.0315Z" fill="#A7C793"/>
<path d="M73.6927 71.6515L68.4927 47.7515C68.3243 47.0204 67.9537 46.3514 67.4232 45.821C66.8928 45.2905 66.2238 44.9199 65.4927 44.7515C63.7544 46.4772 62.4993 48.6289 61.8527 50.9915L61.1127 53.7215L65.3227 70.6415L56.0527 70.6915C57.2727 70.8615 58.4427 72.5915 58.7827 74.8415C59.1627 77.3415 58.3827 79.5315 57.0427 79.7315L69.0427 78.2615C69.7984 78.1684 70.5263 77.918 71.1793 77.5265C71.8324 77.1349 72.3961 76.6109 72.8342 75.9881C73.2723 75.3653 73.575 74.6577 73.7229 73.9107C73.8708 73.1638 73.8605 72.3942 73.6927 71.6515Z" fill="white"/>
<path d="M65.3027 70.5915H71.3827L69.9527 69.7715C69.2045 69.3412 68.3289 69.1875 67.4789 69.3374C66.6289 69.4873 65.8586 69.9312 65.3027 70.5915Z" fill="#EAF1FF"/>
<path d="M66.4528 46.1614C65.8275 46.4942 65.2463 46.904 64.7228 47.3814C64.1164 47.9252 63.5851 48.5474 63.1428 49.2314C62.6962 49.9083 62.3335 50.6369 62.0628 51.4014C61.831 52.0735 61.6865 52.7725 61.6328 53.4814C61.8426 52.8166 62.0931 52.1654 62.3828 51.5314C62.7047 50.8161 63.0825 50.1272 63.5128 49.4714C63.9495 48.8195 64.4342 48.2012 64.9628 47.6214C65.4288 47.1044 65.9264 46.6167 66.4528 46.1614Z" fill="#EAF1FF"/>
<path d="M61.7334 53.4614C62.9124 52.1149 64.2563 50.9221 65.7334 49.9114C64.8321 50.1417 63.9989 50.5841 63.3031 51.2016C62.6074 51.8191 62.0692 52.5939 61.7334 53.4614Z" fill="#EAF1FF"/>
<path d="M68.4434 57.7314C66.5011 60.8652 65.4629 64.4747 65.4434 68.1614C65.7834 66.6814 66.2134 64.7714 66.7534 62.8914C67.2934 61.0114 67.9634 59.1614 68.4634 57.7314H68.4434Z" fill="#EAF1FF"/>
<path d="M65.2733 56.4814C64.825 58.0597 64.5896 59.6908 64.5733 61.3315C64.5391 62.9726 64.7275 64.6109 65.1333 66.2014C65.1333 64.8414 65.0333 63.0914 65.0633 61.3414C65.0933 59.5914 65.2033 57.8414 65.2733 56.4814Z" fill="#EAF1FF"/>
<path d="M13.5032 73.9114C13.5555 73.575 13.5211 73.2308 13.4032 72.9114C13.2334 73.1977 13.1566 73.5296 13.1832 73.8614C12.7532 73.8614 12.2832 73.7814 11.8532 73.7614C11.8019 73.6967 11.7583 73.6262 11.7232 73.5514C11.5705 73.2055 11.5354 72.8192 11.6232 72.4514C11.4356 72.5398 11.283 72.6884 11.1896 72.8735C11.0962 73.0586 11.0673 73.2696 11.1075 73.473C11.1477 73.6764 11.2547 73.8605 11.4116 73.9961C11.5684 74.1317 11.7661 74.211 11.9732 74.2214L13.3232 74.2914L14.3932 74.2014C14.5551 74.1889 14.7064 74.1163 14.8174 73.9979C14.9285 73.8795 14.9912 73.7237 14.9932 73.5614C14.8733 73.6596 14.7424 73.7435 14.6032 73.8114C14.2561 73.9592 13.8713 73.9942 13.5032 73.9114Z" fill="#A7C793"/>
<path d="M14.5534 72.9814L13.6534 72.6614L12.1634 72.4315C11.9795 72.4075 11.7925 72.4352 11.6234 72.5114C11.5357 72.8792 11.5708 73.2656 11.7234 73.6114C11.7585 73.6862 11.8021 73.7567 11.8534 73.8214C12.2834 73.8214 12.7535 73.9014 13.1835 73.9214C13.1568 73.5897 13.2336 73.2577 13.4034 72.9714C13.5213 73.2908 13.5558 73.635 13.5034 73.9714C13.8694 74.0605 14.2542 74.0326 14.6034 73.8914C14.7427 73.8235 14.8736 73.7396 14.9934 73.6414C15.0015 73.4986 14.963 73.357 14.8836 73.238C14.8043 73.1189 14.6884 73.0289 14.5534 72.9814Z" fill="#B3DBA9"/>
<path d="M13.7029 75.7015C13.5723 75.3573 13.5343 74.9849 13.5929 74.6215C13.7802 74.9266 13.9028 75.267 13.9529 75.6215C14.3078 75.5608 14.6357 75.3934 14.8929 75.1415C14.947 75.0921 14.9971 75.0386 15.0429 74.9815C15.0514 74.8595 15.0236 74.7377 14.963 74.6315C14.9083 74.5368 14.8295 74.4582 14.7347 74.4038C14.6398 74.3493 14.5323 74.3209 14.4229 74.3215H13.3529L12.0029 74.2515V74.7315C12.0043 74.9909 12.0884 75.2431 12.243 75.4515C12.7034 75.6479 13.2034 75.7335 13.7029 75.7015Z" fill="#B3DBA9"/>
<path d="M14.8929 75.1015C14.6357 75.3534 14.3077 75.5209 13.9529 75.5815C13.9027 75.227 13.7802 74.8867 13.5929 74.5815C13.5342 74.945 13.5722 75.3174 13.7029 75.6615C13.1926 75.6952 12.6816 75.606 12.2129 75.4016C12.3904 75.6424 12.6501 75.8097 12.9429 75.8716L13.2229 75.9315C13.5388 75.9912 13.8656 75.9343 14.1429 75.7715L14.7129 75.4215C14.7993 75.3708 14.8718 75.2995 14.9242 75.2141C14.9765 75.1286 15.007 75.0316 15.0129 74.9315C14.9771 74.9911 14.937 75.0479 14.8929 75.1015Z" fill="#A7C793"/>
<path d="M13.353 72.3916C13.1218 72.2776 12.901 72.1437 12.693 71.9916C12.8137 71.722 12.8913 71.4352 12.923 71.1416C12.6977 71.331 12.5254 71.5756 12.423 71.8516L10.873 70.9816C10.963 70.7216 11.043 70.4416 11.133 70.1816C10.9121 70.3566 10.7428 70.5881 10.643 70.8516C10.4386 70.7164 10.2868 70.5152 10.213 70.2816C10.1884 70.1393 10.1884 69.9938 10.213 69.8516C10.1114 69.9644 10.0423 70.1026 10.013 70.2516C9.98288 70.4145 10.0054 70.5827 10.0773 70.7319C10.1493 70.8812 10.2668 71.0036 10.413 71.0816L13.333 72.7916C13.5198 72.8954 13.7394 72.9233 13.9462 72.8692C14.1529 72.8152 14.3309 72.6835 14.443 72.5016C14.4756 72.4479 14.5024 72.3909 14.523 72.3316C14.4039 72.4255 14.2628 72.4875 14.113 72.5116C13.8533 72.5553 13.5865 72.5132 13.353 72.3916Z" fill="#A7C793"/>
<path d="M14.0427 71.3315L11.0427 69.6915C10.8893 69.6079 10.7123 69.5783 10.5401 69.6073C10.3678 69.6363 10.2103 69.7223 10.0927 69.8515C10.0681 69.9937 10.0681 70.1392 10.0927 70.2815C10.1665 70.5151 10.3184 70.7163 10.5227 70.8515C10.6225 70.588 10.7919 70.3565 11.0127 70.1815C10.9227 70.4415 10.8427 70.7215 10.7527 70.9815L12.3027 71.8515C12.4051 71.5755 12.5774 71.3309 12.8027 71.1415C12.771 71.4351 12.6934 71.7219 12.5727 71.9915C12.7807 72.1436 13.0016 72.2775 13.2327 72.3915C13.4546 72.5046 13.7061 72.5465 13.9527 72.5115C14.1025 72.4874 14.2436 72.4254 14.3627 72.3315C14.4328 72.1535 14.4392 71.9567 14.3809 71.7744C14.3226 71.5922 14.2031 71.4357 14.0427 71.3315Z" fill="#B3DBA9"/>
<path d="M14.1528 70.0615C13.9218 69.805 13.7205 69.5232 13.5528 69.2215L13.1728 68.6115C13.0369 68.4121 12.9417 68.1878 12.8928 67.9515C12.8638 67.699 12.9239 67.4443 13.0628 67.2315C13.1649 67.0765 13.2785 66.9294 13.4028 66.7915C13.2303 66.7977 13.0624 66.8483 12.9154 66.9386C12.7683 67.0289 12.6471 67.1557 12.5635 67.3067C12.48 67.4577 12.4369 67.6278 12.4385 67.8003C12.4402 67.9729 12.4864 68.1421 12.5728 68.2915L13.8228 70.2915C13.9431 70.4836 14.1314 70.6233 14.3501 70.6826C14.5689 70.7419 14.802 70.7166 15.0028 70.6115H15.0528C14.7007 70.5316 14.3846 70.3384 14.1528 70.0615Z" fill="#A7C793"/>
<path d="M15.4028 69.5015L14.5429 67.4015C14.467 67.2223 14.3405 67.0692 14.1788 66.9608C14.0172 66.8525 13.8274 66.7936 13.6329 66.7915H13.4028C13.2786 66.9294 13.1649 67.0765 13.0628 67.2315C12.924 67.4443 12.8639 67.699 12.8929 67.9515C12.9418 68.1878 13.0369 68.4121 13.1729 68.6115L13.5529 69.2215C13.7206 69.5232 13.9218 69.805 14.1528 70.0615C14.3797 70.3255 14.6842 70.511 15.0229 70.5915C15.2054 70.4846 15.3439 70.3162 15.4135 70.1165C15.4832 69.9167 15.4794 69.6987 15.4028 69.5015Z" fill="#B3DBA9"/>
<path d="M54.3031 55.2514C54.307 55.2148 54.307 55.178 54.3031 55.1414C52.824 55.2169 51.3421 55.2169 49.8631 55.1414C49.0131 55.1414 48.173 55.0114 47.373 54.9214C47.373 55.0514 47.373 55.1814 47.373 55.3114C48.1803 55.4808 48.9994 55.5877 49.8231 55.6314C51.3269 55.7226 52.8361 55.5945 54.3031 55.2514Z" fill="#B55066"/>
<path d="M49.6133 59.9814C49.6188 60.5183 49.7065 61.0511 49.8733 61.5614C50.0656 62.1463 50.3382 62.7016 50.6833 63.2115C51.0079 63.6815 51.3948 64.1053 51.8333 64.4714L52.0433 63.9814C51.7533 63.6314 51.4733 63.2614 51.2033 62.8814C50.5854 61.9656 50.0532 60.9949 49.6133 59.9814Z" fill="#B55066"/>
<path d="M49.293 63.4214C49.6008 64.2018 50.1034 64.8904 50.753 65.4214C50.953 65.5814 51.153 65.7214 51.353 65.8514L51.493 65.4514C51.333 65.3401 51.1794 65.2199 51.033 65.0914C50.418 64.5723 49.8368 64.0145 49.293 63.4214Z" fill="#B55066"/>
<path d="M59.1331 78.3014C59.4625 77.7695 59.696 77.1839 59.8231 76.5714C59.9789 75.8689 60.0093 75.1444 59.9131 74.4314C59.822 73.717 59.6089 73.0236 59.2831 72.3813C59.0027 71.8212 58.6233 71.3164 58.1631 70.8914C58.506 71.3979 58.7911 71.9413 59.0131 72.5114C59.2649 73.1545 59.4362 73.8262 59.5231 74.5114C59.6047 75.1755 59.6047 75.8472 59.5231 76.5114C59.4517 77.1169 59.3177 77.7135 59.1231 78.2914L59.1331 78.3014Z" fill="#EAF1FF"/>
<path d="M26.1534 53.9814H19.2034C19.0681 53.9814 18.9384 53.9277 18.8427 53.832C18.7471 53.7364 18.6934 53.6067 18.6934 53.4714C18.6934 53.3361 18.7471 53.2064 18.8427 53.1108C18.9384 53.0151 19.0681 52.9614 19.2034 52.9614H26.1534C26.2886 52.9614 26.4183 53.0151 26.514 53.1108C26.6096 53.2064 26.6634 53.3361 26.6634 53.4714C26.6634 53.6067 26.6096 53.7364 26.514 53.832C26.4183 53.9277 26.2886 53.9814 26.1534 53.9814Z" fill="#E0DEDF"/>
<path d="M30.8329 53.9814H28.2629C28.1277 53.9814 27.998 53.9277 27.9023 53.832C27.8067 53.7364 27.7529 53.6067 27.7529 53.4714C27.7529 53.3361 27.8067 53.2064 27.9023 53.1108C27.998 53.0151 28.1277 52.9614 28.2629 52.9614H30.8329C30.9682 52.9614 31.0979 53.0151 31.1936 53.1108C31.2892 53.2064 31.3429 53.3361 31.3429 53.4714C31.3429 53.6067 31.2892 53.7364 31.1936 53.832C31.0979 53.9277 30.9682 53.9814 30.8329 53.9814Z" fill="#E0DEDF"/>
<path d="M62.0425 84.2515C62.0425 83.5884 62.3059 82.9525 62.7748 82.4837C63.2436 82.0149 63.8795 81.7515 64.5425 81.7515H63.4125C63.0654 81.7204 62.7157 81.7619 62.3855 81.8734C62.0554 81.9849 61.752 82.164 61.4948 82.3992C61.2377 82.6344 61.0323 82.9205 60.8918 83.2394C60.7513 83.5583 60.6787 83.903 60.6787 84.2515C60.6787 84.5999 60.7513 84.9446 60.8918 85.2635C61.0323 85.5824 61.2377 85.8686 61.4948 86.1038C61.752 86.3389 62.0554 86.518 62.3855 86.6295C62.7157 86.741 63.0654 86.7825 63.4125 86.7515H64.5425C63.8803 86.7488 63.246 86.4846 62.7777 86.0163C62.3094 85.548 62.0452 84.9137 62.0425 84.2515Z" fill="#ECCD7C"/>
<path d="M70.2628 84.2515C70.2628 83.9223 70.3278 83.5964 70.4541 83.2925C70.5804 82.9885 70.7654 82.7125 70.9986 82.4802C71.2318 82.2479 71.5086 82.064 71.8131 81.9389C72.1175 81.8139 72.4437 81.7502 72.7729 81.7515H71.6328C71.0084 81.8074 70.4275 82.095 70.0044 82.5576C69.5813 83.0203 69.3467 83.6245 69.3467 84.2515C69.3467 84.8784 69.5813 85.4827 70.0044 85.9454C70.4275 86.408 71.0084 86.6956 71.6328 86.7515H72.7729C72.1089 86.7515 71.472 86.4884 71.0015 86.0199C70.5311 85.5513 70.2655 84.9154 70.2628 84.2515Z" fill="#ECCD7C"/>
<path d="M78.5928 84.2816H74.3428C74.3157 84.2816 74.2888 84.2761 74.2639 84.2654C74.239 84.2548 74.2164 84.2392 74.1977 84.2195C74.179 84.1999 74.1645 84.1766 74.1551 84.1512C74.1456 84.1258 74.1415 84.0987 74.1428 84.0716C74.1428 84.0185 74.1639 83.9677 74.2014 83.9301C74.2389 83.8926 74.2898 83.8716 74.3428 83.8716H78.5928C78.6459 83.8716 78.6967 83.8926 78.7342 83.9301C78.7717 83.9677 78.7928 84.0185 78.7928 84.0716C78.7942 84.0987 78.79 84.1258 78.7806 84.1512C78.7711 84.1766 78.7566 84.1999 78.7379 84.2195C78.7192 84.2392 78.6967 84.2548 78.6717 84.2654C78.6468 84.2761 78.6199 84.2816 78.5928 84.2816Z" fill="#EFE1DF"/>
<path d="M67.8628 76.1515H61.0928C61.0398 76.1515 60.9889 76.1304 60.9514 76.0929C60.9139 76.0554 60.8928 76.0045 60.8928 75.9514C60.8915 75.9244 60.8956 75.8973 60.9051 75.8718C60.9145 75.8464 60.929 75.8232 60.9477 75.8035C60.9664 75.7839 60.989 75.7682 61.0139 75.7576C61.0388 75.7469 61.0657 75.7414 61.0928 75.7415H67.8628C67.9185 75.7415 67.9719 75.7636 68.0113 75.8029C68.0507 75.8423 68.0728 75.8958 68.0728 75.9514C68.0729 75.9786 68.0674 76.0054 68.0567 76.0304C68.046 76.0553 68.0304 76.0778 68.0107 76.0965C67.9911 76.1152 67.9679 76.1297 67.9424 76.1392C67.917 76.1486 67.8899 76.1528 67.8628 76.1515Z" fill="#EFE1DF"/>
<path d="M72.7734 76.1513H69.5134C69.4827 76.1582 69.4508 76.158 69.4202 76.1508C69.3896 76.1437 69.3609 76.1298 69.3364 76.1101C69.3119 76.0905 69.2921 76.0655 69.2785 76.0372C69.2649 76.0088 69.2578 75.9778 69.2578 75.9463C69.2578 75.9149 69.2649 75.8838 69.2785 75.8555C69.2921 75.8271 69.3119 75.8022 69.3364 75.7825C69.3609 75.7628 69.3896 75.7489 69.4202 75.7418C69.4508 75.7347 69.4827 75.7345 69.5134 75.7413H72.7734C72.8005 75.7413 72.8274 75.7468 72.8523 75.7574C72.8772 75.7681 72.8997 75.7838 72.9185 75.8034C72.9372 75.8231 72.9517 75.8463 72.9611 75.8717C72.9706 75.8971 72.9747 75.9242 72.9734 75.9513C72.9734 76.0044 72.9523 76.0552 72.9148 76.0927C72.8773 76.1303 72.8264 76.1513 72.7734 76.1513Z" fill="#EFE1DF"/>
<path d="M73.2533 77.5814H65.8233C65.7962 77.5827 65.7691 77.5786 65.7437 77.5691C65.7182 77.5597 65.695 77.5452 65.6754 77.5265C65.6557 77.5078 65.6401 77.4852 65.6294 77.4603C65.6187 77.4354 65.6132 77.4085 65.6133 77.3814C65.6133 77.3257 65.6354 77.2723 65.6748 77.2329C65.7142 77.1935 65.7676 77.1714 65.8233 77.1714H73.2533C73.3082 77.1738 73.3602 77.1967 73.399 77.2356C73.4379 77.2745 73.4608 77.3265 73.4633 77.3814C73.4607 77.4353 73.4375 77.4862 73.3983 77.5235C73.3592 77.5607 73.3073 77.5815 73.2533 77.5814Z" fill="#EFE1DF"/>
<path d="M68.8934 79.1515H62.4434C62.3894 79.1515 62.3374 79.1308 62.2983 79.0935C62.2592 79.0563 62.236 79.0054 62.2334 78.9514C62.2358 78.8965 62.2587 78.8445 62.2976 78.8057C62.3365 78.7668 62.3885 78.7439 62.4434 78.7415H68.8934C68.9473 78.744 68.9982 78.7673 69.0355 78.8064C69.0727 78.8455 69.0934 78.8974 69.0934 78.9514C69.0934 79.0045 69.0723 79.0554 69.0348 79.0929C68.9973 79.1304 68.9464 79.1515 68.8934 79.1515Z" fill="#EFE1DF"/>
<path d="M75.5931 79.1515H72.6631C72.636 79.1528 72.6089 79.1486 72.5835 79.1392C72.5581 79.1297 72.5348 79.1152 72.5152 79.0965C72.4956 79.0778 72.4799 79.0553 72.4692 79.0304C72.4586 79.0054 72.4531 78.9786 72.4531 78.9514C72.4531 78.8958 72.4752 78.8423 72.5146 78.8029C72.554 78.7636 72.6074 78.7415 72.6631 78.7415H75.5931C75.6471 78.744 75.698 78.7673 75.7352 78.8064C75.7724 78.8455 75.7932 78.8974 75.7931 78.9514C75.7931 79.0045 75.772 79.0554 75.7345 79.0929C75.697 79.1304 75.6462 79.1515 75.5931 79.1515Z" fill="#EFE1DF"/>
<path d="M71.1728 80.5515H61.0928C61.0398 80.5515 60.9889 80.5304 60.9514 80.4929C60.9139 80.4554 60.8928 80.4045 60.8928 80.3515C60.8915 80.3244 60.8956 80.2973 60.9051 80.2719C60.9145 80.2464 60.929 80.2232 60.9477 80.2036C60.9664 80.1839 60.989 80.1683 61.0139 80.1576C61.0388 80.1469 61.0657 80.1414 61.0928 80.1415H71.1728C71.2035 80.1347 71.2354 80.1348 71.266 80.1419C71.2966 80.1491 71.3252 80.163 71.3498 80.1827C71.3743 80.2024 71.3941 80.2273 71.4077 80.2556C71.4213 80.284 71.4284 80.315 71.4284 80.3465C71.4284 80.3779 71.4213 80.409 71.4077 80.4373C71.3941 80.4657 71.3743 80.4906 71.3498 80.5103C71.3252 80.53 71.2966 80.5439 71.266 80.551C71.2354 80.5581 71.2035 80.5583 71.1728 80.5515Z" fill="#EFE1DF"/>
</g>
</svg>
