<svg width="147" height="129" viewBox="0 0 147 129" fill="none" xmlns="http://www.w3.org/2000/svg">
<path d="M54.3889 17.2173C62.9291 21.775 66.1572 32.3926 61.5998 40.9327L44.5343 72.9093C39.9766 81.4494 29.359 84.6776 20.8189 80.1201C12.2788 75.5624 9.05062 64.9448 13.6081 56.4047L30.6733 24.4282C35.231 15.888 45.8488 12.6596 54.3889 17.2173Z" fill="#7ACAA6"/>
<path d="M20.8186 80.1211C20.535 79.9703 20.2566 79.8119 19.9831 79.6407C27.6104 81.5655 35.8495 78.1416 39.719 70.8899L56.7843 38.9151C61.1905 30.658 58.3197 20.4624 50.4092 15.6794C51.7627 16.0197 53.1006 16.5297 54.3893 17.2172C62.93 21.7743 66.1568 32.3926 61.5998 40.9333L44.5346 72.9106C39.9775 81.4485 29.3593 84.6781 20.8186 80.1211Z" fill="#57BE92"/>
<path d="M22.1407 40.4165L53.067 56.9211L44.5343 72.9094C39.9765 81.4496 29.3589 84.6777 20.8188 80.1203C12.2787 75.5625 9.05054 64.9449 13.608 56.4049L22.1407 40.4165Z" fill="#EE6161"/>
<path d="M20.8186 80.121C20.6592 80.0367 20.5021 79.9472 20.3452 79.8577C20.2237 79.7887 20.1022 79.7148 19.9832 79.6407C27.6105 81.5654 35.8495 78.1416 39.7191 70.8898L48.4805 54.4744L53.066 56.9203L44.5346 72.9103C39.9775 81.4484 29.3593 84.6781 20.8186 80.121Z" fill="#E94444"/>
<path d="M122.876 51.8283C135.126 48.2193 142.132 35.3627 138.523 23.1122C134.914 10.8617 122.057 3.85639 109.806 7.46537C97.556 11.0743 90.5507 23.931 94.1596 36.1815C97.7686 48.4319 110.625 55.4373 122.876 51.8283Z" fill="#F9F3F1"/>
<path d="M136.645 40.7111C130.535 51.925 116.492 56.0621 105.278 49.9519C104.874 49.7321 104.478 49.4997 104.095 49.2584C114.573 52.8714 126.433 48.5047 131.911 38.4503C137.798 27.6459 134.171 14.2117 123.865 7.78092C125.066 8.19411 126.25 8.71293 127.404 9.34114C138.62 15.4509 142.758 29.4965 136.645 40.7111Z" fill="#EFE2DD"/>
<path d="M127.166 37.0305C126.713 37.1639 126.21 37.1246 125.763 36.8808L105.154 25.6516C104.26 25.1643 103.93 24.0441 104.417 23.1499C104.905 22.2554 106.025 21.9255 106.919 22.4129L127.527 33.6421C128.422 34.1294 128.752 35.2496 128.264 36.1437C128.021 36.5908 127.619 36.8971 127.166 37.0305Z" fill="#CDBFBA"/>
<path d="M72.0372 87.3828C73.959 77.8953 83.2079 71.7622 92.6955 73.6842L128.219 80.8799C137.707 82.8017 143.84 92.0506 141.918 101.538C139.996 111.025 130.747 117.159 121.26 115.237L85.7358 108.041C76.2486 106.119 70.1154 96.8701 72.0372 87.3828Z" fill="#FEC165"/>
<path d="M141.919 101.538C141.856 101.853 141.783 102.165 141.698 102.476C141.358 94.6171 135.719 87.7032 127.663 86.0719L92.1408 78.8754C82.968 77.0175 74.0209 82.6872 71.7028 91.636C71.6412 90.2417 71.7468 88.814 72.0367 87.3823C73.9578 77.8944 83.2078 71.7625 92.6955 73.6837L128.22 80.8795C137.706 82.801 143.84 92.0504 141.919 101.538Z" fill="#FDB441"/>
<path d="M103.498 111.639L110.457 77.2819L128.219 80.8799C137.707 82.8017 143.84 92.0506 141.918 101.538C139.996 111.025 130.747 117.158 121.26 115.237L103.498 111.639Z" fill="#6BD9E7"/>
<path d="M141.919 101.538C141.884 101.715 141.843 101.891 141.802 102.067C141.771 102.203 141.735 102.341 141.698 102.476C141.359 94.6173 135.719 87.7034 127.663 86.0721L109.426 82.3773L110.457 77.2833L128.22 80.8796C137.706 82.801 143.84 92.0503 141.919 101.538Z" fill="#2ED1E2"/>
</svg>
