<svg width="47" height="47" viewBox="0 0 47 47" fill="none" xmlns="http://www.w3.org/2000/svg">
<path d="M23.5 0L21.6626 23.5L23.5 46.9999C36.4787 46.9999 47 36.4786 47 23.5C47 10.5213 36.4787 0 23.5 0Z" fill="#78B9EB"/>
<path d="M0 23.5C0 36.4786 10.5213 46.9999 23.5 46.9999V0C10.5213 0 0 10.5213 0 23.5Z" fill="#BEEBFA"/>
<path d="M23.4999 8.77588L22.3486 23.4999L23.4999 38.2239C31.6318 38.2239 38.2239 31.6317 38.2239 23.4999C38.2239 15.3681 31.6318 8.77588 23.4999 8.77588Z" fill="#E1EBF0"/>
<path d="M8.77588 23.4999C8.77588 31.6318 15.3681 38.2239 23.4999 38.2239V8.77588C15.368 8.77588 8.77588 15.368 8.77588 23.4999Z" fill="#FFF5F5"/>
<path d="M30.8249 23.5002C30.8249 19.4611 27.5388 16.175 23.4998 16.175L22.5811 17.566L23.4998 18.929C26.0203 18.929 28.071 20.9796 28.071 23.5002C28.071 26.0207 26.0203 28.0714 23.4998 28.0714L22.5811 29.5284L23.4998 30.8253C27.5388 30.8253 30.8249 27.5392 30.8249 23.5002Z" fill="#07485E"/>
<path d="M23.4998 7.39893L22.5811 8.77588L23.4998 10.1528C30.8594 10.1528 36.8468 16.1404 36.8468 23.4999C36.8468 30.8594 30.8594 36.847 23.4998 36.847L22.5811 38.2239L23.4998 39.6009C32.3779 39.6009 39.6007 32.3779 39.6007 23.4999C39.6007 14.6219 32.3779 7.39893 23.4998 7.39893Z" fill="#07485E"/>
<path d="M10.1528 23.4999C10.1528 16.1403 16.1404 10.1528 23.4999 10.1528V7.39893C14.6218 7.39893 7.39893 14.6219 7.39893 23.4999C7.39893 32.3779 14.6218 39.6009 23.4999 39.6009V36.847C16.1403 36.847 10.1528 30.8595 10.1528 23.4999Z" fill="#09607D"/>
<path d="M22.123 4.38452H24.8769V13.1674H22.123V4.38452Z" fill="#09607D"/>
<path d="M33.8325 22.123H42.6155V24.8769H33.8325V22.123Z" fill="#07485E"/>
<path d="M22.123 33.8328H24.8769V42.6157H22.123V33.8328Z" fill="#09607D"/>
<path d="M4.38428 22.1233H13.1672V24.8772H4.38428V22.1233Z" fill="#09607D"/>
<path d="M18.9287 23.5002C18.9287 20.9796 20.9794 18.929 23.4999 18.929V16.175C19.4609 16.175 16.1748 19.4611 16.1748 23.5002C16.1748 27.5392 19.4609 30.8253 23.4999 30.8253V28.0714C20.9794 28.0714 18.9287 26.0207 18.9287 23.5002Z" fill="#09607D"/>
</svg>
