<svg width="95" height="95" viewBox="0 0 95 95" fill="none" xmlns="http://www.w3.org/2000/svg">
<g clip-path="url(#clip0)">
<path d="M92.9397 67.2951L62.1389 11.631C62.1389 11.6282 62.1389 11.6282 62.1389 11.6282C59.201 6.28744 53.5909 2.96875 47.5 2.96875C41.4063 2.96875 35.7964 6.28744 32.8611 11.631L2.06031 67.2951C0.712129 69.7439 0 72.5243 0 75.332C0 84.5405 7.49071 92.0312 16.6992 92.0312H47.5H78.3008C87.5093 92.0312 95 84.5405 95 75.332C95 72.5243 94.2879 69.7439 92.9397 67.2951Z" fill="#F3F5F9"/>
<path d="M95 75.332C95 72.5243 94.2879 69.7439 92.9397 67.2951L62.1389 11.631C62.1389 11.6282 62.1389 11.6282 62.1389 11.6282C59.201 6.28744 53.5909 2.96875 47.5 2.96875V92.0312H78.3008C87.5093 92.0312 95 84.5405 95 75.332Z" fill="#E1E6F0"/>
<path d="M88.0637 69.9749L57.2629 14.3109V14.3136C55.3006 10.7476 51.5607 8.53516 47.5 8.53516C43.4367 8.53516 39.6966 10.7476 37.7371 14.3109L6.9363 69.9749C6.03937 71.6057 5.56641 73.4593 5.56641 75.332C5.56641 81.472 10.5593 86.4648 16.6992 86.4648H47.5H78.3008C84.4407 86.4648 89.4336 81.472 89.4336 75.332C89.4336 73.4593 88.9606 71.6057 88.0637 69.9749Z" fill="#FFDF40"/>
<path d="M89.4336 75.332C89.4336 73.4593 88.9606 71.6057 88.0637 69.9749L57.2629 14.3109V14.3136C55.3006 10.7476 51.5607 8.53516 47.5 8.53516V86.4648H78.3008C84.4407 86.4648 89.4336 81.472 89.4336 75.332Z" fill="#FFBE40"/>
<path d="M47.5 80.8984C52.1114 80.8984 55.8496 77.1602 55.8496 72.5488C55.8496 67.9375 52.1114 64.1992 47.5 64.1992C42.8886 64.1992 39.1504 67.9375 39.1504 72.5488C39.1504 77.1602 42.8886 80.8984 47.5 80.8984Z" fill="#4D3535"/>
<path d="M47.5 19.668C42.8958 19.668 39.1504 23.4134 39.1504 28.0176V50.2832C39.1504 54.8874 42.8958 58.6328 47.5 58.6328C52.1042 58.6328 55.8496 54.8874 55.8496 50.2832V28.0176C55.8496 23.4134 52.1042 19.668 47.5 19.668Z" fill="#4D3535"/>
<path d="M55.8496 72.5488C55.8496 67.9447 52.1042 64.1992 47.5 64.1992V80.8984C52.1042 80.8984 55.8496 77.153 55.8496 72.5488Z" fill="#331E1E"/>
<path d="M55.8496 50.2832V28.0176C55.8496 23.4134 52.1042 19.668 47.5 19.668V58.6328C52.1042 58.6328 55.8496 54.8874 55.8496 50.2832Z" fill="#331E1E"/>
</g>
<defs>
<clipPath id="clip0">
<rect width="95" height="95" fill="white"/>
</clipPath>
</defs>
</svg>
