<svg width="136" height="136" viewBox="0 0 136 136" fill="none" xmlns="http://www.w3.org/2000/svg">
<g opacity="0.5">
<circle cx="1.5814" cy="20.5581" r="1.5814" fill="#A991FF"/>
<circle cx="1.5814" cy="96.4651" r="1.5814" fill="#A991FF"/>
<circle cx="77.4886" cy="20.5581" r="1.5814" fill="#A991FF"/>
<circle cx="77.4886" cy="96.4651" r="1.5814" fill="#A991FF"/>
<circle cx="39.535" cy="20.5581" r="1.5814" fill="#A991FF"/>
<circle cx="39.535" cy="96.4651" r="1.5814" fill="#A991FF"/>
<circle cx="115.442" cy="20.5581" r="1.5814" fill="#A991FF"/>
<circle cx="115.442" cy="96.4651" r="1.5814" fill="#A991FF"/>
<circle cx="1.5814" cy="58.5116" r="1.5814" fill="#A991FF"/>
<circle cx="1.5814" cy="134.419" r="1.5814" fill="#A991FF"/>
<circle cx="77.4886" cy="58.5116" r="1.5814" fill="#A991FF"/>
<circle cx="77.4886" cy="134.419" r="1.5814" fill="#A991FF"/>
<circle cx="39.535" cy="58.5116" r="1.5814" fill="#A991FF"/>
<circle cx="39.535" cy="134.419" r="1.5814" fill="#A991FF"/>
<circle cx="115.442" cy="58.5116" r="1.5814" fill="#A991FF"/>
<circle cx="115.442" cy="134.419" r="1.5814" fill="#A991FF"/>
<circle cx="20.5584" cy="20.5581" r="1.5814" fill="#A991FF"/>
<circle cx="20.5584" cy="96.4651" r="1.5814" fill="#A991FF"/>
<circle cx="96.4652" cy="20.5581" r="1.5814" fill="#A991FF"/>
<circle cx="96.4652" cy="96.4651" r="1.5814" fill="#A991FF"/>
<circle cx="58.5116" cy="20.5581" r="1.5814" fill="#A991FF"/>
<circle cx="58.5116" cy="96.4651" r="1.5814" fill="#A991FF"/>
<circle cx="134.419" cy="20.5581" r="1.5814" fill="#A991FF"/>
<circle cx="134.419" cy="96.4651" r="1.5814" fill="#A991FF"/>
<circle cx="20.5584" cy="58.5116" r="1.5814" fill="#A991FF"/>
<circle cx="20.5584" cy="134.419" r="1.5814" fill="#A991FF"/>
<circle cx="96.4652" cy="58.5116" r="1.5814" fill="#A991FF"/>
<circle cx="96.4652" cy="134.419" r="1.5814" fill="#A991FF"/>
<circle cx="58.5116" cy="58.5116" r="1.5814" fill="#A991FF"/>
<circle cx="58.5116" cy="134.419" r="1.5814" fill="#A991FF"/>
<circle cx="134.419" cy="58.5116" r="1.5814" fill="#A991FF"/>
<circle cx="134.419" cy="134.419" r="1.5814" fill="#A991FF"/>
<circle cx="1.5814" cy="1.5814" r="1.5814" fill="#A991FF"/>
<circle cx="1.5814" cy="77.4883" r="1.5814" fill="#A991FF"/>
<circle cx="77.4886" cy="1.5814" r="1.5814" fill="#A991FF"/>
<circle cx="77.4886" cy="77.4883" r="1.5814" fill="#A991FF"/>
<circle cx="39.535" cy="1.5814" r="1.5814" fill="#A991FF"/>
<circle cx="39.535" cy="77.4883" r="1.5814" fill="#A991FF"/>
<circle cx="115.442" cy="1.5814" r="1.5814" fill="#A991FF"/>
<circle cx="115.442" cy="77.4883" r="1.5814" fill="#A991FF"/>
<circle cx="1.5814" cy="39.5349" r="1.5814" fill="#A991FF"/>
<circle cx="1.5814" cy="115.442" r="1.5814" fill="#A991FF"/>
<circle cx="77.4886" cy="39.5349" r="1.5814" fill="#A991FF"/>
<circle cx="77.4886" cy="115.442" r="1.5814" fill="#A991FF"/>
<circle cx="39.535" cy="39.5349" r="1.5814" fill="#A991FF"/>
<circle cx="39.535" cy="115.442" r="1.5814" fill="#A991FF"/>
<circle cx="115.442" cy="39.5349" r="1.5814" fill="#A991FF"/>
<circle cx="115.442" cy="115.442" r="1.5814" fill="#A991FF"/>
<circle cx="20.5584" cy="1.5814" r="1.5814" fill="#A991FF"/>
<circle cx="20.5584" cy="77.4883" r="1.5814" fill="#A991FF"/>
<circle cx="96.4652" cy="1.5814" r="1.5814" fill="#A991FF"/>
<circle cx="96.4652" cy="77.4883" r="1.5814" fill="#A991FF"/>
<circle cx="58.5116" cy="1.5814" r="1.5814" fill="#A991FF"/>
<circle cx="58.5116" cy="77.4883" r="1.5814" fill="#A991FF"/>
<circle cx="134.419" cy="1.5814" r="1.5814" fill="#A991FF"/>
<circle cx="134.419" cy="77.4883" r="1.5814" fill="#A991FF"/>
<circle cx="20.5584" cy="39.5349" r="1.5814" fill="#A991FF"/>
<circle cx="20.5584" cy="115.442" r="1.5814" fill="#A991FF"/>
<circle cx="96.4652" cy="39.5349" r="1.5814" fill="#A991FF"/>
<circle cx="96.4652" cy="115.442" r="1.5814" fill="#A991FF"/>
<circle cx="58.5116" cy="39.5349" r="1.5814" fill="#A991FF"/>
<circle cx="58.5116" cy="115.442" r="1.5814" fill="#A991FF"/>
<circle cx="134.419" cy="39.5349" r="1.5814" fill="#A991FF"/>
<circle cx="134.419" cy="115.442" r="1.5814" fill="#A991FF"/>
</g>
</svg>
