<svg width="21" height="20" viewBox="0 0 21 20" fill="none" xmlns="http://www.w3.org/2000/svg">
<path d="M8.28289 11.7183C6.37393 9.80934 5.94289 7.90037 5.84565 7.13554C5.81848 6.92407 5.89126 6.71198 6.04255 6.56175L7.58738 5.01761C7.81462 4.7905 7.85495 4.43657 7.68462 4.16416L5.22496 0.344852C5.03652 0.0432134 4.6496 -0.0656509 4.33152 0.0934725L0.382895 1.95313C0.125674 2.07979 -0.0256201 2.35308 0.00358448 2.6383C0.210481 4.60382 1.06738 9.43554 5.81565 14.1842C10.5639 18.9328 15.395 19.7893 17.3615 19.9962C17.6467 20.0254 17.92 19.8741 18.0467 19.6169L19.9063 15.6683C20.0649 15.3509 19.9567 14.965 19.6563 14.7762L15.837 12.3173C15.5648 12.1468 15.2109 12.1868 14.9836 12.4138L13.4394 13.9586C13.2892 14.1099 13.0771 14.1827 12.8657 14.1555C12.1008 14.0583 10.1919 13.6273 8.28289 11.7183V11.7183Z" fill="white"/>
<path d="M15.8632 10.6896C15.4824 10.6896 15.1736 10.3809 15.1736 9.99996C15.1704 7.14466 12.8565 4.83078 10.0012 4.82755C9.62029 4.82755 9.31152 4.51878 9.31152 4.1379C9.31152 3.75701 9.62029 3.44824 10.0012 3.44824C13.6179 3.45223 16.5489 6.3832 16.5529 9.99996C16.5529 10.3809 16.2441 10.6896 15.8632 10.6896Z" fill="white"/>
<path d="M19.3115 10.6897C18.9306 10.6897 18.6219 10.3809 18.6219 10C18.6165 5.24113 14.76 1.38463 10.0012 1.37931C9.62029 1.37931 9.31152 1.07054 9.31152 0.689655C9.31152 0.308769 9.62029 0 10.0012 0C15.5215 0.00608133 19.9951 4.47967 20.0012 10C20.0012 10.1829 19.9285 10.3583 19.7992 10.4877C19.6698 10.617 19.4944 10.6897 19.3115 10.6897Z" fill="white"/>
</svg>
